<svg enable-background="new 0 0 3000 3000" viewBox="143.83 1087.19 2712.34 825.63" xmlns="http://www.w3.org/2000/svg"><g fill="#3381cc"><path d="m551.803 1087.188c-226.986 0-407.975 185.221-407.975 411.602 0 228.796 180.988 414.023 407.975 414.023 228.797 0 407.365-185.227 407.365-414.023 0-226.381-178.562-411.602-407.365-411.602zm0 174.325c185.826 0 322.018 118.033 379.516 237.276-57.498 121.06-193.689 239.703-379.516 239.703-187.036 0-321.417-118.643-378.915-239.703 57.503-119.243 192.485-237.276 378.915-237.276zm0 18.765c-121.059 0-219.728 98.058-219.728 218.512 0 122.269 98.669 219.728 219.728 219.728 121.06 0 218.512-97.459 218.512-219.728 0-120.455-97.452-218.512-218.512-218.512z"/><path d="m1348.979 1136.217c-213.064 0-361.973 161.614-361.973 358.94v2.416c0 199.749 151.93 357.125 356.524 357.125 133.771 0 213.665-47.209 285.094-124.092l-97.447-98.053c-54.482 49.635-103.51 81.711-182.799 81.711-118.644 0-201.563-99.875-201.563-219.108v-1.815c0-119.244 84.741-216.696 201.563-216.696 69.609 0 124.086 29.659 177.958 78.693l97.447-112.585c-64.767-63.56-143.454-106.536-274.804-106.536z"/><path d="m1686.129 1147.717v694.88h331.098c156.771 0 259.666-62.951 259.666-190.068v-2.416c0-93.211-49.029-139.822-129.533-170.693 49.635-27.849 90.795-71.426 90.795-150.114v-1.815c0-47.818-15.738-86.558-47.818-118.638-39.344-39.35-101.686-61.135-180.984-61.135zm148.902 133.771h151.324c64.771 0 100.479 26.028 100.479 71.426v2.416c0 51.45-42.975 73.246-110.768 73.246h-141.035zm0 274.2h177.352c78.078 0 113.186 29.055 113.186 75.662v2.416c0 51.451-41.16 75.057-108.342 75.057h-182.195v-153.135z"/><path d="m2577.125 1137.427c-141.639 0-243.324 83.531-243.324 210.038v1.815c0 138.003 90.795 176.743 230.617 212.454 116.217 30.266 140.43 49.635 140.43 88.379v2.416c0 40.555-38.135 65.373-100.479 65.373-79.9 0-145.271-32.682-207.617-84.143l-90.795 108.344c83.525 74.467 190.059 110.785 295.379 110.785v-.605c149.514 0 254.836-77.479 254.836-214.887v-1.811c0-121.664-79.9-171.904-220.328-208.827-119.854-30.87-150.119-46.003-150.119-91.399v-1.812c0-33.896 30.871-61.135 89.59-61.135s119.248 26.028 180.377 69.004l79.301-115.611c-70.225-56.297-156.179-88.378-257.868-88.378z"/></g></svg>