<svg viewBox="11.34 78.4 234.33 100.86" xmlns="http://www.w3.org/2000/svg"><path d="m546.938 962.645c0 202.175 161.285 365.735 361.187 365.735 199.145 0 359.675-163.56 359.675-365.735 0-202.176-160.53-365.731-359.675-365.731-199.902 0-361.187 162.801-361.187 365.731zm-461.8989-377.09v756.455h453.5699l13.629-207.48h-253.664v-99.19h207.473v-204.449h-207.473v-245.336zm1757.4809 2.269-227.16 390.723 207.47 360.433h-229.43l-92.38-160.53-93.89 160.53h-233.98l209.74-362.707-223.37-388.449h229.43l108.28 187.793 109.8-187.793zm-872.301 224.895v299.851c0 35.59-26.504 65.88-62.094 65.88-32.559 0-60.578-30.29-60.578-65.88v-299.851c0-33.321 28.019-61.332 60.578-61.332 35.59 0 62.094 24.23 62.094 61.332" fill="#2e3192" fill-rule="evenodd" transform="matrix(.13333333 0 0 -.13333333 0 257.33333)"/></svg>