<svg height="168.032" width="639.85986" xmlns="http://www.w3.org/2000/svg"><g transform="translate(-9.048045 -9.155)"><path d="m151.469 30.834c-4.44-11.061-15.258-23.008-35.521-21.367-25.809 2.799-33.854 27.476-29.953 42.197-10.28-6.944-27.759-9.998-43.017 3.04-19.7 19.7-9.164 46.342 1.668 52.733-11.935-1.103-30.799 6.943-34.972 27.988-4.44 26.13 15.528 41.363 34.972 41.363h215.6c22.484 0 34.958-19.403 33.559-37.703-2.207-23.883-24.114-33.047-36.062-31.083 9.984-5.557 23.318-31.66 3.041-52.182-16.093-15.272-36.612-9.715-43.825-3.054 3.888-12.757-2.489-39.129-28.593-43.301-1.803-.201-3.54-.31-5.196-.31-19.928.003-28.888 14.534-31.701 21.679" fill="#fff"/><path d="m46.569 58.862c-11.382 10.28-15.527 33.572 4.993 47.188l81.863 56.028-39.693-90.716c-8.317-21.407-31.07-26.076-47.163-12.5" fill="#f37021"/><path d="m117.036 14.755c-13.308.27-33.289 16.079-24.395 40.218l41.052 96.585 14.424-101.589c3.338-25.243-15.809-36.896-31.081-35.214" fill="#cc004c"/><path d="m154.524 46.094h7.763s4.145 0 4.708 1.951c-3.054 2.489-11.368 2.8-10.266 16.093l13.051 87.406 40.771-96.839c8.341-21.622-9.165-39.68-24.692-40.232-.726-.053-1.453-.095-2.206-.095-13.939 0-29.909 10.106-29.129 31.716" fill="#6460aa"/><path d="m208.911 72.184-38.564 89.628 81.836-56.324c18.866-13.348 15.824-34.689 5.263-45.238-4.428-4.965-12.555-8.8-21.165-8.8-10.174-.002-21.059 5.381-27.37 20.734" fill="#0089d0"/><path d="m243.021 118.242-76.856 53.554h94.632c19.415 0 31.89-19.97 26.345-38.296-3.714-11.518-14.707-20.56-27.463-20.573-5.369.001-11.062 1.615-16.658 5.315" fill="#0db14b"/><path d="m44.363 171.796h93.234l-76.873-53.554c-17.761-11.384-37.729-4.723-44.94 14.167-6.11 21.625 9.149 39.387 28.579 39.387" fill="#fcb711"/><path d="m471.4102 113.58716h24.9051c5.72521.35858 15.8739 5.34599 15.8739 17.15649 0 12.35377-10.53116 17.33775-16.23853 17.8974h-24.54228l.001-35.05389m-.37797-54.994007h20.49981c7.00605.379368 15.29215 5.543794 15.29215 15.134512 0 9.409054-6.2639 15.675883-14.37141 16.797852h-21.41979v-31.932364m-28.0282-22.884681v135.797858h66.04584c15.67456 0 34.31431-15.67776 34.31431-36.15786 0-21.40112-14.01406-31.9114-22.88314-36.156358 0 0 16.23689-9.409126 15.51677-29.709376-.7409-27.308061-26.02706-33.774264-34.69679-33.774264z"/><path d="m341.70054 93.288365 85.60658 83.380725v-140.960661h-28.76764v76.215311l-85.62747-81.73674v141.31789h28.78853z"/><path d="m547.98693 102.13514c.72155 42.94101 31.64968 75.05186 71.41102 75.05186 9.42847 0 19.35995-1.77922 29.50998-5.68207v-27.66955c-8.04468 4.90376-16.99716 7.26797-25.76663 7.26797-24.06304 0-46.76463-17.76045-45.8258-50.06908 1.62204-26.207183 23.12569-44.303924 46.30657-44.303924 8.48821 0 17.21749 2.44008 25.28448 7.766614v-26.9272c-9.40765-3.804431-18.75736-5.505051-27.76477-5.505051-39.66152 0-72.39451 33.375477-73.15485 70.070431"/></g></svg>