<svg enable-background="new 0 0 3000 3000" viewBox="41.3 625.8 2907.7 1727.3" xmlns="http://www.w3.org/2000/svg"><path d="m2841 2353.1h-2691.7c-59.7 0-108-48.4-108-108v-1511.3c0-59.7 48.4-108 108-108h2691.7c59.7 0 108 48.4 108 108v1511.3c.1 59.7-48.3 108-108 108z" fill="#d7172f"/><path d="m2805.6 2102.6s-23.3-44.5-48.7-78.4-44.5-84.7-55.1-120.7-50.8-67.8-46.6-116.5-6.4-237.4-50.8-287.1c-25.4-24.2-29.6-49.7-27.5-77.2s-2.1-88.9-29.6-120.7-46.6-74.1-42.4-173.7c-44.5 0-67.8 0-67.8 0s-46.6-91.1-93.2-97.4c-46.6-6.4-74.1-10.6-86.8-33.9s-36-6.4-67.8 0-42.3-2.7-59.3-11.9c-16.9-9.3-61.4-5-74.1 20.4s-42.3 40.2-55.1 8.5c-12.7-31.8-50.8-29.7-74.1-44.5s-50.8-42.4-50.8-42.4h-1613.6v794.1h173.7v-567.5h222.3v99.5s243.5-249.9 480.7-4.2c-95.3 63.5-271.1 419.3 61.4 656.5v46.6 6.4h-240.6v-476.5s-17.6-124.9-134.1-127.1c-105.9 2.1-150.4 108-150.4 158.8v207.5h167.3v381.2h1963zm-1448.4-715.8c158.8-65.6 247.8 69.9 247.8 69.9h256.2c-27.5-180-203.3-275.3-203.3-275.3v-31.8l230.8-2.1v78.3h14.8c12.7-25.4 129.2-101.6 264.7-91.1 228.7 27.5 256.2 279.5 256.2 279.5v544.2h-243.5s0-402.4 0-438.4-10.6-165.2-135.5-165.2c-139.8 8.5-141.9 144.9-141.9 144.9v458.6h-245.7s0 0 0-29.7c177.9-88.9 203.3-249.9 203.3-249.9s-194.8-2.1-277.4-2.1c-114.4 114.4-256.2 46.6-302.8-29.6-48.7-88.7-12.7-215.7 76.3-260.2z" fill="#fff"/></svg>