<svg fill="none" height="49" viewBox="0 0 204 49" width="204" xmlns="http://www.w3.org/2000/svg" xmlns:xlink="http://www.w3.org/1999/xlink"><linearGradient id="a" gradientUnits="userSpaceOnUse" x1="0" x2="45.2768" y1="24.5" y2="24.5"><stop offset="0" stop-color="#7c53ff"/><stop offset="1" stop-color="#f796ff"/></linearGradient><g fill="#111827"><path d="m81.4167 35.7292h-4.5989v-11.9642c0-1.3339-.3256-2.382-.9768-3.1442-.6512-.7894-1.5465-1.1842-2.6861-1.1842-1.3023 0-2.3198.4356-3.0524 1.3067-.7054.8711-1.0581 2.0689-1.0581 3.5934v11.3925h-4.6396v-20.0084h4.5582v1.7558c1.2481-1.4972 2.971-2.2458 5.1687-2.2458 2.469 0 4.3275.8711 5.5756 2.6133 1.5466-1.7422 3.6222-2.6133 6.2269-2.6133s4.5717.7622 5.9012 2.2867c1.3566 1.4972 2.0349 3.6886 2.0349 6.5741v11.6376h-4.6396v-11.9642c0-1.3339-.3256-2.382-.9767-3.1442-.6512-.7894-1.5466-1.1842-2.6861-1.1842-1.3024 0-2.3198.4492-3.0524 1.3475-.7326.8712-1.0988 2.0553-1.0988 3.5526z"/><path d="m116.441 25.48-.041 1.6333h-13.634c.109 1.4972.638 2.6814 1.588 3.5525.949.8711 2.17 1.3067 3.662 1.3067 2.144 0 3.853-.9392 5.128-2.8175l3.134 2.94c-2.116 2.7222-4.87 4.0833-8.262 4.0833-3.011 0-5.426-.9528-7.244-2.8583-1.8448-1.9328-2.7673-4.4236-2.7673-7.4725 0-2.9672.8411-5.4853 2.5233-7.5542 1.709-2.0417 3.975-3.0625 6.797-3.0625 3.011 0 5.277 1.0072 6.796 3.0217 1.547 2.0144 2.32 4.4236 2.32 7.2275zm-9.076-6.0025c-1.166 0-2.13.3675-2.889 1.1025-.733.735-1.221 1.6742-1.465 2.8175h8.506c-.028-1.1161-.394-2.0417-1.099-2.7767-.706-.7622-1.723-1.1433-3.053-1.1433z"/><path d="m130.108 15.2308c2.224 0 4.083.6533 5.575 1.96v-10.08582h4.64v28.62422h-4.558v-1.7967c-1.411 1.4972-3.297 2.2458-5.657 2.2458-2.822 0-5.155-.98-7-2.94-1.818-1.9872-2.727-4.4916-2.727-7.5133s.909-5.5261 2.727-7.5134c1.817-1.9872 4.151-2.9808 7-2.9808zm4.232 5.9208c-.949-1.1977-2.252-1.7966-3.907-1.7966s-2.957.5989-3.907 1.7966c-.949 1.1978-1.424 2.7223-1.424 4.5734s.475 3.3755 1.424 4.5733c.95 1.1978 2.252 1.7967 3.907 1.7967s2.958-.5989 3.907-1.7967c.95-1.1978 1.425-2.7222 1.425-4.5733s-.475-3.3756-1.425-4.5734z"/><path d="m145.431 15.7208h4.64v11.9642c0 1.3339.325 2.3955.977 3.185.651.7622 1.573 1.1433 2.767 1.1433 1.275 0 2.279-.4491 3.012-1.3475.759-.9255 1.139-2.1505 1.139-3.675v-11.27h4.64v20.0084h-4.558v-1.6334c-1.276 1.3884-2.998 2.0825-5.169 2.0825-2.279 0-4.097-.7758-5.454-2.3275-1.329-1.5789-1.994-3.743-1.994-6.4925z"/><path d="m176.355 28.175-2.646-.6533c-4.042-.9528-6.064-3.0625-6.064-6.3292 0-1.7967.679-3.2395 2.035-4.3283 1.357-1.0889 3.107-1.6334 5.25-1.6334 2.876 0 5.386 1.1161 7.53 3.3483l-2.971 3.1851c-1.221-1.6878-2.781-2.5317-4.681-2.5317-.814 0-1.478.1905-1.994.5716-.488.3539-.732.7895-.732 1.3067 0 .9256.651 1.5517 1.953 1.8784l3.134.735c4.07.9255 6.105 3.008 6.105 6.2475 0 1.8511-.706 3.3483-2.117 4.4916-1.383 1.1434-3.31 1.715-5.779 1.715-3.473 0-6.227-1.293-8.262-3.8791l2.931-3.0217c1.465 1.9328 3.364 2.8992 5.697 2.8992 2.035 0 3.053-.6806 3.053-2.0417 0-.8711-.814-1.5245-2.442-1.96z"/><path d="m193.271 36.1783c-1.926 0-3.527-.5444-4.802-1.6333-1.275-1.1161-1.913-2.5997-1.913-4.4508 0-2.1234.76-3.7703 2.279-4.9409 1.52-1.1705 3.527-1.7558 6.024-1.7558 1.248 0 2.591.2314 4.029.6941v-1.3474c0-.98-.367-1.7695-1.099-2.3684-.733-.6261-1.669-.9392-2.808-.9392-2.089 0-3.663.9664-4.721 2.8992l-3.134-2.94c.732-1.3339 1.804-2.3547 3.215-3.0625 1.438-.735 2.998-1.1025 4.68-1.1025 2.632 0 4.708.6533 6.227 1.96 1.52 1.3067 2.279 3.1714 2.279 5.5942v12.9442h-4.558v-1.5517c-1.492 1.3339-3.391 2.0008-5.698 2.0008zm-2.075-6.4108c0 .6805.257 1.2386.773 1.6742.543.4355 1.289.6533 2.238.6533 1.954 0 3.514-.5717 4.681-1.715v-2.2867c-1.465-.5444-2.849-.8166-4.152-.8166-1.085 0-1.953.2177-2.604.6533-.624.4355-.936 1.048-.936 1.8375z"/></g><path d="m39.5317 7.95388-11.0262-6.38353c-3.6076-2.0938-8.0283-2.0938-11.6359 0l-11.07703 6.38353c-3.55684 2.09382-5.79257 5.97502-5.79257 10.11152v12.8181c0 4.1876 2.23573 8.0178 5.79257 10.1116l11.02623 6.4346c3.6076 2.0937 8.0283 2.0937 11.6359 0l11.0262-6.4346c3.6077-2.0938 5.7926-5.924 5.7926-10.1116v-12.8181c.1016-4.1365-2.1341-8.0177-5.7418-10.11152zm-16.8696 27.93432c-6.2498 0-11.331-5.1068-11.331-11.3882s5.0812-11.3882 11.331-11.3882c6.2499 0 11.3819 5.1068 11.3819 11.3882s-5.0812 11.3882-11.3819 11.3882z" fill="url(#a)"/></svg>