<svg viewBox="0 0 262.21 33.12" xmlns="http://www.w3.org/2000/svg"><path d="m19.85 9.93h21.48v23.16h-21.48z" fill="#fff"/><path d="m19.85 0v33.11l19.04-33.11z" fill="#ed6861"/><path d="m19.85 0h9.93v9.93h-9.93z"/><path d="m0 0h29.78v9.93h-29.78z"/><path d="m9.92 0h9.93v33.09h-9.93z"/><path d="m117.39 9.92h-7l-7.49 19.67v3.41h6l1.17-3.79h7.58l1.19 3.79h6v-3.41zm-1.63 13.36h-3.88l1.9-6.32z"/><path d="m195.8 24.09a4.92 4.92 0 0 0 -.9-1.8 5.07 5.07 0 0 0 -1.53-1.35l-1.09-.45a5.5 5.5 0 0 0 1-1.26 6.4 6.4 0 0 0 .63-3.07 6 6 0 0 0 -1.8-4.6 7.08 7.08 0 0 0 -5-1.63h-9v23.19h9.74a12.17 12.17 0 0 0 3.34-.45 7.21 7.21 0 0 0 2.62-1.36 6.19 6.19 0 0 0 1.71-2.25 7.12 7.12 0 0 0 .63-3 7.46 7.46 0 0 0 -.27-2m-11.09-5.06v-4h.63c2.44 0 2.8 1 2.8 2.08s-.36 2.07-2.8 2.07zm4.21 6.72a1.35 1.35 0 0 1 -.63 1.35 5.84 5.84 0 0 1 -2.89.45h-.72v-3.61h.72a6 6 0 0 1 2.89.45 1.37 1.37 0 0 1 .63 1.36"/><path d="m74.53 9.92h-19.85v6.86h6.5v16.34h6.82v-16.34h6.5z"/><path d="m243.08 9.92h-19.85v6.86h6.5v16.34h6.86v-16.34h6.5z"/><path d="m262.21 15.88v-6h-13.62v23.2h13.62v-6h-6.76v-2.63h6.76v-5.95h-6.76v-2.62z"/><path d="m208.8 15.52-3.8-5.6h-5.78v3.52l6.14 8.67v11h6.76v-11l6.14-8.67v-3.52h-5.69z"/><path d="m157 33.12h13.63v-6h-6.77v-2.67h6.77v-5.95h-6.77v-2.62h6.77v-6h-13.63z"/><path d="m150.23 17.14a11.82 11.82 0 0 0 -2.43-3.7 12.1 12.1 0 0 0 -3.61-2.52 10.54 10.54 0 0 0 -4.42-1h-9v23.2h9a10.64 10.64 0 0 0 4.51-1 12.1 12.1 0 0 0 3.61-2.52 11.65 11.65 0 0 0 2.43-3.7 11.37 11.37 0 0 0 0-8.76zm-6.23 4.42a6.74 6.74 0 0 1 -.36 2.27 5 5 0 0 1 -1.09 1.71 5.14 5.14 0 0 1 -1.8 1.17 6.31 6.31 0 0 1 -2.43.45h-.73v-11.28h.73a6.51 6.51 0 0 1 2.43.45 5.14 5.14 0 0 1 1.8 1.17 5.37 5.37 0 0 1 1.09 1.8 6.45 6.45 0 0 1 .36 2.26"/><path d="m95.83 21.74a7 7 0 0 0 1.35-4.42 8.34 8.34 0 0 0 -.45-2.8 6.61 6.61 0 0 0 -4-4 9.6 9.6 0 0 0 -3.43-.63h-9.45v23.2h6.77v-7.19l6 7.12h5.59v-3.43l-5.5-5.77a6.26 6.26 0 0 0 3.07-2.08m-9.12-6.32h.54a3.77 3.77 0 0 1 2.26.64 2.17 2.17 0 0 1 .1 3.06l-.1.1a3.76 3.76 0 0 1 -2.26.63h-.54z"/></svg>