<svg enable-background="new 0 0 841.9 258.1" viewBox="0 0 841.9 258.1" xmlns="http://www.w3.org/2000/svg"><g fill="#9fa7b2"><path d="m58.9 185.5h-39.7c-5.8 0-10-1.3-12.3-3.9-2.6-2.6-3.9-6.5-3.9-12.3v-98.2c0-5.8 1.3-10 3.9-12.3 2.6-2.6 6.5-3.9 12.3-3.9h42.3c6.1 0 11.6.3 16.2 1.3 4.5.6 8.7 2.3 12.3 4.5 3.2 1.9 5.8 4.2 8.1 7.1s4.2 5.8 5.5 9.4 1.9 7.1 1.9 10.7c0 12.9-6.5 22.6-19.7 28.8 17.1 5.5 25.9 16.2 25.9 32 0 7.4-1.9 13.9-5.5 19.7-3.9 5.8-8.7 10-15.2 12.9-3.9 1.6-8.4 2.9-13.6 3.6-5.5.3-11.4.6-18.5.6zm-29.4-110.5v33.6h24.2c6.5 0 11.6-.6 15.2-1.9s6.5-3.6 8.1-7.1c1.6-2.6 2.3-5.2 2.3-8.4 0-6.5-2.3-11-7.1-13.3s-12-3.2-21.3-3.2h-21.4zm27.5 52.7h-27.5v38.1h28.5c17.8 0 26.8-6.5 26.8-19.4 0-6.5-2.3-11.3-6.8-14.2-4.8-3.2-11.6-4.5-21-4.5z"/><path d="m220.6 75.3h-59.8v32h55c3.9 0 7.1 1 9.1 2.6 1.9 1.9 2.9 4.2 2.9 7.1s-1 5.5-2.9 7.1c-1.9 1.9-4.8 2.9-9.1 2.9h-55v37.2h61.7c4.2 0 7.4 1 9.4 2.9 2.3 1.9 3.2 4.5 3.2 7.8 0 3.2-1 5.5-3.2 7.4-2.3 1.9-5.2 2.9-9.4 2.9h-71.8c-5.8 0-10-1.3-12.3-3.9-2.6-2.6-3.9-6.8-3.9-12.3v-98c0-3.9.6-6.8 1.6-9.4 1-2.3 2.9-4.2 5.2-5.2s5.5-1.6 9.4-1.6h69.8c4.2 0 7.4 1 9.4 2.9 1.9 1.9 3.2 4.2 3.2 7.4s-1 5.5-3.2 7.4c-2.2 2.1-5.1 2.8-9.3 2.8z"/><path d="m272.6 54.9h34.6c9.1 0 16.8 1 23 2.6 6.5 1.6 12.3 4.8 17.5 9.4 13.6 11.6 20.4 29.4 20.4 53 0 7.8-.6 14.9-1.9 21.3s-3.6 12.3-6.5 17.5-6.5 9.7-11 13.9c-3.6 3.2-7.4 5.8-11.6 7.4-4.2 1.9-8.7 3.2-13.3 3.9-4.8.6-10 1.3-16.2 1.3h-34.6c-4.8 0-8.4-.6-11-2.3-2.6-1.6-3.9-3.6-4.8-6.1-.6-2.6-1-6.1-1-10.3v-95.4c0-5.8 1.3-9.7 3.9-12.3 2.5-2.6 6.7-3.9 12.5-3.9zm10 21v88.6h20c4.5 0 7.8 0 10.3-.3 2.6-.3 5.2-1 7.8-1.9 2.6-1 4.8-2.3 6.8-3.9 8.7-7.4 13.3-20.4 13.3-38.8 0-12.9-1.9-22.6-5.8-29.1s-8.7-10.3-14.2-12.3c-5.8-1.6-12.6-2.6-20.7-2.6z"/><path d="m467.6 76.9h-28.8v94.7c0 5.5-1.3 9.4-3.6 12.3-2.6 2.6-5.5 3.9-9.4 3.9s-7.1-1.3-9.7-3.9-3.6-6.8-3.6-12v-95h-28.8c-4.5 0-7.8-1-10-2.9-2.3-1.9-3.2-4.5-3.2-7.8 0-3.2 1.3-6.1 3.6-8.1 2.3-1.9 5.5-2.9 10-2.9h84.1c4.5 0 8.1 1 10.3 2.9 2.3 1.9 3.2 4.5 3.2 8.1s-1.3 5.8-3.6 7.8c-2.8 1.9-6 2.9-10.5 2.9z"/><path d="m497.6 171.6v-102.8c0-5.5 1.3-9.4 3.6-12 2.6-2.6 5.5-3.9 9.4-3.9s7.1 1.3 9.7 3.9 3.6 6.8 3.6 12v102.8c0 5.5-1.3 9.4-3.6 12-2.6 2.6-5.8 3.9-9.7 3.9s-6.8-1.3-9.4-4.2c-2.3-2.3-3.6-6.2-3.6-11.7z"/><path d="m597.8 165.8-21-83.1v90.2c0 4.8-1 8.7-3.2 11.3-2.3 2.6-5.2 3.9-8.7 3.9s-6.5-1.3-8.7-3.6c-2.3-2.6-3.2-6.1-3.2-11.3v-103.4c0-5.8 1.6-9.7 4.5-11.6s7.1-2.9 12-2.9h8.1c4.8 0 8.4.3 10.7 1.3s3.9 2.6 4.8 4.8c1 2.3 2.3 6.1 3.6 11.3l19.1 71.4 19.1-71.8c1.3-5.2 2.6-9.1 3.6-11.3 1-2.3 2.6-3.9 4.8-4.8s5.8-1.3 10.7-1.3h8.1c5.2 0 9.1 1 12 2.9s4.5 5.8 4.5 11.6v103.4c0 4.8-1 8.7-3.2 11.3-2.3 2.6-5.2 3.9-9.1 3.9-3.6 0-6.5-1.3-8.7-3.9-2.3-2.6-3.2-6.1-3.2-11.3v-90.1l-21 83.1c-1.3 5.5-2.6 9.4-3.2 12-1 2.6-2.6 4.8-4.8 6.8-2.3 1.9-5.5 3.2-9.7 3.2-3.2 0-5.8-.6-7.8-1.9-2.3-1.3-3.9-2.9-4.8-5.2-1.3-1.9-2.3-4.5-2.9-6.8-1.1-2.6-1.7-5.2-2.4-8.1z"/><path d="m791.8 75.3h-59.5v32h55c3.9 0 7.1 1 9.1 2.6 1.9 1.9 2.9 4.2 2.9 7.1s-1 5.5-2.9 7.1c-1.9 1.9-4.8 2.9-9.1 2.9h-55v37.2h61.7c4.2 0 7.4 1 9.4 2.9 2.3 1.9 3.2 4.5 3.2 7.8 0 3.2-1 5.5-3.2 7.4-2.3 1.9-5.2 2.9-9.4 2.9h-72c-5.8 0-10-1.3-12.3-3.9-2.6-2.6-3.9-6.8-3.9-12.3v-98c0-3.9.6-6.8 1.6-9.4 1-2.3 2.9-4.2 5.2-5.2s5.5-1.6 9.4-1.6h69.8c4.2 0 7.4 1 9.4 2.9 1.9 1.9 2.9 4.2 2.9 7.4s-1 5.5-2.9 7.4c-2 2.1-5.2 2.8-9.4 2.8z"/><path d="m14.3 213.7 16.2 24.6v-24.9c0-1.6.3-2.9 1-3.6.6-1 1.6-1.3 2.9-1.3s2.3.3 2.9 1.3c.6.6 1 1.9 1 3.6v33c0 3.6-1.6 5.5-4.5 5.5-.6 0-1.3 0-1.9-.3s-1.3-.6-1.6-1c-.6-.3-1-1-1.6-1.6-.3-.6-1-1.3-1.3-1.9l-15.8-24.2v24.1c0 1.6-.3 2.9-1 3.6-.6 1-1.6 1.3-2.9 1.3s-2.3-.3-2.9-1.3-1-1.9-1-3.6v-32.3c0-1.3 0-2.6.3-3.2.3-1 1-1.6 1.9-2.3 1-.6 1.6-.6 2.6-.6.6 0 1.3 0 1.9.3s1 .6 1.3 1c.3.3 1 1 1.3 1.6.2.5.6 1.2 1.2 2.2z"/><path d="m68.3 208.5c4.2 0 8.1 1 11.3 2.6s5.5 4.2 7.1 7.4 2.3 7.1 2.3 11.3c0 3.2-.3 6.1-1.3 8.7s-2.3 4.8-3.9 6.8c-1.6 1.9-3.9 3.6-6.5 4.5-2.6 1-5.5 1.6-8.7 1.6s-6.1-.6-8.7-1.6-4.8-2.6-6.5-4.5c-1.6-1.9-2.9-4.2-3.9-6.8s-1.3-5.5-1.3-8.7.3-6.1 1.3-8.7 2.3-4.8 3.9-6.8c1.6-1.9 3.9-3.2 6.5-4.2 2.3-1 5.2-1.6 8.4-1.6zm12 21.6c0-2.9-.6-5.8-1.6-8.1s-2.3-3.9-4.2-5.2-3.9-1.6-6.5-1.6c-1.6 0-3.2.3-4.8 1-1.3.6-2.6 1.6-3.6 2.9s-1.9 2.9-2.6 4.5c-.6 1.9-1 3.9-1 6.5 0 2.3.3 4.5 1 6.5.6 1.9 1.3 3.6 2.6 4.8 1 1.3 2.3 2.3 3.9 2.9 1.3.6 2.9 1 4.5 1 2.3 0 4.2-.6 6.1-1.6s3.2-2.9 4.2-5.2c1.6-2.5 2-5.1 2-8.4z"/><path d="m109.7 233.1h-2.9v13.6c0 1.6-.3 3.2-1.3 3.9-.6 1-1.9 1.3-2.9 1.3-1.3 0-2.3-.3-3.2-1.3-.6-1-1-2.3-1-3.9v-32.3c0-1.9.3-3.2 1.3-3.9 1-1 2.3-1.3 3.9-1.3h13.9c1.9 0 3.6 0 4.8.3 1.3 0 2.6.6 3.6 1 1.3.6 2.6 1.3 3.6 2.3s1.6 2.3 2.3 3.6.6 2.9.6 4.2c0 3.2-1 5.5-2.6 7.4s-4.5 3.2-8.1 3.9c1.6.6 2.9 1.9 4.2 3.6 1.3 1.6 2.6 3.2 3.6 4.8s1.9 3.2 2.6 4.8c.6 1.3 1 2.3 1 2.9s-.3 1-.6 1.6-1 1-1.3 1.3c-.6.3-1.3.3-2.3.3s-1.6-.3-2.3-.6-1.3-1-1.6-1.6-1-1.6-1.9-2.9l-3.6-5.8c-1.3-1.9-2.3-3.6-3.2-4.8-1-1-1.9-1.9-2.9-2.3-.8.2-2.1-.1-3.7-.1zm4.8-17.5h-7.8v11.6h7.4c1.9 0 3.9-.3 5.2-.6s2.6-1 3.2-1.9c.6-1 1-1.9 1-3.6 0-1.3-.3-2.3-1-2.9-.6-1-1.3-1.6-2.6-1.9-.5-.4-2.5-.7-5.4-.7z"/><path d="m149.8 209.1h11c2.9 0 5.5.3 7.4.6 1.9.6 3.9 1.6 5.5 2.9 4.2 3.9 6.5 9.4 6.5 17.1 0 2.6-.3 4.8-.6 6.8-.3 1.9-1 3.9-1.9 5.5-1 1.6-1.9 3.2-3.6 4.5-1 1-2.3 1.9-3.6 2.6-1.3.6-2.9 1-4.2 1.3-1.6.3-3.2.3-5.2.3h-11.3c-1.6 0-2.6-.3-3.6-.6-.6-.3-1.3-1-1.6-1.9-.3-1-.3-1.9-.3-3.2v-30.7c0-1.9.3-3.2 1.3-3.9.9-.9 2.2-1.3 4.2-1.3zm3.2 6.8v28.4h6.5 3.2s1.6-.3 2.6-.6 1.6-.6 2.3-1.3c2.9-2.3 4.2-6.5 4.2-12.3 0-4.2-.6-7.1-1.9-9.4s-2.9-3.2-4.5-3.9c-1.9-.6-3.9-1-6.5-1h-5.9z"/><path d="m190.2 246.6v-33c0-1.6.3-2.9 1.3-3.9.6-1 1.9-1.3 2.9-1.3 1.3 0 2.3.3 3.2 1.3.6 1 1.3 2.3 1.3 3.9v33c0 1.6-.3 2.9-1.3 3.9-.6 1-1.9 1.3-3.2 1.3s-2.3-.3-2.9-1.3c-.7-1-1.3-2.2-1.3-3.9z"/><path d="m248 237.9c0 1.3-.3 2.9-1 4.2-.6 1.6-1.6 3.2-3.2 4.5-1.3 1.6-3.2 2.6-5.5 3.6s-4.8 1.3-7.8 1.3c-2.3 0-4.2-.3-6.1-.6s-3.6-1-4.8-1.9c-1.6-1-2.9-1.9-4.2-3.6-1-1.3-1.9-2.9-2.9-4.5-.6-1.6-1.3-3.2-1.6-5.2-.3-1.9-.6-3.9-.6-5.8 0-3.2.3-6.5 1.6-9.1 1-2.6 2.3-4.8 4.2-6.8 1.9-1.9 3.9-3.2 6.5-4.2s5.2-1.6 7.8-1.6c3.2 0 6.5.6 9.1 1.9s4.5 2.9 6.1 4.8c1.3 1.9 2.3 3.9 2.3 5.5 0 1-.3 1.9-1 2.6-.6.6-1.6 1-2.6 1s-1.9-.3-2.6-.6c-.6-.6-1.3-1.3-1.9-2.6-1-1.9-2.3-3.6-3.9-4.5s-3.2-1.6-5.5-1.6c-3.6 0-6.1 1.3-8.4 3.9-1.9 2.6-3.2 6.5-3.2 11.3 0 3.2.3 5.8 1.3 8.1s2.3 3.9 3.9 4.8c1.6 1 3.6 1.6 5.8 1.6 2.6 0 4.5-.6 6.1-1.9s2.9-2.9 3.9-5.2c.3-1 .6-1.9 1.3-2.6s1.3-1 2.6-1c1 0 1.9.3 2.6 1 1.4 1.3 1.7 2.2 1.7 3.2z"/><path d="m310.4 238.6c0 2.6-.6 4.8-1.9 6.8-1.3 1.9-3.2 3.6-5.8 4.8s-5.5 1.6-9.1 1.6c-4.2 0-7.4-.6-10.3-2.3-1.9-1-3.6-2.6-4.5-4.5-1.3-1.9-1.9-3.6-1.9-5.5 0-1 .3-1.9 1-2.6.6-.6 1.6-1 2.6-1s1.6.3 2.3 1c.6.6 1.3 1.3 1.6 2.6.6 1.3 1 2.6 1.6 3.2.6 1 1.6 1.6 2.6 2.3 1 .6 2.6 1 4.5 1 2.6 0 4.5-.6 6.1-1.6 1.6-1.3 2.3-2.6 2.3-4.5 0-1.3-.3-2.6-1.3-3.2-1-1-1.9-1.6-3.2-1.9s-3.2-1-5.5-1.3c-2.9-.6-5.5-1.6-7.4-2.6s-3.6-2.3-4.8-3.9-1.9-3.6-1.9-6.1c0-2.3.6-4.2 1.9-6.1s3.2-3.2 5.5-4.2 5.2-1.3 8.4-1.3c2.6 0 4.8.3 6.8 1 1.9.6 3.6 1.6 4.5 2.6 1.3 1 2.3 2.3 2.6 3.2.6 1.3 1 2.3 1 3.6 0 1-.3 1.9-1 2.6-.6.6-1.6 1.3-2.6 1.3s-1.6-.3-2.3-.6c-.6-.3-1-1.3-1.6-2.3-.6-1.6-1.6-2.9-2.6-3.6-1-1-2.9-1.3-5.2-1.3s-3.9.3-5.2 1.3-1.9 2.3-1.9 3.6c0 1 .3 1.6.6 2.3.3.6 1 1.3 1.9 1.6.6.3 1.6.6 2.6 1s2.3.6 4.2 1c2.3.6 4.5 1.3 6.5 1.9 1.9.6 3.6 1.6 4.8 2.6s2.3 2.3 3.2 3.6c.6 0 .9 1.6.9 3.9z"/><path d="m328.2 213.7v30.3h17.1c1.3 0 2.6.3 3.2 1 .6.6 1 1.6 1 2.6s-.3 1.9-1 2.6c-.6.6-1.9 1-3.2 1h-20.3c-1.9 0-3.2-.3-3.9-1.3-.6-1-1.3-2.3-1.3-3.9v-32.3c0-1.6.3-2.9 1.3-3.9.6-1 1.9-1.3 2.9-1.3 1.3 0 2.3.3 3.2 1.3.7.9 1 2.2 1 3.9z"/><path d="m383.2 215.6h-19.1v10.3h17.5c1.3 0 2.3.3 2.9 1 .6.6 1 1.3 1 2.3s-.3 1.6-1 2.3c-.6.6-1.6 1-2.9 1h-17.5v12h19.7c1.3 0 2.3.3 2.9 1 .6.6 1 1.3 1 2.6 0 1-.3 1.9-1 2.3-.6.6-1.6 1-2.9 1h-23c-1.9 0-3.2-.3-3.9-1.3-1-1-1.3-2.3-1.3-3.9v-31.4c0-1.3.3-2.3.6-2.9s1-1.3 1.6-1.6 1.6-.6 2.9-.6h22.3c1.3 0 2.3.3 2.9 1 .6.6 1 1.3 1 2.3s-.3 1.9-1 2.3c-.1.3-1.1.3-2.7.3z"/><path d="m426.5 215.6h-19.1v10.3h17.5c1.3 0 2.3.3 2.9 1 .6.6 1 1.3 1 2.3s-.3 1.6-1 2.3c-.6.6-1.6 1-2.9 1h-17.5v12h19.7c1.3 0 2.3.3 2.9 1 .6.6 1 1.3 1 2.6 0 1-.3 1.9-1 2.3-.6.6-1.6 1-2.9 1h-23c-1.9 0-3.2-.3-3.9-1.3s-1.3-2.3-1.3-3.9v-31.4c0-1.3.3-2.3.6-2.9s1-1.3 1.6-1.6 1.6-.6 2.9-.6h22.3c1.3 0 2.3.3 2.9 1 .6.6 1 1.3 1 2.3s-.3 1.9-1 2.3c-.4.3-1.4.3-2.7.3z"/><path d="m456.6 234.7h-7.8v12c0 1.6-.3 2.9-1.3 3.9-.6 1-1.9 1.3-2.9 1.3-1.3 0-2.3-.3-3.2-1.3-.6-1-1.3-2.3-1.3-3.9v-32.3c0-1.9.3-3.2 1.3-3.9 1-.6 2.3-1.3 4.2-1.3h11c3.2 0 5.8.3 7.4.6s3.2 1.3 4.5 2.3 2.3 2.6 2.9 4.2 1 3.6 1 5.5c0 4.2-1.3 7.4-3.9 9.7-2.9 2.2-6.8 3.2-11.9 3.2zm-2.3-19.1h-5.8v12.9h5.8c1.9 0 3.6-.3 5.2-.6 1.3-.3 2.3-1 2.9-1.9.6-1 1-2.3 1-3.9 0-1.9-.6-3.2-1.6-4.5-1-1.4-3.6-2-7.5-2z"/><path d="m821.9 3.9c2.3 0 4.5.3 6.5 1.3s3.9 1.9 5.2 3.6c1.6 1.6 2.6 3.2 3.6 5.2 1 1.9 1.3 4.2 1.3 6.5 0 2.9-.6 5.8-2.3 8.4s-3.6 4.5-6.1 6.1c-2.6 1.6-5.2 2.3-8.4 2.3s-5.8-.6-8.4-2.3c-2.6-1.6-4.5-3.6-6.1-6.1-1.6-2.6-2.3-5.2-2.3-8.4 0-2.9.6-5.8 2.3-8.4s3.6-4.5 6.1-6.1c3.1-1.2 5.7-2.1 8.6-2.1zm.3 3.2c-2.3 0-4.5.6-6.8 1.6-1.9 1.3-3.6 2.9-4.8 4.8s-1.9 4.2-1.9 6.8c0 2.3.6 4.5 1.9 6.8 1.3 1.9 2.9 3.6 4.8 4.8s4.2 1.6 6.5 1.6c2.6 0 4.5-.6 6.8-1.6 1.9-1.3 3.6-2.9 4.8-4.8s1.6-4.2 1.6-6.8c0-2.3-.6-4.5-1.6-6.8-1.3-1.9-2.9-3.6-4.8-4.8-2-1-4.2-1.6-6.5-1.6zm-3.9 22h-3.6v-17.5h8.4c1.3 0 2.3.3 3.2.6 1 .3 1.6 1 1.9 1.6s.6 1.6.6 2.6c0 1.3-.3 2.3-1.3 3.2s-1.9 1.3-3.6 1.6c.6.3 1.3.6 1.9 1.3.3.6 1 1.6 1.9 2.9l1.9 3.6h-4.5l-1.3-2.9c-.6-1.3-1.3-2.3-1.6-2.9s-1-1-1.3-1.3-1-.3-1.6-.3h-1zm0-14.6v4.8h2.9c1.3 0 2.3-.3 2.9-.6s1-1 1-1.9c0-.6-.3-1.3-1-1.6-.6-.3-1.6-.6-2.6-.6-.3-.1-3.2-.1-3.2-.1z"/><path d="m475 237.9s53.7-19.7 90.5-19.7c36.9 0 76 33.6 123.2 33.6 26.2 0 58.2-21.3 58.2-21.3s-24.2 7.8-48.2 7.8c-44.3 0-91.2-26.5-131.9-26.5-36.2-.1-91.8 26.1-91.8 26.1z"/><path d="m598.5 210.1s21.3-8.1 65.3-8.1c19.7 0 61.1 16.2 96 16.2 21 0 44.9-8.1 44.9-8.1s-22.6 14.9-50.4 14.9c-38.5 0-75-19.1-111.9-19.1-17.1.3-43.9 4.2-43.9 4.2z"/></g></svg>