<?xml version="1.0" encoding="utf-8"?>
<!-- Generator: Adobe Illustrator 24.0.1, SVG Export Plug-In . SVG Version: 6.00 Build 0)  -->
<svg version="1.1" id="Layer_1" xmlns="http://www.w3.org/2000/svg" xmlns:xlink="http://www.w3.org/1999/xlink" x="0px" y="0px"
	 viewBox="0 0 841.9 258.1" style="enable-background:new 0 0 841.9 258.1;" xml:space="preserve">
<style type="text/css">
	.st0{fill:#9FA7B2;}
</style>
<path class="st0" d="M58.9,185.5H19.2c-5.8,0-10-1.3-12.3-3.9c-2.6-2.6-3.9-6.5-3.9-12.3V71.1c0-5.8,1.3-10,3.9-12.3
	c2.6-2.6,6.5-3.9,12.3-3.9h42.3c6.1,0,11.6,0.3,16.2,1.3c4.5,0.6,8.7,2.3,12.3,4.5c3.2,1.9,5.8,4.2,8.1,7.1c2.3,2.9,4.2,5.8,5.5,9.4
	c1.3,3.6,1.9,7.1,1.9,10.7c0,12.9-6.5,22.6-19.7,28.8c17.1,5.5,25.9,16.2,25.9,32c0,7.4-1.9,13.9-5.5,19.7
	c-3.9,5.8-8.7,10-15.2,12.9c-3.9,1.6-8.4,2.9-13.6,3.6C71.9,185.2,66,185.5,58.9,185.5z M29.5,75v33.6h24.2c6.5,0,11.6-0.6,15.2-1.9
	c3.6-1.3,6.5-3.6,8.1-7.1c1.6-2.6,2.3-5.2,2.3-8.4c0-6.5-2.3-11-7.1-13.3s-12-3.2-21.3-3.2H29.5V75z M57,127.7H29.5v38.1H58
	c17.8,0,26.8-6.5,26.8-19.4c0-6.5-2.3-11.3-6.8-14.2C73.2,129,66.4,127.7,57,127.7z"/>
<path class="st0" d="M220.6,75.3h-59.8v32h55c3.9,0,7.1,1,9.1,2.6c1.9,1.9,2.9,4.2,2.9,7.1c0,2.9-1,5.5-2.9,7.1
	c-1.9,1.9-4.8,2.9-9.1,2.9h-55v37.2h61.7c4.2,0,7.4,1,9.4,2.9c2.3,1.9,3.2,4.5,3.2,7.8c0,3.2-1,5.5-3.2,7.4
	c-2.3,1.9-5.2,2.9-9.4,2.9h-71.8c-5.8,0-10-1.3-12.3-3.9c-2.6-2.6-3.9-6.8-3.9-12.3v-98c0-3.9,0.6-6.8,1.6-9.4
	c1-2.3,2.9-4.2,5.2-5.2c2.3-1,5.5-1.6,9.4-1.6h69.8c4.2,0,7.4,1,9.4,2.9c1.9,1.9,3.2,4.2,3.2,7.4c0,3.2-1,5.5-3.2,7.4
	C227.7,74.6,224.8,75.3,220.6,75.3z"/>
<path class="st0" d="M272.6,54.9h34.6c9.1,0,16.8,1,23,2.6c6.5,1.6,12.3,4.8,17.5,9.4c13.6,11.6,20.4,29.4,20.4,53
	c0,7.8-0.6,14.9-1.9,21.3s-3.6,12.3-6.5,17.5s-6.5,9.7-11,13.9c-3.6,3.2-7.4,5.8-11.6,7.4c-4.2,1.9-8.7,3.2-13.3,3.9
	c-4.8,0.6-10,1.3-16.2,1.3h-34.6c-4.8,0-8.4-0.6-11-2.3c-2.6-1.6-3.9-3.6-4.8-6.1c-0.6-2.6-1-6.1-1-10.3V71.1
	c0-5.8,1.3-9.7,3.9-12.3C262.6,56.2,266.8,54.9,272.6,54.9z M282.6,75.9v88.6h20c4.5,0,7.8,0,10.3-0.3c2.6-0.3,5.2-1,7.8-1.9
	c2.6-1,4.8-2.3,6.8-3.9c8.7-7.4,13.3-20.4,13.3-38.8c0-12.9-1.9-22.6-5.8-29.1c-3.9-6.5-8.7-10.3-14.2-12.3
	c-5.8-1.6-12.6-2.6-20.7-2.6L282.6,75.9L282.6,75.9z"/>
<path class="st0" d="M467.6,76.9h-28.8v94.7c0,5.5-1.3,9.4-3.6,12.3c-2.6,2.6-5.5,3.9-9.4,3.9c-3.9,0-7.1-1.3-9.7-3.9
	c-2.6-2.6-3.6-6.8-3.6-12v-95h-28.8c-4.5,0-7.8-1-10-2.9c-2.3-1.9-3.2-4.5-3.2-7.8c0-3.2,1.3-6.1,3.6-8.1c2.3-1.9,5.5-2.9,10-2.9
	h84.1c4.5,0,8.1,1,10.3,2.9c2.3,1.9,3.2,4.5,3.2,8.1c0,3.6-1.3,5.8-3.6,7.8C475.3,75.9,472.1,76.9,467.6,76.9z"/>
<path class="st0" d="M497.6,171.6V68.8c0-5.5,1.3-9.4,3.6-12c2.6-2.6,5.5-3.9,9.4-3.9s7.1,1.3,9.7,3.9s3.6,6.8,3.6,12v102.8
	c0,5.5-1.3,9.4-3.6,12c-2.6,2.6-5.8,3.9-9.7,3.9s-6.8-1.3-9.4-4.2C498.9,181,497.6,177.1,497.6,171.6z"/>
<path class="st0" d="M597.8,165.8l-21-83.1v90.2c0,4.8-1,8.7-3.2,11.3c-2.3,2.6-5.2,3.9-8.7,3.9s-6.5-1.3-8.7-3.6
	c-2.3-2.6-3.2-6.1-3.2-11.3V69.8c0-5.8,1.6-9.7,4.5-11.6c2.9-1.9,7.1-2.9,12-2.9h8.1c4.8,0,8.4,0.3,10.7,1.3c2.3,1,3.9,2.6,4.8,4.8
	c1,2.3,2.3,6.1,3.6,11.3l19.1,71.4l19.1-71.8c1.3-5.2,2.6-9.1,3.6-11.3c1-2.3,2.6-3.9,4.8-4.8s5.8-1.3,10.7-1.3h8.1
	c5.2,0,9.1,1,12,2.9c2.9,1.9,4.5,5.8,4.5,11.6v103.4c0,4.8-1,8.7-3.2,11.3c-2.3,2.6-5.2,3.9-9.1,3.9c-3.6,0-6.5-1.3-8.7-3.9
	c-2.3-2.6-3.2-6.1-3.2-11.3V82.7l-21,83.1c-1.3,5.5-2.6,9.4-3.2,12c-1,2.6-2.6,4.8-4.8,6.8c-2.3,1.9-5.5,3.2-9.7,3.2
	c-3.2,0-5.8-0.6-7.8-1.9c-2.3-1.3-3.9-2.9-4.8-5.2c-1.3-1.9-2.3-4.5-2.9-6.8C599.1,171.3,598.5,168.7,597.8,165.8z"/>
<path class="st0" d="M791.8,75.3h-59.5v32h55c3.9,0,7.1,1,9.1,2.6c1.9,1.9,2.9,4.2,2.9,7.1c0,2.9-1,5.5-2.9,7.1
	c-1.9,1.9-4.8,2.9-9.1,2.9h-55v37.2h61.7c4.2,0,7.4,1,9.4,2.9c2.3,1.9,3.2,4.5,3.2,7.8c0,3.2-1,5.5-3.2,7.4
	c-2.3,1.9-5.2,2.9-9.4,2.9H722c-5.8,0-10-1.3-12.3-3.9c-2.6-2.6-3.9-6.8-3.9-12.3v-98c0-3.9,0.6-6.8,1.6-9.4c1-2.3,2.9-4.2,5.2-5.2
	c2.3-1,5.5-1.6,9.4-1.6h69.8c4.2,0,7.4,1,9.4,2.9c1.9,1.9,2.9,4.2,2.9,7.4c0,3.2-1,5.5-2.9,7.4C799.2,74.6,796,75.3,791.8,75.3z"/>
<g>
	<path class="st0" d="M14.3,213.7l16.2,24.6v-24.9c0-1.6,0.3-2.9,1-3.6c0.6-1,1.6-1.3,2.9-1.3c1.3,0,2.3,0.3,2.9,1.3
		c0.6,0.6,1,1.9,1,3.6v33c0,3.6-1.6,5.5-4.5,5.5c-0.6,0-1.3,0-1.9-0.3c-0.6-0.3-1.3-0.6-1.6-1c-0.6-0.3-1-1-1.6-1.6
		c-0.3-0.6-1-1.3-1.3-1.9l-15.8-24.2V247c0,1.6-0.3,2.9-1,3.6c-0.6,1-1.6,1.3-2.9,1.3s-2.3-0.3-2.9-1.3s-1-1.9-1-3.6v-32.3
		c0-1.3,0-2.6,0.3-3.2c0.3-1,1-1.6,1.9-2.3c1-0.6,1.6-0.6,2.6-0.6c0.6,0,1.3,0,1.9,0.3s1,0.6,1.3,1c0.3,0.3,1,1,1.3,1.6
		C13.3,212,13.7,212.7,14.3,213.7z"/>
	<path class="st0" d="M68.3,208.5c4.2,0,8.1,1,11.3,2.6c3.2,1.6,5.5,4.2,7.1,7.4c1.6,3.2,2.3,7.1,2.3,11.3c0,3.2-0.3,6.1-1.3,8.7
		c-1,2.6-2.3,4.8-3.9,6.8c-1.6,1.9-3.9,3.6-6.5,4.5c-2.6,1-5.5,1.6-8.7,1.6c-3.2,0-6.1-0.6-8.7-1.6c-2.6-1-4.8-2.6-6.5-4.5
		c-1.6-1.9-2.9-4.2-3.9-6.8c-1-2.6-1.3-5.5-1.3-8.7s0.3-6.1,1.3-8.7c1-2.6,2.3-4.8,3.9-6.8c1.6-1.9,3.9-3.2,6.5-4.2
		C62.2,209.1,65.1,208.5,68.3,208.5z M80.3,230.1c0-2.9-0.6-5.8-1.6-8.1c-1-2.3-2.3-3.9-4.2-5.2s-3.9-1.6-6.5-1.6
		c-1.6,0-3.2,0.3-4.8,1c-1.3,0.6-2.6,1.6-3.6,2.9c-1,1.3-1.9,2.9-2.6,4.5c-0.6,1.9-1,3.9-1,6.5c0,2.3,0.3,4.5,1,6.5
		c0.6,1.9,1.3,3.6,2.6,4.8c1,1.3,2.3,2.3,3.9,2.9c1.3,0.6,2.9,1,4.5,1c2.3,0,4.2-0.6,6.1-1.6c1.9-1,3.2-2.9,4.2-5.2
		C79.9,236,80.3,233.4,80.3,230.1z"/>
	<path class="st0" d="M109.7,233.1h-2.9v13.6c0,1.6-0.3,3.2-1.3,3.9c-0.6,1-1.9,1.3-2.9,1.3c-1.3,0-2.3-0.3-3.2-1.3
		c-0.6-1-1-2.3-1-3.9v-32.3c0-1.9,0.3-3.2,1.3-3.9c1-1,2.3-1.3,3.9-1.3h13.9c1.9,0,3.6,0,4.8,0.3c1.3,0,2.6,0.6,3.6,1
		c1.3,0.6,2.6,1.3,3.6,2.3c1,1,1.6,2.3,2.3,3.6s0.6,2.9,0.6,4.2c0,3.2-1,5.5-2.6,7.4c-1.6,1.9-4.5,3.2-8.1,3.9
		c1.6,0.6,2.9,1.9,4.2,3.6c1.3,1.6,2.6,3.2,3.6,4.8c1,1.6,1.9,3.2,2.6,4.8c0.6,1.3,1,2.3,1,2.9c0,0.6-0.3,1-0.6,1.6
		c-0.3,0.6-1,1-1.3,1.3c-0.6,0.3-1.3,0.3-2.3,0.3c-1,0-1.6-0.3-2.3-0.6s-1.3-1-1.6-1.6s-1-1.6-1.9-2.9l-3.6-5.8
		c-1.3-1.9-2.3-3.6-3.2-4.8c-1-1-1.9-1.9-2.9-2.3C112.6,233.4,111.3,233.1,109.7,233.1z M114.5,215.6h-7.8v11.6h7.4
		c1.9,0,3.9-0.3,5.2-0.6c1.3-0.3,2.6-1,3.2-1.9c0.6-1,1-1.9,1-3.6c0-1.3-0.3-2.3-1-2.9c-0.6-1-1.3-1.6-2.6-1.9
		C119.4,215.9,117.4,215.6,114.5,215.6z"/>
	<path class="st0" d="M149.8,209.1h11c2.9,0,5.5,0.3,7.4,0.6c1.9,0.6,3.9,1.6,5.5,2.9c4.2,3.9,6.5,9.4,6.5,17.1
		c0,2.6-0.3,4.8-0.6,6.8c-0.3,1.9-1,3.9-1.9,5.5c-1,1.6-1.9,3.2-3.6,4.5c-1,1-2.3,1.9-3.6,2.6c-1.3,0.6-2.9,1-4.2,1.3
		c-1.6,0.3-3.2,0.3-5.2,0.3h-11.3c-1.6,0-2.6-0.3-3.6-0.6c-0.6-0.3-1.3-1-1.6-1.9c-0.3-1-0.3-1.9-0.3-3.2v-30.7
		c0-1.9,0.3-3.2,1.3-3.9C146.5,209.5,147.8,209.1,149.8,209.1z M153,215.9v28.4h6.5c1.3,0,2.6,0,3.2,0s1.6-0.3,2.6-0.6
		c1-0.3,1.6-0.6,2.3-1.3c2.9-2.3,4.2-6.5,4.2-12.3c0-4.2-0.6-7.1-1.9-9.4s-2.9-3.2-4.5-3.9c-1.9-0.6-3.9-1-6.5-1H153L153,215.9z"/>
	<path class="st0" d="M190.2,246.6v-33c0-1.6,0.3-2.9,1.3-3.9c0.6-1,1.9-1.3,2.9-1.3c1.3,0,2.3,0.3,3.2,1.3c0.6,1,1.3,2.3,1.3,3.9
		v33c0,1.6-0.3,2.9-1.3,3.9c-0.6,1-1.9,1.3-3.2,1.3s-2.3-0.3-2.9-1.3C190.8,249.5,190.2,248.3,190.2,246.6z"/>
	<path class="st0" d="M248,237.9c0,1.3-0.3,2.9-1,4.2c-0.6,1.6-1.6,3.2-3.2,4.5c-1.3,1.6-3.2,2.6-5.5,3.6c-2.3,1-4.8,1.3-7.8,1.3
		c-2.3,0-4.2-0.3-6.1-0.6c-1.9-0.3-3.6-1-4.8-1.9c-1.6-1-2.9-1.9-4.2-3.6c-1-1.3-1.9-2.9-2.9-4.5c-0.6-1.6-1.3-3.2-1.6-5.2
		c-0.3-1.9-0.6-3.9-0.6-5.8c0-3.2,0.3-6.5,1.6-9.1c1-2.6,2.3-4.8,4.2-6.8c1.9-1.9,3.9-3.2,6.5-4.2c2.6-1,5.2-1.6,7.8-1.6
		c3.2,0,6.5,0.6,9.1,1.9s4.5,2.9,6.1,4.8c1.3,1.9,2.3,3.9,2.3,5.5c0,1-0.3,1.9-1,2.6c-0.6,0.6-1.6,1-2.6,1c-1,0-1.9-0.3-2.6-0.6
		c-0.6-0.6-1.3-1.3-1.9-2.6c-1-1.9-2.3-3.6-3.9-4.5s-3.2-1.6-5.5-1.6c-3.6,0-6.1,1.3-8.4,3.9c-1.9,2.6-3.2,6.5-3.2,11.3
		c0,3.2,0.3,5.8,1.3,8.1c1,2.3,2.3,3.9,3.9,4.8c1.6,1,3.6,1.6,5.8,1.6c2.6,0,4.5-0.6,6.1-1.9s2.9-2.9,3.9-5.2c0.3-1,0.6-1.9,1.3-2.6
		s1.3-1,2.6-1c1,0,1.9,0.3,2.6,1C247.7,236,248,236.9,248,237.9z"/>
	<path class="st0" d="M310.4,238.6c0,2.6-0.6,4.8-1.9,6.8c-1.3,1.9-3.2,3.6-5.8,4.8s-5.5,1.6-9.1,1.6c-4.2,0-7.4-0.6-10.3-2.3
		c-1.9-1-3.6-2.6-4.5-4.5c-1.3-1.9-1.9-3.6-1.9-5.5c0-1,0.3-1.9,1-2.6c0.6-0.6,1.6-1,2.6-1s1.6,0.3,2.3,1c0.6,0.6,1.3,1.3,1.6,2.6
		c0.6,1.3,1,2.6,1.6,3.2c0.6,1,1.6,1.6,2.6,2.3c1,0.6,2.6,1,4.5,1c2.6,0,4.5-0.6,6.1-1.6c1.6-1.3,2.3-2.6,2.3-4.5
		c0-1.3-0.3-2.6-1.3-3.2c-1-1-1.9-1.6-3.2-1.9c-1.3-0.3-3.2-1-5.5-1.3c-2.9-0.6-5.5-1.6-7.4-2.6c-1.9-1-3.6-2.3-4.8-3.9
		s-1.9-3.6-1.9-6.1c0-2.3,0.6-4.2,1.9-6.1s3.2-3.2,5.5-4.2s5.2-1.3,8.4-1.3c2.6,0,4.8,0.3,6.8,1c1.9,0.6,3.6,1.6,4.5,2.6
		c1.3,1,2.3,2.3,2.6,3.2c0.6,1.3,1,2.3,1,3.6c0,1-0.3,1.9-1,2.6c-0.6,0.6-1.6,1.3-2.6,1.3s-1.6-0.3-2.3-0.6c-0.6-0.3-1-1.3-1.6-2.3
		c-0.6-1.6-1.6-2.9-2.6-3.6c-1-1-2.9-1.3-5.2-1.3s-3.9,0.3-5.2,1.3s-1.9,2.3-1.9,3.6c0,1,0.3,1.6,0.6,2.3c0.3,0.6,1,1.3,1.9,1.6
		c0.6,0.3,1.6,0.6,2.6,1s2.3,0.6,4.2,1c2.3,0.6,4.5,1.3,6.5,1.9c1.9,0.6,3.6,1.6,4.8,2.6s2.3,2.3,3.2,3.6
		C310.1,234.7,310.4,236.3,310.4,238.6z"/>
	<path class="st0" d="M328.2,213.7V244h17.1c1.3,0,2.6,0.3,3.2,1c0.6,0.6,1,1.6,1,2.6s-0.3,1.9-1,2.6c-0.6,0.6-1.9,1-3.2,1H325
		c-1.9,0-3.2-0.3-3.9-1.3c-0.6-1-1.3-2.3-1.3-3.9v-32.3c0-1.6,0.3-2.9,1.3-3.9c0.6-1,1.9-1.3,2.9-1.3c1.3,0,2.3,0.3,3.2,1.3
		C327.9,210.7,328.2,212,328.2,213.7z"/>
	<path class="st0" d="M383.2,215.6h-19.1v10.3h17.5c1.3,0,2.3,0.3,2.9,1c0.6,0.6,1,1.3,1,2.3c0,1-0.3,1.6-1,2.3
		c-0.6,0.6-1.6,1-2.9,1h-17.5v12h19.7c1.3,0,2.3,0.3,2.9,1c0.6,0.6,1,1.3,1,2.6c0,1-0.3,1.9-1,2.3c-0.6,0.6-1.6,1-2.9,1h-23
		c-1.9,0-3.2-0.3-3.9-1.3c-1-1-1.3-2.3-1.3-3.9v-31.4c0-1.3,0.3-2.3,0.6-2.9s1-1.3,1.6-1.6c0.6-0.3,1.6-0.6,2.9-0.6h22.3
		c1.3,0,2.3,0.3,2.9,1c0.6,0.6,1,1.3,1,2.3c0,1-0.3,1.9-1,2.3C385.8,215.6,384.8,215.6,383.2,215.6z"/>
	<path class="st0" d="M426.5,215.6h-19.1v10.3h17.5c1.3,0,2.3,0.3,2.9,1c0.6,0.6,1,1.3,1,2.3c0,1-0.3,1.6-1,2.3
		c-0.6,0.6-1.6,1-2.9,1h-17.5v12h19.7c1.3,0,2.3,0.3,2.9,1c0.6,0.6,1,1.3,1,2.6c0,1-0.3,1.9-1,2.3c-0.6,0.6-1.6,1-2.9,1h-23
		c-1.9,0-3.2-0.3-3.9-1.3s-1.3-2.3-1.3-3.9v-31.4c0-1.3,0.3-2.3,0.6-2.9s1-1.3,1.6-1.6c0.6-0.3,1.6-0.6,2.9-0.6h22.3
		c1.3,0,2.3,0.3,2.9,1c0.6,0.6,1,1.3,1,2.3c0,1-0.3,1.9-1,2.3C428.8,215.6,427.8,215.6,426.5,215.6z"/>
	<path class="st0" d="M456.6,234.7h-7.8v12c0,1.6-0.3,2.9-1.3,3.9c-0.6,1-1.9,1.3-2.9,1.3c-1.3,0-2.3-0.3-3.2-1.3
		c-0.6-1-1.3-2.3-1.3-3.9v-32.3c0-1.9,0.3-3.2,1.3-3.9c1-0.6,2.3-1.3,4.2-1.3h11c3.2,0,5.8,0.3,7.4,0.6s3.2,1.3,4.5,2.3
		c1.3,1,2.3,2.6,2.9,4.2c0.6,1.6,1,3.6,1,5.5c0,4.2-1.3,7.4-3.9,9.7C465.6,233.7,461.7,234.7,456.6,234.7z M454.3,215.6h-5.8v12.9
		h5.8c1.9,0,3.6-0.3,5.2-0.6c1.3-0.3,2.3-1,2.9-1.9c0.6-1,1-2.3,1-3.9c0-1.9-0.6-3.2-1.6-4.5C460.8,216.2,458.2,215.6,454.3,215.6z"
		/>
</g>
<path class="st0" d="M821.9,3.9c2.3,0,4.5,0.3,6.5,1.3s3.9,1.9,5.2,3.6c1.6,1.6,2.6,3.2,3.6,5.2c1,1.9,1.3,4.2,1.3,6.5
	c0,2.9-0.6,5.8-2.3,8.4s-3.6,4.5-6.1,6.1c-2.6,1.6-5.2,2.3-8.4,2.3s-5.8-0.6-8.4-2.3c-2.6-1.6-4.5-3.6-6.1-6.1
	c-1.6-2.6-2.3-5.2-2.3-8.4c0-2.9,0.6-5.8,2.3-8.4s3.6-4.5,6.1-6.1C816.4,4.8,819,3.9,821.9,3.9z M822.2,7.1c-2.3,0-4.5,0.6-6.8,1.6
	c-1.9,1.3-3.6,2.9-4.8,4.8s-1.9,4.2-1.9,6.8c0,2.3,0.6,4.5,1.9,6.8c1.3,1.9,2.9,3.6,4.8,4.8s4.2,1.6,6.5,1.6c2.6,0,4.5-0.6,6.8-1.6
	c1.9-1.3,3.6-2.9,4.8-4.8s1.6-4.2,1.6-6.8c0-2.3-0.6-4.5-1.6-6.8c-1.3-1.9-2.9-3.6-4.8-4.8C826.7,7.7,824.5,7.1,822.2,7.1z
	 M818.3,29.1h-3.6V11.6h8.4c1.3,0,2.3,0.3,3.2,0.6c1,0.3,1.6,1,1.9,1.6c0.3,0.6,0.6,1.6,0.6,2.6c0,1.3-0.3,2.3-1.3,3.2
	s-1.9,1.3-3.6,1.6c0.6,0.3,1.3,0.6,1.9,1.3c0.3,0.6,1,1.6,1.9,2.9l1.9,3.6h-4.5l-1.3-2.9c-0.6-1.3-1.3-2.3-1.6-2.9
	c-0.3-0.6-1-1-1.3-1.3c-0.3-0.3-1-0.3-1.6-0.3h-1L818.3,29.1L818.3,29.1z M818.3,14.5v4.8h2.9c1.3,0,2.3-0.3,2.9-0.6s1-1,1-1.9
	c0-0.6-0.3-1.3-1-1.6c-0.6-0.3-1.6-0.6-2.6-0.6C821.2,14.5,818.3,14.5,818.3,14.5z"/>
<path class="st0" d="M475,237.9c0,0,53.7-19.7,90.5-19.7c36.9,0,76,33.6,123.2,33.6c26.2,0,58.2-21.3,58.2-21.3s-24.2,7.8-48.2,7.8
	c-44.3,0-91.2-26.5-131.9-26.5C530.6,211.7,475,237.9,475,237.9z"/>
<path class="st0" d="M598.5,210.1c0,0,21.3-8.1,65.3-8.1c19.7,0,61.1,16.2,96,16.2c21,0,44.9-8.1,44.9-8.1S782.1,225,754.3,225
	c-38.5,0-75-19.1-111.9-19.1C625.3,206.2,598.5,210.1,598.5,210.1z"/>
</svg>
