<svg enable-background="new 0 0 595.28 151.53" viewBox="0 0 595.28 151.53" xmlns="http://www.w3.org/2000/svg"><g fill="#9fa7b2"><path d="m214.51 139.45c-5.71-3.91-6.79-8.49-1.91-13.55 6.37-6.59 13.45-12.51 20.44-18.47 6.01-5.13 12.29-9.96 18.5-14.86 1.6-1.26 3.37-2.31 5.11-3.38 4.62-2.86 6.13-7.29 2.86-11.63-6.14-8.15-12.59-16.11-19.47-23.64-4.45-4.87-4.81-7.16.1-10.57 10.08-7 21.9-7.91 33.46-8.95 2.84-.26 6.76 3.2 8.96 5.94 3.59 4.47 6.33 9.66 9.14 14.71 1.79 3.22 4.59 3.83 7.7 5.24 6.35 2.88 9.66-1.17 13.5-3.88 11.44-8.09 22.61-16.55 33.9-24.84 1.14-.83 2.42-1.47 3.64-2.2h4.49c2.14 1.08 4.36 2.04 6.41 3.27 6.21 3.72 6.31 7.98.27 11.93-11.89 7.78-23.88 15.41-35.7 23.27-4.51 3-8.75 6.4-13 9.77-3.61 2.86-4.44 6.24-1.57 10.25 5.53 7.73 10.53 15.9 16.63 23.15 2.83 3.36 7.79 4.86 11.63 7.44 1.43.96 3.34 2.55 3.37 3.9.03 1.42-1.62 3.35-3.04 4.25-10.87 6.89-32.83 4.96-42.22-3.92-5.97-5.64-11.62-11.64-17.03-17.83-3.66-4.18-7.28-5.41-12.19-2.43-12.62 7.65-25.57 14.82-37.86 22.98-5.63 3.73-10.04 9.32-15 14.07-.37-.02-.75-.02-1.12-.02z"/><path d="m7.82 118.1c2.67-11.97 5.4-23.93 7.98-35.92 2.43-11.27 4.69-22.57 7.13-34.34 6.64 0 12.97.01 19.3 0 15.7-.04 31.4-.32 47.09-.02 6.65.13 14.41.29 17.43 7.6 2.91 7.04.74 14.5-3.1 20.85-1.69 2.8-5.21 4.48-7.49 6.34 2.43 1.88 6.36 3.59 7.98 6.56 1.61 2.95 1.47 7.23 1.1 10.83-.98 9.5-5.88 14.93-15.24 16.85-5.64 1.15-11.44 1.95-17.18 2.04-21.67.31-43.34.26-65.01.35.01-.39.01-.76.01-1.14zm35.97-10.74c7.92 0 15.39.31 22.8-.2 2.04-.14 5.1-2.39 5.63-4.25 1.16-4.11 1.11-8.59 1.27-12.92.02-.49-1.79-1.49-2.75-1.5-7.63-.05-15.26.08-22.89.16-1.35 5.18-2.72 10.35-4.03 15.54-.18.68-.03 1.46-.03 3.17zm6.18-32.56c8.48 0 15.89.2 23.29-.07 4.73-.17 7.16-4.23 6.88-10.2-.22-4.73-3.38-5.09-7.01-5.05-5.39.06-10.79-.14-16.17.13-1.46.07-3.76 1.15-4.13 2.28-1.26 3.82-1.82 7.88-2.86 12.91z"/><path d="m587.45 82.16c-1.95 9.1-3.9 18.21-5.87 27.31-.67 3.08-1.38 6.15-2.18 9.72-18.61 0-36.92.01-55.23 0-6.55 0-13.1.18-19.63-.14-8.92-.44-12.68-5.55-10.99-14.3 2.61-13.44 8.13-17.99 21.99-18.03 11.03-.03 22.07-.01 33.11 0 2.63 0 5.48.43 5.67-3.51.2-4.16-2.81-4.38-5.67-4.4-14.4-.08-28.8-.04-43.2-.06-.91 0-1.82-.15-2.75-.23 1.31-7.75 4.84-11.51 12.64-11.58 18.88-.16 37.76.21 56.65.4 7.38.07 12.93 2.97 15.47 10.33-.01 1.49-.01 2.99-.01 4.49zm-35.97 14.31c-6.47 0-12.24-.19-18 .06-4.06.18-7.21 4.64-6.86 9.31.34 4.56 4.05 3.57 6.82 3.76 2.97.2 5.98-.11 8.97.01 4.56.17 6.89-2.18 7.73-6.41.39-1.99.79-3.99 1.34-6.73z"/><path d="m353.02 77.6c-4.95 0-9.02 0-13.61 0 1.83-5.78 5.36-8.99 10.65-9.97 3.25-.6 4.74-2.48 6.68-4.96 2.34-3 5.97-6.36 9.42-6.83 7.5-1.03 15.23-.32 23.55-.32-.43 3.77-.79 7-1.23 10.93 6.16.36 12.2.72 18.34 1.08-2.67 7.63-6 10.31-13.84 9.84-5.38-.32-7.69 1.17-8.18 6.8-.54 6.1-2.31 12.1-3.46 18.15-1.11 5.88-.33 6.84 5.87 6.91 7.29.09 14.58.02 22.51.02-3.18 7.15-9.18 9.21-15.44 9.52-10.83.53-21.72.52-32.56.07-11.34-.47-15.45-6.12-13.38-17.38 1.4-7.69 3-15.35 4.68-23.86z"/><path d="m493.28 67.53c-.56 2.89-.77 5.93-1.85 8.62-.47 1.17-2.7 2.22-4.18 2.3-5.78.28-11.6-.02-17.39.22-8.31.35-10.34 2.26-11.85 10.33-1.13 6.05-2.2 12.12-3.42 18.15-1.45 7.18-5.85 11.4-13 11.74-7.26.35-14.55.08-22.63.08 2.11-10.6 4.1-20.74 6.16-30.88.86-4.2 1.68-8.43 2.88-12.54 1.3-4.44 4.21-7.89 9.06-7.95 18.48-.2 36.96-.07 56.22-.07z"/><path d="m177.42 117.6c1.29-6.82 2.47-13.55 3.83-20.24 2.53-12.43 5.1-24.85 7.76-37.25 1.88-8.79 5.24-11.52 14.32-11.77 5.98-.16 11.97-.14 17.95-.17.53 0 1.06.24 2.25.52-1.28 7.3-2.42 14.59-3.84 21.82-2.38 12.08-5.23 24.08-7.31 36.21-1.09 6.33-4.51 10.18-10.38 10.7-7.92.7-15.95.18-24.58.18z"/><path d="m120.73 118.15c2.82-13.79 5.66-27.49 8.41-41.21 1.15-5.76 4.79-9.04 10.37-9.35 7.6-.43 15.24-.11 23.77-.11-1.41 8.19-2.8 16.57-4.31 24.92-.9 4.96-1.98 9.89-3.02 14.82-1.45 6.87-4.58 10.29-11.61 10.81-7.61.55-15.28.12-23.61.12z"/><path d="m166.94 48.53c-1.37 7.63-5.11 11.39-12.18 11.69-7.24.3-14.5.07-21.74.07-.69-6.53 3.04-11.06 10.74-11.63 7.56-.57 15.2-.13 23.18-.13z"/></g><path d="m43.79 107.36c0-1.71-.15-2.49.02-3.18 1.31-5.19 2.68-10.36 4.03-15.54 7.63-.08 15.26-.21 22.89-.16.96.01 2.77 1.01 2.75 1.5-.16 4.34-.1 8.81-1.27 12.92-.53 1.87-3.58 4.11-5.63 4.25-7.4.52-14.87.21-22.79.21z" fill="none"/><path d="m49.97 74.8c1.05-5.03 1.61-9.09 2.86-12.92.37-1.12 2.67-2.2 4.13-2.28 5.38-.27 10.78-.06 16.17-.13 3.63-.04 6.79.31 7.01 5.05.28 5.98-2.15 10.03-6.88 10.2-7.4.28-14.81.08-23.29.08z" fill="none"/></svg>