<?xml version="1.0" encoding="utf-8"?>
<!-- Generator: Adobe Illustrator 24.0.1, SVG Export Plug-In . SVG Version: 6.00 Build 0)  -->
<svg version="1.1" id="Layer_1" xmlns="http://www.w3.org/2000/svg" xmlns:xlink="http://www.w3.org/1999/xlink" x="0px" y="0px"
	 viewBox="0 0 595.28 151.53" style="enable-background:new 0 0 595.28 151.53;" xml:space="preserve">
<style type="text/css">
	.st0{fill:#9FA7B2;}
	.st1{fill:none;}
	.st2{display:none;fill:#FFFFFF;}
</style>
<path class="st0" d="M214.51,139.45c-5.71-3.91-6.79-8.49-1.91-13.55c6.37-6.59,13.45-12.51,20.44-18.47
	c6.01-5.13,12.29-9.96,18.5-14.86c1.6-1.26,3.37-2.31,5.11-3.38c4.62-2.86,6.13-7.29,2.86-11.63c-6.14-8.15-12.59-16.11-19.47-23.64
	c-4.45-4.87-4.81-7.16,0.1-10.57c10.08-7,21.9-7.91,33.46-8.95c2.84-0.26,6.76,3.2,8.96,5.94c3.59,4.47,6.33,9.66,9.14,14.71
	c1.79,3.22,4.59,3.83,7.7,5.24c6.35,2.88,9.66-1.17,13.5-3.88c11.44-8.09,22.61-16.55,33.9-24.84c1.14-0.83,2.42-1.47,3.64-2.2
	c1.5,0,3,0,4.49,0c2.14,1.08,4.36,2.04,6.41,3.27c6.21,3.72,6.31,7.98,0.27,11.93c-11.89,7.78-23.88,15.41-35.7,23.27
	c-4.51,3-8.75,6.4-13,9.77c-3.61,2.86-4.44,6.24-1.57,10.25c5.53,7.73,10.53,15.9,16.63,23.15c2.83,3.36,7.79,4.86,11.63,7.44
	c1.43,0.96,3.34,2.55,3.37,3.9c0.03,1.42-1.62,3.35-3.04,4.25c-10.87,6.89-32.83,4.96-42.22-3.92
	c-5.97-5.64-11.62-11.64-17.03-17.83c-3.66-4.18-7.28-5.41-12.19-2.43c-12.62,7.65-25.57,14.82-37.86,22.98
	c-5.63,3.73-10.04,9.32-15,14.07C215.26,139.45,214.88,139.45,214.51,139.45z"/>
<path class="st0" d="M7.82,118.1c2.67-11.97,5.4-23.93,7.98-35.92c2.43-11.27,4.69-22.57,7.13-34.34c6.64,0,12.97,0.01,19.3,0
	c15.7-0.04,31.4-0.32,47.09-0.02c6.65,0.13,14.41,0.29,17.43,7.6c2.91,7.04,0.74,14.5-3.1,20.85c-1.69,2.8-5.21,4.48-7.49,6.34
	c2.43,1.88,6.36,3.59,7.98,6.56c1.61,2.95,1.47,7.23,1.1,10.83c-0.98,9.5-5.88,14.93-15.24,16.85c-5.64,1.15-11.44,1.95-17.18,2.04
	c-21.67,0.31-43.34,0.26-65.01,0.35C7.82,118.85,7.82,118.48,7.82,118.1z M43.79,107.36c7.92,0,15.39,0.31,22.8-0.2
	c2.04-0.14,5.1-2.39,5.63-4.25c1.16-4.11,1.11-8.59,1.27-12.92c0.02-0.49-1.79-1.49-2.75-1.5c-7.63-0.05-15.26,0.08-22.89,0.16
	c-1.35,5.18-2.72,10.35-4.03,15.54C43.64,104.87,43.79,105.65,43.79,107.36z M49.97,74.8c8.48,0,15.89,0.2,23.29-0.07
	c4.73-0.17,7.16-4.23,6.88-10.2c-0.22-4.73-3.38-5.09-7.01-5.05c-5.39,0.06-10.79-0.14-16.17,0.13c-1.46,0.07-3.76,1.15-4.13,2.28
	C51.57,65.71,51.01,69.77,49.97,74.8z"/>
<path class="st0" d="M587.45,82.16c-1.95,9.1-3.9,18.21-5.87,27.31c-0.67,3.08-1.38,6.15-2.18,9.72c-18.61,0-36.92,0.01-55.23,0
	c-6.55,0-13.1,0.18-19.63-0.14c-8.92-0.44-12.68-5.55-10.99-14.3c2.61-13.44,8.13-17.99,21.99-18.03c11.03-0.03,22.07-0.01,33.11,0
	c2.63,0,5.48,0.43,5.67-3.51c0.2-4.16-2.81-4.38-5.67-4.4c-14.4-0.08-28.8-0.04-43.2-0.06c-0.91,0-1.82-0.15-2.75-0.23
	c1.31-7.75,4.84-11.51,12.64-11.58c18.88-0.16,37.76,0.21,56.65,0.4c7.38,0.07,12.93,2.97,15.47,10.33
	C587.45,79.16,587.45,80.66,587.45,82.16z M551.48,96.47c-6.47,0-12.24-0.19-18,0.06c-4.06,0.18-7.21,4.64-6.86,9.31
	c0.34,4.56,4.05,3.57,6.82,3.76c2.97,0.2,5.98-0.11,8.97,0.01c4.56,0.17,6.89-2.18,7.73-6.41
	C550.53,101.21,550.93,99.21,551.48,96.47z"/>
<path class="st0" d="M353.02,77.6c-4.95,0-9.02,0-13.61,0c1.83-5.78,5.36-8.99,10.65-9.97c3.25-0.6,4.74-2.48,6.68-4.96
	c2.34-3,5.97-6.36,9.42-6.83c7.5-1.03,15.23-0.32,23.55-0.32c-0.43,3.77-0.79,7-1.23,10.93c6.16,0.36,12.2,0.72,18.34,1.08
	c-2.67,7.63-6,10.31-13.84,9.84c-5.38-0.32-7.69,1.17-8.18,6.8c-0.54,6.1-2.31,12.1-3.46,18.15c-1.11,5.88-0.33,6.84,5.87,6.91
	c7.29,0.09,14.58,0.02,22.51,0.02c-3.18,7.15-9.18,9.21-15.44,9.52c-10.83,0.53-21.72,0.52-32.56,0.07
	c-11.34-0.47-15.45-6.12-13.38-17.38C349.74,93.77,351.34,86.11,353.02,77.6z"/>
<path class="st0" d="M493.28,67.53c-0.56,2.89-0.77,5.93-1.85,8.62c-0.47,1.17-2.7,2.22-4.18,2.3c-5.78,0.28-11.6-0.02-17.39,0.22
	c-8.31,0.35-10.34,2.26-11.85,10.33c-1.13,6.05-2.2,12.12-3.42,18.15c-1.45,7.18-5.85,11.4-13,11.74
	c-7.26,0.35-14.55,0.08-22.63,0.08c2.11-10.6,4.1-20.74,6.16-30.88c0.86-4.2,1.68-8.43,2.88-12.54c1.3-4.44,4.21-7.89,9.06-7.95
	C455.54,67.4,474.02,67.53,493.28,67.53z"/>
<path class="st0" d="M177.42,117.6c1.29-6.82,2.47-13.55,3.83-20.24c2.53-12.43,5.1-24.85,7.76-37.25
	c1.88-8.79,5.24-11.52,14.32-11.77c5.98-0.16,11.97-0.14,17.95-0.17c0.53,0,1.06,0.24,2.25,0.52c-1.28,7.3-2.42,14.59-3.84,21.82
	c-2.38,12.08-5.23,24.08-7.31,36.21c-1.09,6.33-4.51,10.18-10.38,10.7C194.08,118.12,186.05,117.6,177.42,117.6z"/>
<path class="st0" d="M120.73,118.15c2.82-13.79,5.66-27.49,8.41-41.21c1.15-5.76,4.79-9.04,10.37-9.35
	c7.6-0.43,15.24-0.11,23.77-0.11c-1.41,8.19-2.8,16.57-4.31,24.92c-0.9,4.96-1.98,9.89-3.02,14.82
	c-1.45,6.87-4.58,10.29-11.61,10.81C136.73,118.58,129.06,118.15,120.73,118.15z"/>
<path class="st0" d="M166.94,48.53c-1.37,7.63-5.11,11.39-12.18,11.69c-7.24,0.3-14.5,0.07-21.74,0.07
	c-0.69-6.53,3.04-11.06,10.74-11.63C151.32,48.09,158.96,48.53,166.94,48.53z"/>
<path class="st1" d="M43.79,107.36c0-1.71-0.15-2.49,0.02-3.18c1.31-5.19,2.68-10.36,4.03-15.54c7.63-0.08,15.26-0.21,22.89-0.16
	c0.96,0.01,2.77,1.01,2.75,1.5c-0.16,4.34-0.1,8.81-1.27,12.92c-0.53,1.87-3.58,4.11-5.63,4.25
	C59.18,107.67,51.71,107.36,43.79,107.36z"/>
<path class="st1" d="M49.97,74.8c1.05-5.03,1.61-9.09,2.86-12.92c0.37-1.12,2.67-2.2,4.13-2.28c5.38-0.27,10.78-0.06,16.17-0.13
	c3.63-0.04,6.79,0.31,7.01,5.05c0.28,5.98-2.15,10.03-6.88,10.2C65.86,75,58.45,74.8,49.97,74.8z"/>
<path class="st2" d="M523.98,431.63c-0.49,2.45-0.85,4.22-1.2,6c-0.75,3.77-2.82,5.86-6.88,5.7c-2.66-0.1-5.33,0.18-7.98,0
	c-2.46-0.17-5.77,0.71-6.07-3.35c-0.31-4.16,2.5-8.13,6.11-8.29C513.08,431.46,518.22,431.63,523.98,431.63z"/>
</svg>
