<?xml version="1.0" encoding="utf-8"?>
<!-- Generator: Adobe Illustrator 24.0.1, SVG Export Plug-In . SVG Version: 6.00 Build 0)  -->
<svg version="1.1" id="Layer_1" xmlns="http://www.w3.org/2000/svg" xmlns:xlink="http://www.w3.org/1999/xlink" x="0px" y="0px"
	 viewBox="0 0 1200 317.8" style="enable-background:new 0 0 1200 317.8;" xml:space="preserve">
<style type="text/css">
	.st0{fill:#9FA7B2;}
	.st1{fill:#FFFFFF;}
</style>
<path class="st0" d="M602.4,124.9c-5.4,41.7-10.8,83.5-16.2,125.6c-9,0-17.8,0-27.3,0c-5.3-41.5-10.6-83.1-16-124.6
	c-0.3,0-0.7,0-1,0.1c0,41.3,0,82.7,0,124.5c-8.7,0-16.8,0-25.5,0c-0.1-1.9-0.3-3.9-0.3-5.9c0-48.8,0.1-97.7-0.1-146.5
	c0-5.5,1.6-7,7-6.8c10.8,0.4,21.7,0.3,32.6,0c4.2-0.1,6,1.1,6.3,5.5c3,36,6.2,71.9,9.3,107.9c0.2,1.9,0.5,3.8,1.9,5.6
	c3.9-39.3,7.8-78.6,11.7-118.4c14.5,0,28.7,0,43.2,0c0,52.8,0,105.4,0,158.6c-7.6,0-15.4,0-24,0c0-41.7,0-83.6,0-125.4
	C603.5,125,603,124.9,602.4,124.9z"/>
<path class="st0" d="M854.3,123.8c-0.1-16.4-7.4-25.6-23.6-27.6c-15.9-1.9-32-1.5-48.6-2.2c0,54.3,0,106.9,0,159.2
	c15.9,0,31.7,1.1,47.2-0.3c17.2-1.6,24.9-11.1,25-28.1C854.6,191.1,854.6,157.5,854.3,123.8z M826.7,220.1
	c0,12.2-3.8,15.4-16.9,13.7c0-40.1,0-79.9,0-119.6c12.8-2.2,16.9,1.1,16.9,13.2C826.7,158.3,826.7,189.2,826.7,220.1z"/>
<path class="st0" d="M973.2,250.6c-7.3-53.2-14.5-105.7-21.8-158.8c9.3,0,18.2,0,28,0c4.8,42.5,9.5,85,14.3,127.4
	c0.2,0.1,0.5,0.2,0.7,0.3c0.3-1.3,0.8-2.7,0.9-4c4-34.9,7.9-69.8,11.9-104.7c0.5-4.8,1.3-9.6,1.7-14.5c0.2-3.3,1.2-5.1,5-5
	c7.3,0.2,14.6,0.1,22.5,0.1c-1.9,13.8-3.7,27-5.6,40.2c-5.5,38.1-11.1,76.2-16.4,114.3c-0.6,4.2-2.1,5.2-6,5.1
	c-9.9-0.2-19.8-0.1-29.8-0.1C976.8,250.9,975,250.7,973.2,250.6z"/>
<path class="st0" d="M406.8,145c-8.1,0-15.7,0-24.1,0c0-9.3,0.1-18.4,0-27.4c-0.1-6.2-2.9-8.8-8.5-8.6c-4.4,0.2-7,2.3-7.6,6.7
	c-0.1,1.1-0.1,2.2-0.1,3.4c0,34.6,0,69.2,0,103.8c0,3.9,0.3,7.6,4.6,9.4c6.3,2.6,11.5-0.9,11.7-8.2c0.2-8.7,0-17.5,0-26.9
	c7.7,0,14.7-0.1,21.8,0.1c0.9,0,2.5,1.8,2.5,2.7c-0.1,11.6-0.1,23.2-1,34.7c-0.6,8.3-6.3,13.5-13.9,16c-11.9,4-24,3.9-35.8-0.6
	c-12.6-4.8-17.4-15.1-17.5-27.5c-0.4-34-0.4-68.1,0-102.1c0.2-17.6,9-27.5,26.5-29.9c7.5-1,15.4-0.7,22.8,0.5
	c11.2,1.8,17.7,9.1,18.5,20.8C407.4,122.6,406.8,133.5,406.8,145z"/>
<path class="st0" d="M1051.2,91.8c9.1,0,17.7,0,26.8,0c0,53,0,105.7,0,158.7c-8.8,0-17.5,0-26.8,0
	C1051.2,197.9,1051.2,145.1,1051.2,91.8z"/>
<path class="st1" d="M41.2,140.3c0,2.2,0,4.5,0,6.8c-1.2-0.4-2-0.6-2.8-0.9c1.3,2.7,3.2,4.4,5.2,5.8c6.3,4.5,7.4,9.9,3.5,16.4
	c-1.5,2.6-3.1,5.2-4,8c-3,9.5,2.4,16.4,12.4,16.1c1.4-0.1,2.9,0,5,0c-0.5,3-0.9,5.7-1.3,8.4c-0.7,4.7-1.4,9.5-2.1,14.2
	c-0.8,5.4,4,6.8,7.1,8.8c1,0.7,4.3-2.1,6.5-3.2c-1.4-1.4-2.6-3.7-4.2-4c-3.2-0.6-4.8-2.4-3.8-4.9c1.2-2.9,3.1-6.9,5.6-7.8
	c4.2-1.4,6.8-3.2,7.9-7.7c0.7,2.2,0.4,4.2,0.7,6c0.3,1.6,1,3.8,2.2,4.5c3.9,2.2,8,3.9,12.1,5.6c3.5,1.5,7.2-1,7.5-4.6
	c0.3-4.8-2.9-3.6-5.8-4c-2.6-0.3-5.7-1.1-7.2-2.9c-1.1-1.2-0.8-4.9,0.3-6.7c2.9-4.7,2.5-8.3-2.1-11.2c-5.2-3.3-0.2-7-0.2-10.4
	c0-0.3,4.1-0.8,6.2-0.7c3.8,0.1,7.7,0.8,11.5,0.9c1,0,2.6-1.1,3-2c1-2.7,0.1-5.4-2-7.2c-0.8-0.7-3.2-0.8-4-0.1
	c-4.2,3.8-7.7,1.4-10.5-0.1c4.7-5.3,9.5-10.5,14.1-15.9c1.3-1.5,2.6-3.6,2.6-5.4c0-1.2-2.3-3.6-3.4-3.5c-1.7,0.2-3.2,2-4.6,3.3
	c-3.6,3.2-7,6.6-10.8,9.6c-0.9,0.7-3,0.9-4,0.4c-3.1-1.9-5.9-4.2-8.9-6.4c1.3-0.3,2.7-0.6,3-0.6c-0.8-2.8-1.6-5.1-2.3-7.4
	c2.6,0,5.3,0,8.9,0c0.3-0.5,1.3-2,2.3-3.5c-0.9,0.7-1.7,1.3-2.6,2c-1.5-2.9-2.9-5.8-4.6-8.5c-3.6-5.9-9.7-5.3-15.3-5.2
	c-1.9,0.1-4.4,2.7-5.5,4.7c-1.5,3-1.3,7.3-2.3,9.8c-3.9,10.5,1.4,18.6,5.7,26.3c5,8.9,6.5,13.2,1.4,22.1c-2.9,5-6.2,6.4-11,4.6
	c-4.9-1.9-7.4-6.7-5.7-11.8c0.9-2.8,2.6-5.3,4.3-7.8c3.6-5.5,4.2-11,1.2-16.9c-1.4-2.8-2.7-5.6-4-8.4C44.2,147,44.2,147,41.2,140.3z
	"/>
<path class="st1" d="M277.9,145.7c-0.7,1.7-1.3,3.5-2.2,5c-5,7.8-4.2,14.9,1.4,22.2c1.9,2.4,3.1,6.4,2.6,9.3c-0.5,2.8-3.1,6-5.7,7.3
	c-2.2,1.1-6.3,0.9-8.3-0.5c-5.8-4.1-7.6-17.3-3.7-23.2c1.4-2.1,3.4-3.8,4.3-6c2.9-7,8.2-13.7,3.5-22c-0.3-0.5-0.6-1.3-0.4-1.5
	c4.4-4.8-2.5-6.9-2.6-10.8c0-1.1-3.5-3.1-5.3-3c-5.6,0.3-11.5,0.6-15.1,6.3c-1.4,2.3-3.5,4.1-5.6,6.6c0.7,1,1.7,2.4,2.8,3.9
	c0.1-0.6,0.2-1.1,0.4-1.6c2.4,0,4.8,0,7.2,0c-0.7,2.6-1.4,5.2-2.1,7.9c0.4,0.1,1.8,0.2,3.5,0.4c-3.9,2.6-7.2,4.8-12,7.9
	c-3.8-3.8-8.1-8.1-12.4-12.2c-1.1-1.1-2.8-2.6-3.9-2.4c-1.4,0.3-3.5,2.2-3.4,3.4c0.1,2,1.4,4.1,2.7,5.7c4.5,5.3,9.3,10.4,13.9,15.5
	c-3.2,1.7-6.7,3.6-10.7,0.2c-0.6-0.6-3.8,0.6-4.7,1.8c-1,1.5-1.5,4.1-1,5.8c0.3,1,3.1,1.8,4.7,1.7c5.3-0.3,10.5-1.1,15.6-1.6
	c0.9,3.6,1.6,6.6,2.4,9.6c-6.5,5.3-7.4,7.8-5.2,12.7c1,2.1,2,5.8,1,7c-1.7,1.9-5,2.2-7.6,3.2c-2,0.7-4.3,0.9-5.8,2.2
	c-0.7,0.6-0.4,3.9,0.4,4.5c1.9,1.2,4.7,2.4,6.5,1.8c4.9-1.6,10-3.5,14-6.6c1.7-1.3,1-5.9,1.5-8.9c0-0.1,0.6-0.2,1.3-0.4
	c0.3,4.6,2.8,6.3,7.2,7.7c2.4,0.7,3.9,5.4,5.1,8.5c0.3,0.6-2.3,2.5-3.6,3.7c-1.4,1.2-2.9,2.3-4.3,3.6c-0.1,0.1,0.6,1.7,1.1,1.8
	c2.3,0.6,5.1,2,6.8,1.1c3.7-1.9,7.4-4.5,6-10c-0.8-3.4-1.2-6.9-1.8-10.3c-0.6-3.4-1.2-6.7-1.8-10.5c2.4,0.1,3.7,0.3,5,0.3
	c10,0.3,15.4-6.6,12.2-16.1c-0.9-2.8-2.5-5.4-4-8c-3.7-6.3-2.6-11.6,3.4-16c1.8-1.3,3.4-2.8,5.1-4.2c0.3-0.2,0-1,0-1.6
	c-0.7,0.3-1.4,0.5-2,0.7c-0.2-2.4-0.5-4.8-0.7-7.1C281,147.1,281,147.1,277.9,145.7z"/>
<path class="st1" d="M187.4,239.9c-7-1.9-9.4,0.9-8.1,9.4c1.6-0.7,3.4-1.4,5.2-2.2c-0.1,2.4,0.7,5.3-0.4,7c-4,6.2-14.2,6.5-18.2,0.4
	c-1.3-2-0.7-5.4-0.9-8.1c2,0.8,4,1.6,6.1,2.4c5.7-11,5.6-11.1-3.9-11.4c-1.6-3.6-3-6.9-4.4-10.1c-0.8,0.1-1.6,0.2-2.4,0.3
	c-1.1,3.3-2.3,6.7-3.1,9.2c-2.8,0.9-7.7,1.9-7.7,2.5c0.3,3.6,1.8,7,2.5,9.5c2.7-1.1,4.6-1.8,6.4-2.6c0,2.4,0.9,5.2-0.1,7.2
	c-3.2,6.5-13.3,7.3-18.1,1.5c-1.5-1.8-1.3-4.9-1.8-7.4c2,0.5,4.1,1,6,1.4c0.3-9.2-1.2-11-8.2-9.2c-2-2.5-3.9-4.8-5.8-7.1
	c-0.5,0.3-1,0.6-1.6,0.9c0.2,2.7,0.5,5.4,0.7,8.1c-0.5-0.1-0.9-0.2-1.4-0.3c-0.6,2.5-1.8,5.1-1.6,7.4c0.2,1.8,2.2,3.5,3.7,5.5
	c0.6-2.3,1.1-3.7,1.6-5.8c4.4,3.1,5.6,6.6,2.6,9.9c-3.4,3.8-2.1,6.9-0.9,9.3c19.1,0,37.3,0,56.1,0c0.9-2.7,2.1-5.7-1.2-9.3
	c-3.1-3.4-1.5-7,3.3-8.9c0.4,1.6,0.7,3,1.1,4.6c6.1-7.1,6.1-8.2,0.9-12.3c0.2-2.9,0.3-5.5,0.5-8.2c-0.6-0.2-1.2-0.5-1.9-0.8
	C191,235,189.4,237.1,187.4,239.9z"/>
<path class="st1" d="M182.9,79.2c0.5-0.2,1-0.3,1.5-0.5c-0.5-3.8-0.9-7.6-1.7-11.4c-0.2-0.9-1.7-2-2.7-2.2
	c-11.4-2.5-22.7-2.8-33.4,2.7c-10.1,5.2-15.4,13.6-14.9,25c0.5,11.4,6.4,19.9,17.2,23.2c7.3,2.2,15.4,2.6,23.1,2.3
	c10.4-0.3,12.7-3.4,13.6-16.5c-2.2,2.4-3.6,3.8-4.8,5.3c-8.4,11.4-23.7,11.2-31.7-0.3c-4.9-7.1-5.6-15-4-23.1
	c1.8-9.1,8.1-15.5,16-16.8c9.2-1.6,14.7,1.4,20.3,11C181.7,78.4,182.4,78.7,182.9,79.2z"/>
<path class="st0" d="M173.6,184.3c-1.6-1.7-3.1-3.5-4.7-5.4c1.9-2.1,3.4-3.8,4.9-5.5c20.6-21.7,40.8-43.7,61.9-65
	c4.9-5,6.5-9.4,5.1-15.6c-10-2-10.6-1.7-15.6,6c-3.1,4.9-6,10-9.8,14.3c-13.6,15.4-27.6,30.5-41.4,45.8c-3.8,4.1-7.5,8.2-12,13.1
	c-1.5-1.8-2.5-3.3-3.8-4.7c-14.1-15.5-28.4-30.9-42.2-46.6c-6.1-7-11.5-14.6-16.8-22.3c-4.8-6.9-7.3-8-15.4-5.3
	c-2.1,7.1,0.6,12.1,6.4,16.3c4.2,3,8,6.8,11.6,10.6c16.8,18.1,33.4,36.4,50.1,54.6c1.2,1.4,2.4,2.8,3.8,4.4
	c-1.4,1.6-2.5,3.1-3.8,4.4c-18.7,20.6-37.7,41.1-56.1,62c-4.4,5-7.4,11.3-11,17c0.6,0.5,1.2,1.1,1.8,1.6c5.5-4.5,11.7-8.4,16.5-13.6
	c18.5-19.6,36.5-39.6,54.7-59.5c1.5-1.6,2.4-3.6,3.8-5.7c2.8,2.9,4.2,4.4,5.6,5.9c19,20.7,37.8,41.5,57,62c4,4.2,9.5,7,14.3,10.4
	c0.6-0.6,1.2-1.2,1.8-1.8c-4.6-6.5-8.6-13.4-13.8-19.3C209,222.9,191.2,203.7,173.6,184.3z M232,98.6c0.4-0.5,2-0.2,3-0.2
	c0,1,0.5,2.5,0,3c-2.6,2.7-5.4,5.1-8.2,7.7c-0.5-0.4-1-0.9-1.5-1.3C227.6,104.7,229.6,101.6,232,98.6z M97.8,108.9
	c-2.7-2.4-5.5-4.6-8-7.2c-0.6-0.6-0.1-2.3-0.1-3.4c1.1,0.2,2.8,0.1,3.3,0.8c2.2,2.7,4,5.6,6,8.5C98.7,108.1,98.3,108.5,97.8,108.9z"
	/>
<path class="st0" d="M41.2,140.3c3,6.6,3,6.6,5.5,4.6c1.3,2.8,2.6,5.6,4,8.4c3,5.9,2.4,11.5-1.2,16.9c-1.6,2.5-3.3,5-4.3,7.8
	c-1.7,5.2,0.8,9.9,5.7,11.8c4.8,1.9,8.1,0.5,11-4.6c5.1-8.9,3.6-13.2-1.4-22.1c-4.3-7.6-9.6-15.8-5.7-26.3c0.9-2.5,0.7-6.8,2.3-9.8
	c1-2.1,3.5-4.7,5.5-4.7c5.5-0.2,11.7-0.7,15.3,5.2c1.7,2.8,3.1,5.7,4.6,8.5c0.9-0.7,1.7-1.3,2.6-2c-1,1.5-2,3-2.3,3.5
	c-3.6,0-6.2,0-8.9,0c0.7,2.4,1.5,4.7,2.3,7.4c-0.3,0.1-1.7,0.4-3,0.6c3,2.2,5.8,4.5,8.9,6.4c0.9,0.6,3.1,0.4,4-0.4
	c3.7-3,7.2-6.4,10.8-9.6c1.4-1.3,3-3.1,4.6-3.3c1-0.1,3.4,2.3,3.4,3.5c0,1.8-1.3,3.9-2.6,5.4c-4.6,5.4-9.3,10.6-14.1,15.9
	c2.8,1.4,6.3,3.8,10.5,0.1c0.8-0.7,3.2-0.6,4,0.1c2.1,1.8,3,4.5,2,7.2c-0.4,1-2,2.1-3,2c-3.8-0.1-7.7-0.7-11.5-0.9
	c-2.2-0.1-6.2,0.4-6.2,0.7c-0.1,3.4-5,7.1,0.2,10.4c4.6,2.9,5,6.5,2.1,11.2c-1.1,1.7-1.4,5.4-0.3,6.7c1.6,1.8,4.7,2.6,7.2,2.9
	c2.9,0.4,6.1-0.8,5.8,4c-0.2,3.6-4,6-7.5,4.6c-4.1-1.7-8.3-3.4-12.1-5.6c-1.2-0.7-1.9-2.9-2.2-4.5c-0.4-1.9-0.1-3.9-0.7-6
	c-1.1,4.5-3.7,6.3-7.9,7.7c-2.5,0.9-4.4,4.8-5.6,7.8c-1,2.5,0.6,4.3,3.8,4.9c1.6,0.3,2.8,2.6,4.2,4c-2.2,1.2-5.5,3.9-6.5,3.2
	c-3.1-2-7.9-3.4-7.1-8.8c0.7-4.7,1.4-9.5,2.1-14.2c0.4-2.7,0.8-5.4,1.3-8.4c-2.1,0-3.5,0-5,0c-10,0.3-15.4-6.5-12.4-16.1
	c0.9-2.8,2.5-5.4,4-8c3.9-6.6,2.8-11.9-3.5-16.4c-2-1.4-3.9-3.1-5.2-5.8c0.8,0.2,1.6,0.5,2.8,0.9C41.2,144.8,41.2,142.6,41.2,140.3z
	"/>
<path class="st0" d="M277.9,145.7c3.1,1.4,3.1,1.4,5.5-5.4c0.2,2.3,0.5,4.7,0.7,7.1c0.6-0.2,1.3-0.5,2-0.7c0,0.6,0.2,1.4,0,1.6
	c-1.6,1.5-3.3,2.9-5.1,4.2c-6,4.4-7.1,9.7-3.4,16c1.5,2.6,3.1,5.2,4,8c3.1,9.5-2.2,16.4-12.2,16.1c-1.3,0-2.6-0.2-5-0.3
	c0.6,3.8,1.2,7.1,1.8,10.5c0.6,3.4,0.9,6.9,1.8,10.3c1.3,5.4-2.4,8-6,10c-1.6,0.9-4.5-0.5-6.8-1.1c-0.5-0.1-1.2-1.7-1.1-1.8
	c1.4-1.3,2.9-2.3,4.3-3.6c1.4-1.2,3.9-3,3.6-3.7c-1.2-3.1-2.7-7.7-5.1-8.5c-4.4-1.4-6.9-3.1-7.2-7.7c-0.7,0.2-1.3,0.3-1.3,0.4
	c-0.5,3.1,0.2,7.6-1.5,8.9c-4,3.1-9.1,5-14,6.6c-1.8,0.6-4.6-0.6-6.5-1.8c-0.8-0.5-1.1-3.9-0.4-4.5c1.5-1.2,3.8-1.5,5.8-2.2
	c2.6-0.9,6-1.3,7.6-3.2c1-1.1,0-4.8-1-7c-2.2-4.9-1.4-7.4,5.2-12.7c-0.7-3-1.5-6-2.4-9.6c-5.1,0.6-10.4,1.3-15.6,1.6
	c-1.6,0.1-4.4-0.7-4.7-1.7c-0.5-1.7-0.1-4.3,1-5.8c0.8-1.2,4-2.4,4.7-1.8c4.1,3.5,7.6,1.5,10.7-0.2c-4.6-5.1-9.4-10.2-13.9-15.5
	c-1.4-1.6-2.6-3.7-2.7-5.7c-0.1-1.1,2-3.1,3.4-3.4c1.1-0.2,2.8,1.3,3.9,2.4c4.4,4.1,8.6,8.4,12.4,12.2c4.8-3.1,8.1-5.3,12-7.9
	c-1.7-0.2-3-0.4-3.5-0.4c0.7-2.7,1.4-5.3,2.1-7.9c-2.4,0-4.8,0-7.2,0c-0.1,0.6-0.2,1.1-0.4,1.6c-1-1.4-2.1-2.9-2.8-3.9
	c2.1-2.4,4.1-4.3,5.6-6.6c3.6-5.7,9.5-6,15.1-6.3c1.8-0.1,5.3,1.9,5.3,3c0.1,3.9,7,6.1,2.6,10.8c-0.2,0.2,0.2,1.1,0.4,1.5
	c4.6,8.2-0.7,15-3.5,22c-0.9,2.2-2.9,4-4.3,6c-3.9,5.9-2.1,19.1,3.7,23.2c2,1.4,6.2,1.7,8.3,0.5c2.6-1.3,5.2-4.6,5.7-7.3
	c0.5-2.9-0.7-6.9-2.6-9.3c-5.6-7.3-6.4-14.4-1.4-22.2C276.6,149.2,277.1,147.4,277.9,145.7z"/>
<path class="st0" d="M187.4,239.9c2-2.7,3.7-4.9,5.3-7.1c0.6,0.2,1.2,0.5,1.9,0.8c-0.2,2.6-0.3,5.3-0.5,8.2
	c5.1,4.1,5.1,5.2-0.9,12.3c-0.4-1.6-0.7-3.1-1.1-4.6c-4.8,1.9-6.4,5.5-3.3,8.8c3.2,3.6,2.1,6.6,1.2,9.3c-18.7,0-36.9,0-56.1,0
	c-1.2-2.4-2.4-5.5,0.9-9.3c2.9-3.3,1.8-6.8-2.6-9.9c-0.6,2.1-1,3.5-1.6,5.8c-1.4-2-3.5-3.6-3.7-5.5c-0.2-2.4,1-5,1.6-7.4
	c0.5,0.1,0.9,0.2,1.4,0.3c-0.2-2.7-0.5-5.4-0.7-8.1c0.5-0.3,1-0.6,1.6-0.9c1.9,2.3,3.8,4.6,5.8,7.1c6.9-1.7,8.4,0,8.2,9.2
	c-1.9-0.5-4-0.9-6-1.4c0.6,2.5,0.4,5.7,1.8,7.4c4.8,5.8,14.9,5,18.1-1.5c0.9-1.9,0.1-4.8,0.1-7.2c-1.9,0.8-3.8,1.5-6.4,2.6
	c-0.8-2.5-2.2-6-2.5-9.5c-0.1-0.6,4.9-1.6,7.7-2.5c0.9-2.5,2-5.8,3.1-9.2c0.8-0.1,1.6-0.2,2.4-0.3c1.4,3.2,2.8,6.5,4.4,10.1
	c9.6,0.3,9.6,0.4,3.9,11.4c-2.1-0.8-4.1-1.6-6.1-2.4c0.2,2.7-0.4,6.1,0.9,8.1c4,6.1,14.2,5.8,18.2-0.4c1.1-1.7,0.3-4.6,0.4-7
	c-1.8,0.7-3.5,1.5-5.2,2.2C178,240.8,180.3,238,187.4,239.9z"/>
<path class="st0" d="M182.9,79.2c-0.5-0.4-1.2-0.8-1.5-1.3c-5.6-9.5-11.1-12.5-20.3-11c-7.9,1.3-14.2,7.7-16,16.8
	c-1.6,8.1-0.9,16.1,4,23.1c8,11.6,23.2,11.7,31.7,0.3c1.1-1.5,2.6-2.9,4.8-5.3c-0.9,13.1-3.2,16.2-13.6,16.5
	c-7.7,0.2-15.8-0.1-23.1-2.3c-10.8-3.3-16.7-11.8-17.2-23.2c-0.5-11.4,4.8-19.8,14.9-25c10.7-5.5,22-5.2,33.4-2.7
	c1.1,0.2,2.5,1.3,2.7,2.2c0.8,3.7,1.2,7.6,1.7,11.4C183.9,78.8,183.4,79,182.9,79.2z"/>
<path class="st0" d="M502.2,243.5c-6.3-49.1-12.6-98.2-18.8-147.4c-0.5-4-2.2-4.9-5.8-4.8c-10.9,0.2-21.7,0-32.6,0.1
	c-1.6,0-3.2,0.3-4.9,0.5c-7.5,53.1-14.9,105.8-22.4,158.7c9.4,0,18.2,0,27.2,0c2.1-15,4.1-29.7,6.1-44.6c6.1,0,11.7,0,18,0
	c2,15.2,3.9,29.9,5.8,44.5c9.6,0,18.5,0,27.8,0C502.6,247.9,502.5,245.7,502.2,243.5z M453.7,183.9c2-21.4,4-42.5,6-63.5
	c0.4,0,0.9,0,1.3,0c2,20.9,4.1,41.8,6.2,63.5C462.4,183.9,458.4,183.9,453.7,183.9z"/>
<path class="st0" d="M930.6,91.4c-12.7,0-24.8,0.1-37-0.1c-4.2-0.1-5.7,1.2-6.3,5.5c-6.1,44.1-12.4,88.1-18.6,132.1
	c-1,7.1-1.9,14.3-2.8,21.7c9.4,0,17.9,0,26.8,0c0.4-1.6,0.8-3,1-4.4c1.6-11.9,3.3-23.7,4.6-35.6c0.4-3.8,1.7-5,5.6-5
	c13.6-0.1,13.6-0.2,15,13.4c0.1,0.6,0.1,1.1,0.1,1.7c1.3,10,2.6,19.9,3.9,29.9c9.6,0,18.7,0,28,0
	C944.1,197.5,937.4,144.9,930.6,91.4z M901.4,183.8c2-22.3,4.1-44.5,6.1-66.7c0.6,0,1.2,0.1,1.9,0.1c1.8,22,3.7,44.1,5.5,66.6
	C910.5,183.8,906.5,183.8,901.4,183.8z"/>
<path class="st0" d="M1169.3,118.1c-0.9-15.3-7.7-23.2-22.9-25.1c-13.8-1.7-28-1-42-1.8c-5.6-0.3-7.2,1.4-7.2,7.1
	c0.2,48.6,0.1,97.2,0.1,145.8c0,2,0,4,0,5.6c16.8,0,32.5,1,48.1-0.3c15.5-1.3,22.6-10,24.1-25.5c0.2-2.6,0.3-5.2,0.3-7.8
	c0-18.5,0.1-37,0-55.5C1169.8,146.5,1170.1,132.3,1169.3,118.1z M1142,216.8c0,12.4-3.8,15.5-16.9,13.7c0-39.8,0-79.7,0-119.6
	c12.7-2.2,16.8,1,16.8,13.3C1142.1,155.1,1142.1,185.9,1142,216.8z"/>
<path class="st0" d="M720.7,120.7c0.4-38.3-45.9-27.2-72.2-29.3c0,53.7,0,106.5,0,159.2c9.2,0,17.9,0,27.1,0c0-21.6,0-42.9,0-64.7
	C731.8,186.5,719.1,157.3,720.7,120.7z M692.9,151.8c0,12.1-4.3,15.6-17,13.2c0-18.2,0-36,0-53.8
	C701.1,104.3,690.9,136.6,692.9,151.8z"/>
</svg>
