<svg enable-background="new 0 0 1200 317.8" viewBox="0 0 1200 317.8" xmlns="http://www.w3.org/2000/svg"><path d="m602.4 124.9c-5.4 41.7-10.8 83.5-16.2 125.6-9 0-17.8 0-27.3 0-5.3-41.5-10.6-83.1-16-124.6-.3 0-.7 0-1 .1v124.5c-8.7 0-16.8 0-25.5 0-.1-1.9-.3-3.9-.3-5.9 0-48.8.1-97.7-.1-146.5 0-5.5 1.6-7 7-6.8 10.8.4 21.7.3 32.6 0 4.2-.1 6 1.1 6.3 5.5 3 36 6.2 71.9 9.3 107.9.2 1.9.5 3.8 1.9 5.6 3.9-39.3 7.8-78.6 11.7-118.4h43.2v158.6c-7.6 0-15.4 0-24 0 0-41.7 0-83.6 0-125.4-.5-.1-1-.2-1.6-.2z" fill="#9fa7b2"/><path d="m854.3 123.8c-.1-16.4-7.4-25.6-23.6-27.6-15.9-1.9-32-1.5-48.6-2.2v159.2c15.9 0 31.7 1.1 47.2-.3 17.2-1.6 24.9-11.1 25-28.1.3-33.7.3-67.3 0-101zm-27.6 96.3c0 12.2-3.8 15.4-16.9 13.7 0-40.1 0-79.9 0-119.6 12.8-2.2 16.9 1.1 16.9 13.2z" fill="#9fa7b2"/><path d="m973.2 250.6c-7.3-53.2-14.5-105.7-21.8-158.8h28c4.8 42.5 9.5 85 14.3 127.4.2.1.5.2.7.3.3-1.3.8-2.7.9-4 4-34.9 7.9-69.8 11.9-104.7.5-4.8 1.3-9.6 1.7-14.5.2-3.3 1.2-5.1 5-5 7.3.2 14.6.1 22.5.1-1.9 13.8-3.7 27-5.6 40.2-5.5 38.1-11.1 76.2-16.4 114.3-.6 4.2-2.1 5.2-6 5.1-9.9-.2-19.8-.1-29.8-.1-1.8 0-3.6-.2-5.4-.3z" fill="#9fa7b2"/><path d="m406.8 145c-8.1 0-15.7 0-24.1 0 0-9.3.1-18.4 0-27.4-.1-6.2-2.9-8.8-8.5-8.6-4.4.2-7 2.3-7.6 6.7-.1 1.1-.1 2.2-.1 3.4v103.8c0 3.9.3 7.6 4.6 9.4 6.3 2.6 11.5-.9 11.7-8.2.2-8.7 0-17.5 0-26.9 7.7 0 14.7-.1 21.8.1.9 0 2.5 1.8 2.5 2.7-.1 11.6-.1 23.2-1 34.7-.6 8.3-6.3 13.5-13.9 16-11.9 4-24 3.9-35.8-.6-12.6-4.8-17.4-15.1-17.5-27.5-.4-34-.4-68.1 0-102.1.2-17.6 9-27.5 26.5-29.9 7.5-1 15.4-.7 22.8.5 11.2 1.8 17.7 9.1 18.5 20.8.7 10.7.1 21.6.1 33.1z" fill="#9fa7b2"/><path d="m1051.2 91.8h26.8v158.7c-8.8 0-17.5 0-26.8 0 0-52.6 0-105.4 0-158.7z" fill="#9fa7b2"/><path d="m41.2 140.3v6.8c-1.2-.4-2-.6-2.8-.9 1.3 2.7 3.2 4.4 5.2 5.8 6.3 4.5 7.4 9.9 3.5 16.4-1.5 2.6-3.1 5.2-4 8-3 9.5 2.4 16.4 12.4 16.1 1.4-.1 2.9 0 5 0-.5 3-.9 5.7-1.3 8.4-.7 4.7-1.4 9.5-2.1 14.2-.8 5.4 4 6.8 7.1 8.8 1 .7 4.3-2.1 6.5-3.2-1.4-1.4-2.6-3.7-4.2-4-3.2-.6-4.8-2.4-3.8-4.9 1.2-2.9 3.1-6.9 5.6-7.8 4.2-1.4 6.8-3.2 7.9-7.7.7 2.2.4 4.2.7 6 .3 1.6 1 3.8 2.2 4.5 3.9 2.2 8 3.9 12.1 5.6 3.5 1.5 7.2-1 7.5-4.6.3-4.8-2.9-3.6-5.8-4-2.6-.3-5.7-1.1-7.2-2.9-1.1-1.2-.8-4.9.3-6.7 2.9-4.7 2.5-8.3-2.1-11.2-5.2-3.3-.2-7-.2-10.4 0-.3 4.1-.8 6.2-.7 3.8.1 7.7.8 11.5.9 1 0 2.6-1.1 3-2 1-2.7.1-5.4-2-7.2-.8-.7-3.2-.8-4-.1-4.2 3.8-7.7 1.4-10.5-.1 4.7-5.3 9.5-10.5 14.1-15.9 1.3-1.5 2.6-3.6 2.6-5.4 0-1.2-2.3-3.6-3.4-3.5-1.7.2-3.2 2-4.6 3.3-3.6 3.2-7 6.6-10.8 9.6-.9.7-3 .9-4 .4-3.1-1.9-5.9-4.2-8.9-6.4 1.3-.3 2.7-.6 3-.6-.8-2.8-1.6-5.1-2.3-7.4h8.9c.3-.5 1.3-2 2.3-3.5-.9.7-1.7 1.3-2.6 2-1.5-2.9-2.9-5.8-4.6-8.5-3.6-5.9-9.7-5.3-15.3-5.2-1.9.1-4.4 2.7-5.5 4.7-1.5 3-1.3 7.3-2.3 9.8-3.9 10.5 1.4 18.6 5.7 26.3 5 8.9 6.5 13.2 1.4 22.1-2.9 5-6.2 6.4-11 4.6-4.9-1.9-7.4-6.7-5.7-11.8.9-2.8 2.6-5.3 4.3-7.8 3.6-5.5 4.2-11 1.2-16.9-1.4-2.8-2.7-5.6-4-8.4-2.2 2.1-2.2 2.1-5.2-4.6z" fill="#fff"/><path d="m277.9 145.7c-.7 1.7-1.3 3.5-2.2 5-5 7.8-4.2 14.9 1.4 22.2 1.9 2.4 3.1 6.4 2.6 9.3-.5 2.8-3.1 6-5.7 7.3-2.2 1.1-6.3.9-8.3-.5-5.8-4.1-7.6-17.3-3.7-23.2 1.4-2.1 3.4-3.8 4.3-6 2.9-7 8.2-13.7 3.5-22-.3-.5-.6-1.3-.4-1.5 4.4-4.8-2.5-6.9-2.6-10.8 0-1.1-3.5-3.1-5.3-3-5.6.3-11.5.6-15.1 6.3-1.4 2.3-3.5 4.1-5.6 6.6.7 1 1.7 2.4 2.8 3.9.1-.6.2-1.1.4-1.6h7.2c-.7 2.6-1.4 5.2-2.1 7.9.4.1 1.8.2 3.5.4-3.9 2.6-7.2 4.8-12 7.9-3.8-3.8-8.1-8.1-12.4-12.2-1.1-1.1-2.8-2.6-3.9-2.4-1.4.3-3.5 2.2-3.4 3.4.1 2 1.4 4.1 2.7 5.7 4.5 5.3 9.3 10.4 13.9 15.5-3.2 1.7-6.7 3.6-10.7.2-.6-.6-3.8.6-4.7 1.8-1 1.5-1.5 4.1-1 5.8.3 1 3.1 1.8 4.7 1.7 5.3-.3 10.5-1.1 15.6-1.6.9 3.6 1.6 6.6 2.4 9.6-6.5 5.3-7.4 7.8-5.2 12.7 1 2.1 2 5.8 1 7-1.7 1.9-5 2.2-7.6 3.2-2 .7-4.3.9-5.8 2.2-.7.6-.4 3.9.4 4.5 1.9 1.2 4.7 2.4 6.5 1.8 4.9-1.6 10-3.5 14-6.6 1.7-1.3 1-5.9 1.5-8.9 0-.1.6-.2 1.3-.4.3 4.6 2.8 6.3 7.2 7.7 2.4.7 3.9 5.4 5.1 8.5.3.6-2.3 2.5-3.6 3.7-1.4 1.2-2.9 2.3-4.3 3.6-.1.1.6 1.7 1.1 1.8 2.3.6 5.1 2 6.8 1.1 3.7-1.9 7.4-4.5 6-10-.8-3.4-1.2-6.9-1.8-10.3s-1.2-6.7-1.8-10.5c2.4.1 3.7.3 5 .3 10 .3 15.4-6.6 12.2-16.1-.9-2.8-2.5-5.4-4-8-3.7-6.3-2.6-11.6 3.4-16 1.8-1.3 3.4-2.8 5.1-4.2.3-.2 0-1 0-1.6-.7.3-1.4.5-2 .7-.2-2.4-.5-4.8-.7-7.1-2.6 6.6-2.6 6.6-5.7 5.2z" fill="#fff"/><path d="m187.4 239.9c-7-1.9-9.4.9-8.1 9.4 1.6-.7 3.4-1.4 5.2-2.2-.1 2.4.7 5.3-.4 7-4 6.2-14.2 6.5-18.2.4-1.3-2-.7-5.4-.9-8.1 2 .8 4 1.6 6.1 2.4 5.7-11 5.6-11.1-3.9-11.4-1.6-3.6-3-6.9-4.4-10.1-.8.1-1.6.2-2.4.3-1.1 3.3-2.3 6.7-3.1 9.2-2.8.9-7.7 1.9-7.7 2.5.3 3.6 1.8 7 2.5 9.5 2.7-1.1 4.6-1.8 6.4-2.6 0 2.4.9 5.2-.1 7.2-3.2 6.5-13.3 7.3-18.1 1.5-1.5-1.8-1.3-4.9-1.8-7.4 2 .5 4.1 1 6 1.4.3-9.2-1.2-11-8.2-9.2-2-2.5-3.9-4.8-5.8-7.1-.5.3-1 .6-1.6.9.2 2.7.5 5.4.7 8.1-.5-.1-.9-.2-1.4-.3-.6 2.5-1.8 5.1-1.6 7.4.2 1.8 2.2 3.5 3.7 5.5.6-2.3 1.1-3.7 1.6-5.8 4.4 3.1 5.6 6.6 2.6 9.9-3.4 3.8-2.1 6.9-.9 9.3h56.1c.9-2.7 2.1-5.7-1.2-9.3-3.1-3.4-1.5-7 3.3-8.9.4 1.6.7 3 1.1 4.6 6.1-7.1 6.1-8.2.9-12.3.2-2.9.3-5.5.5-8.2-.6-.2-1.2-.5-1.9-.8-1.4 2.3-3 4.4-5 7.2z" fill="#fff"/><path d="m182.9 79.2c.5-.2 1-.3 1.5-.5-.5-3.8-.9-7.6-1.7-11.4-.2-.9-1.7-2-2.7-2.2-11.4-2.5-22.7-2.8-33.4 2.7-10.1 5.2-15.4 13.6-14.9 25s6.4 19.9 17.2 23.2c7.3 2.2 15.4 2.6 23.1 2.3 10.4-.3 12.7-3.4 13.6-16.5-2.2 2.4-3.6 3.8-4.8 5.3-8.4 11.4-23.7 11.2-31.7-.3-4.9-7.1-5.6-15-4-23.1 1.8-9.1 8.1-15.5 16-16.8 9.2-1.6 14.7 1.4 20.3 11 .3.5 1 .8 1.5 1.3z" fill="#fff"/><g fill="#9fa7b2"><path d="m173.6 184.3c-1.6-1.7-3.1-3.5-4.7-5.4 1.9-2.1 3.4-3.8 4.9-5.5 20.6-21.7 40.8-43.7 61.9-65 4.9-5 6.5-9.4 5.1-15.6-10-2-10.6-1.7-15.6 6-3.1 4.9-6 10-9.8 14.3-13.6 15.4-27.6 30.5-41.4 45.8-3.8 4.1-7.5 8.2-12 13.1-1.5-1.8-2.5-3.3-3.8-4.7-14.1-15.5-28.4-30.9-42.2-46.6-6.1-7-11.5-14.6-16.8-22.3-4.8-6.9-7.3-8-15.4-5.3-2.1 7.1.6 12.1 6.4 16.3 4.2 3 8 6.8 11.6 10.6 16.8 18.1 33.4 36.4 50.1 54.6 1.2 1.4 2.4 2.8 3.8 4.4-1.4 1.6-2.5 3.1-3.8 4.4-18.7 20.6-37.7 41.1-56.1 62-4.4 5-7.4 11.3-11 17 .6.5 1.2 1.1 1.8 1.6 5.5-4.5 11.7-8.4 16.5-13.6 18.5-19.6 36.5-39.6 54.7-59.5 1.5-1.6 2.4-3.6 3.8-5.7 2.8 2.9 4.2 4.4 5.6 5.9 19 20.7 37.8 41.5 57 62 4 4.2 9.5 7 14.3 10.4.6-.6 1.2-1.2 1.8-1.8-4.6-6.5-8.6-13.4-13.8-19.3-17.5-19.5-35.3-38.7-52.9-58.1zm58.4-85.7c.4-.5 2-.2 3-.2 0 1 .5 2.5 0 3-2.6 2.7-5.4 5.1-8.2 7.7-.5-.4-1-.9-1.5-1.3 2.3-3.1 4.3-6.2 6.7-9.2zm-134.2 10.3c-2.7-2.4-5.5-4.6-8-7.2-.6-.6-.1-2.3-.1-3.4 1.1.2 2.8.1 3.3.8 2.2 2.7 4 5.6 6 8.5-.3.5-.7.9-1.2 1.3z"/><path d="m41.2 140.3c3 6.6 3 6.6 5.5 4.6 1.3 2.8 2.6 5.6 4 8.4 3 5.9 2.4 11.5-1.2 16.9-1.6 2.5-3.3 5-4.3 7.8-1.7 5.2.8 9.9 5.7 11.8 4.8 1.9 8.1.5 11-4.6 5.1-8.9 3.6-13.2-1.4-22.1-4.3-7.6-9.6-15.8-5.7-26.3.9-2.5.7-6.8 2.3-9.8 1-2.1 3.5-4.7 5.5-4.7 5.5-.2 11.7-.7 15.3 5.2 1.7 2.8 3.1 5.7 4.6 8.5.9-.7 1.7-1.3 2.6-2-1 1.5-2 3-2.3 3.5-3.6 0-6.2 0-8.9 0 .7 2.4 1.5 4.7 2.3 7.4-.3.1-1.7.4-3 .6 3 2.2 5.8 4.5 8.9 6.4.9.6 3.1.4 4-.4 3.7-3 7.2-6.4 10.8-9.6 1.4-1.3 3-3.1 4.6-3.3 1-.1 3.4 2.3 3.4 3.5 0 1.8-1.3 3.9-2.6 5.4-4.6 5.4-9.3 10.6-14.1 15.9 2.8 1.4 6.3 3.8 10.5.1.8-.7 3.2-.6 4 .1 2.1 1.8 3 4.5 2 7.2-.4 1-2 2.1-3 2-3.8-.1-7.7-.7-11.5-.9-2.2-.1-6.2.4-6.2.7-.1 3.4-5 7.1.2 10.4 4.6 2.9 5 6.5 2.1 11.2-1.1 1.7-1.4 5.4-.3 6.7 1.6 1.8 4.7 2.6 7.2 2.9 2.9.4 6.1-.8 5.8 4-.2 3.6-4 6-7.5 4.6-4.1-1.7-8.3-3.4-12.1-5.6-1.2-.7-1.9-2.9-2.2-4.5-.4-1.9-.1-3.9-.7-6-1.1 4.5-3.7 6.3-7.9 7.7-2.5.9-4.4 4.8-5.6 7.8-1 2.5.6 4.3 3.8 4.9 1.6.3 2.8 2.6 4.2 4-2.2 1.2-5.5 3.9-6.5 3.2-3.1-2-7.9-3.4-7.1-8.8.7-4.7 1.4-9.5 2.1-14.2.4-2.7.8-5.4 1.3-8.4-2.1 0-3.5 0-5 0-10 .3-15.4-6.5-12.4-16.1.9-2.8 2.5-5.4 4-8 3.9-6.6 2.8-11.9-3.5-16.4-2-1.4-3.9-3.1-5.2-5.8.8.2 1.6.5 2.8.9-.3-2.3-.3-4.5-.3-6.8z"/><path d="m277.9 145.7c3.1 1.4 3.1 1.4 5.5-5.4.2 2.3.5 4.7.7 7.1.6-.2 1.3-.5 2-.7 0 .6.2 1.4 0 1.6-1.6 1.5-3.3 2.9-5.1 4.2-6 4.4-7.1 9.7-3.4 16 1.5 2.6 3.1 5.2 4 8 3.1 9.5-2.2 16.4-12.2 16.1-1.3 0-2.6-.2-5-.3.6 3.8 1.2 7.1 1.8 10.5s.9 6.9 1.8 10.3c1.3 5.4-2.4 8-6 10-1.6.9-4.5-.5-6.8-1.1-.5-.1-1.2-1.7-1.1-1.8 1.4-1.3 2.9-2.3 4.3-3.6 1.4-1.2 3.9-3 3.6-3.7-1.2-3.1-2.7-7.7-5.1-8.5-4.4-1.4-6.9-3.1-7.2-7.7-.7.2-1.3.3-1.3.4-.5 3.1.2 7.6-1.5 8.9-4 3.1-9.1 5-14 6.6-1.8.6-4.6-.6-6.5-1.8-.8-.5-1.1-3.9-.4-4.5 1.5-1.2 3.8-1.5 5.8-2.2 2.6-.9 6-1.3 7.6-3.2 1-1.1 0-4.8-1-7-2.2-4.9-1.4-7.4 5.2-12.7-.7-3-1.5-6-2.4-9.6-5.1.6-10.4 1.3-15.6 1.6-1.6.1-4.4-.7-4.7-1.7-.5-1.7-.1-4.3 1-5.8.8-1.2 4-2.4 4.7-1.8 4.1 3.5 7.6 1.5 10.7-.2-4.6-5.1-9.4-10.2-13.9-15.5-1.4-1.6-2.6-3.7-2.7-5.7-.1-1.1 2-3.1 3.4-3.4 1.1-.2 2.8 1.3 3.9 2.4 4.4 4.1 8.6 8.4 12.4 12.2 4.8-3.1 8.1-5.3 12-7.9-1.7-.2-3-.4-3.5-.4.7-2.7 1.4-5.3 2.1-7.9-2.4 0-4.8 0-7.2 0-.1.6-.2 1.1-.4 1.6-1-1.4-2.1-2.9-2.8-3.9 2.1-2.4 4.1-4.3 5.6-6.6 3.6-5.7 9.5-6 15.1-6.3 1.8-.1 5.3 1.9 5.3 3 .1 3.9 7 6.1 2.6 10.8-.2.2.2 1.1.4 1.5 4.6 8.2-.7 15-3.5 22-.9 2.2-2.9 4-4.3 6-3.9 5.9-2.1 19.1 3.7 23.2 2 1.4 6.2 1.7 8.3.5 2.6-1.3 5.2-4.6 5.7-7.3.5-2.9-.7-6.9-2.6-9.3-5.6-7.3-6.4-14.4-1.4-22.2 1.1-1.3 1.6-3.1 2.4-4.8z"/><path d="m187.4 239.9c2-2.7 3.7-4.9 5.3-7.1.6.2 1.2.5 1.9.8-.2 2.6-.3 5.3-.5 8.2 5.1 4.1 5.1 5.2-.9 12.3-.4-1.6-.7-3.1-1.1-4.6-4.8 1.9-6.4 5.5-3.3 8.8 3.2 3.6 2.1 6.6 1.2 9.3-18.7 0-36.9 0-56.1 0-1.2-2.4-2.4-5.5.9-9.3 2.9-3.3 1.8-6.8-2.6-9.9-.6 2.1-1 3.5-1.6 5.8-1.4-2-3.5-3.6-3.7-5.5-.2-2.4 1-5 1.6-7.4.5.1.9.2 1.4.3-.2-2.7-.5-5.4-.7-8.1.5-.3 1-.6 1.6-.9 1.9 2.3 3.8 4.6 5.8 7.1 6.9-1.7 8.4 0 8.2 9.2-1.9-.5-4-.9-6-1.4.6 2.5.4 5.7 1.8 7.4 4.8 5.8 14.9 5 18.1-1.5.9-1.9.1-4.8.1-7.2-1.9.8-3.8 1.5-6.4 2.6-.8-2.5-2.2-6-2.5-9.5-.1-.6 4.9-1.6 7.7-2.5.9-2.5 2-5.8 3.1-9.2.8-.1 1.6-.2 2.4-.3 1.4 3.2 2.8 6.5 4.4 10.1 9.6.3 9.6.4 3.9 11.4-2.1-.8-4.1-1.6-6.1-2.4.2 2.7-.4 6.1.9 8.1 4 6.1 14.2 5.8 18.2-.4 1.1-1.7.3-4.6.4-7-1.8.7-3.5 1.5-5.2 2.2-1.6-8.5.7-11.3 7.8-9.4z"/><path d="m182.9 79.2c-.5-.4-1.2-.8-1.5-1.3-5.6-9.5-11.1-12.5-20.3-11-7.9 1.3-14.2 7.7-16 16.8-1.6 8.1-.9 16.1 4 23.1 8 11.6 23.2 11.7 31.7.3 1.1-1.5 2.6-2.9 4.8-5.3-.9 13.1-3.2 16.2-13.6 16.5-7.7.2-15.8-.1-23.1-2.3-10.8-3.3-16.7-11.8-17.2-23.2s4.8-19.8 14.9-25c10.7-5.5 22-5.2 33.4-2.7 1.1.2 2.5 1.3 2.7 2.2.8 3.7 1.2 7.6 1.7 11.4-.5.1-1 .3-1.5.5z"/><path d="m502.2 243.5c-6.3-49.1-12.6-98.2-18.8-147.4-.5-4-2.2-4.9-5.8-4.8-10.9.2-21.7 0-32.6.1-1.6 0-3.2.3-4.9.5-7.5 53.1-14.9 105.8-22.4 158.7h27.2c2.1-15 4.1-29.7 6.1-44.6h18c2 15.2 3.9 29.9 5.8 44.5h27.8c0-2.6-.1-4.8-.4-7zm-48.5-59.6c2-21.4 4-42.5 6-63.5h1.3c2 20.9 4.1 41.8 6.2 63.5-4.8 0-8.8 0-13.5 0z"/><path d="m930.6 91.4c-12.7 0-24.8.1-37-.1-4.2-.1-5.7 1.2-6.3 5.5-6.1 44.1-12.4 88.1-18.6 132.1-1 7.1-1.9 14.3-2.8 21.7h26.8c.4-1.6.8-3 1-4.4 1.6-11.9 3.3-23.7 4.6-35.6.4-3.8 1.7-5 5.6-5 13.6-.1 13.6-.2 15 13.4.1.6.1 1.1.1 1.7 1.3 10 2.6 19.9 3.9 29.9h28c-6.8-53.1-13.5-105.7-20.3-159.2zm-29.2 92.4c2-22.3 4.1-44.5 6.1-66.7.6 0 1.2.1 1.9.1 1.8 22 3.7 44.1 5.5 66.6-4.4 0-8.4 0-13.5 0z"/><path d="m1169.3 118.1c-.9-15.3-7.7-23.2-22.9-25.1-13.8-1.7-28-1-42-1.8-5.6-.3-7.2 1.4-7.2 7.1.2 48.6.1 97.2.1 145.8v5.6c16.8 0 32.5 1 48.1-.3 15.5-1.3 22.6-10 24.1-25.5.2-2.6.3-5.2.3-7.8 0-18.5.1-37 0-55.5 0-14.1.3-28.3-.5-42.5zm-27.3 98.7c0 12.4-3.8 15.5-16.9 13.7 0-39.8 0-79.7 0-119.6 12.7-2.2 16.8 1 16.8 13.3.2 30.9.2 61.7.1 92.6z"/><path d="m720.7 120.7c.4-38.3-45.9-27.2-72.2-29.3v159.2h27.1c0-21.6 0-42.9 0-64.7 56.2.6 43.5-28.6 45.1-65.2zm-27.8 31.1c0 12.1-4.3 15.6-17 13.2 0-18.2 0-36 0-53.8 25.2-6.9 15 25.4 17 40.6z"/></g></svg>