<svg enable-background="new 0 0 835 418.3" viewBox="0 0 835 418.3" xmlns="http://www.w3.org/2000/svg"><g fill="#9fa7b2"><path d="m771.9 304.9c-9-.2-17.4-.9-25.5-3.3-4.9-1.4-9.6-3.4-13.9-6.2-6.6-4.4-11.3-10.3-13.3-18.1-1.5-5.8-1.9-11.7-.3-17.5.7-2.7 1.9-5.1 4-7 2.3-2.1 4.9-3 7.9-2.3.5.1 1.1.3 1.6.6 1.4.8 2 2.4 1.4 3.9-.3.7-.6 1.3-1 1.9-4.4 6-4.3 18 2.7 25 2.3 2.3 4.9 4.1 7.7 5.6 4.3 2.2 8.9 3.5 13.6 4.3 7.4 1.3 14.8 1.5 22.2.9 7-.6 13.7-2.2 20.1-5.2 3.4-1.6 6.6-3.6 9.4-6.2 4.5-4.1 7.6-9.1 8.6-15.1 1.5-9.4-1-17.4-8.7-23.4-3.8-2.9-8-5-12.3-6.8-5.9-2.4-12-4.2-18.1-6.2-8.3-2.7-16.5-5.4-24.8-8.1-3.8-1.3-7.4-2.9-11-4.8-2.8-1.5-5.5-3.3-7.9-5.3-5.5-4.8-8.9-10.8-10-18-.9-6-.7-12 1.1-17.8 2.1-6.8 6.1-12.4 11.8-16.8 5-3.9 10.7-6.4 16.7-8.1 7.8-2.2 15.7-2.7 23.7-2.5 5.8.1 11.5.9 17 2.5 5.2 1.5 10 3.8 14.2 7.2 3.8 3.1 6.8 6.8 8.6 11.3 1.9 4.8 2.4 9.8 1.2 14.8-.7 3-2.1 5.7-4.4 7.8-1.9 1.7-4.1 2.7-6.8 2.4-3-.3-4.6-2.5-3.6-5.4.4-1.1 1-2.2 1.6-3.2.8-1.4 1.5-2.8 1.9-4.4.8-3.7-.1-7.1-2.2-10.3-1.6-2.4-3.8-4.3-6.3-5.8-2.8-1.7-5.9-2.9-9.1-3.6-3.6-.9-7.2-1.4-10.9-1.5-5.2-.2-10.4-.1-15.6.6-4.8.7-9.6 1.7-14.1 3.8-2.9 1.3-5.6 3-7.9 5.3-3.6 3.6-5.5 8-5.7 13.1-.1 2.3 0 4.6.4 6.9.9 4.8 3.1 8.7 6.8 11.8 2 1.7 4.2 3.1 6.6 4.3 4.5 2.4 9.3 4.2 14.2 5.7 8.1 2.6 16.3 5.1 24.4 7.7 5.7 1.8 11.4 3.7 16.8 6.2 3.6 1.6 7 3.5 10.2 5.8 3.1 2.2 5.8 4.7 8.1 7.8 3.2 4.2 5 8.9 5.9 14 .1.6.1 1.3.1 1.9 0 2.3 0 4.6.1 7 .1 7.1-2.1 13.5-5.7 19.5-3.4 5.6-8 9.9-13.4 13.5-6.2 4-13.1 6.6-20.3 8.2-6.2 1.1-12.3 1.5-17.8 1.6z"/><path d="m598.5 290.9h3.3 78.7 2.2c3.2.2 5.3 2.4 5.4 5.6v1.4c-.3 2.5-2.1 4.4-4.6 4.7-.9.1-1.9.1-2.9.1-29.3 0-58.7 0-88 0-1 0-2.1 0-3.1-.1-1.9-.2-3-1.2-3.5-3.1-.1-.5-.2-1.1-.2-1.7s0-1.3 0-1.9c0-46.4 0-92.7 0-139.1 0-1 0-2.1.1-3.1.4-2.3 1.7-3.5 4.1-3.6h2.2 83 2.2c2.3.1 4.1 1.5 4.8 3.7.6 1.8.5 3.7-.5 5.3-1 1.8-2.5 2.8-4.6 2.9-.8 0-1.6 0-2.4 0-24.2 0-48.4 0-72.7 0-1 0-2.1-.1-3.2.3-.1.5-.2.9-.2 1.4v1.9 67.4c0 1 0 2.1.1 3.2.6.1 1 .3 1.5.3h2.2 61.4c1.1 0 2.2 0 3.3.4 2.1.9 3.3 2.4 3.5 4.7.1 1.1.1 2.2-.4 3.3-.9 2.1-2.5 3.3-4.7 3.5-.8.1-1.6 0-2.4 0-20.4 0-40.8 0-61.2 0-.9 0-1.9-.1-3 .2-.1.4-.2.9-.3 1.3v1.7 36c-.3 1.1-.4 2.1-.1 3.3z"/><path d="m389.8 228.8c-.4.4-.9.8-1.4 1.2-3.2 3.1-6.4 6.3-9.6 9.4-1 1-1.4 2-1.4 3.4v31.4 21.8c0 .8 0 1.6-.1 2.4-.4 2.3-2 3.9-4.3 4.2-1.3.2-2.6.2-3.8 0-2.6-.3-4.3-2.1-4.6-4.8-.1-.7 0-1.4 0-2.2 0-46.1 0-92.2 0-138.3 0-.7 0-1.4 0-2.2.1-2.2 1.3-4 4-4.8 1.6-.4 3.2-.4 4.8 0 2.4.6 3.8 2.3 4.1 4.8.1.8 0 1.6 0 2.4v64.5c0 .9-.2 1.9.2 2.7.6.2.9-.2 1.1-.4.6-.6 1.3-1.2 1.9-1.9 23.1-23.4 46.2-46.7 69.3-70.1 1.6-1.6 3.3-2.3 5.5-2.2 3.5.1 6.2 2.7 4.8 7.2-.4 1.4-1.3 2.6-2.3 3.6-.8.8-1.6 1.6-2.4 2.4-18.3 18.1-36.6 36.1-55 54.2-.7.7-1.3 1.3-2.1 2.1.4.4.6.7.9.9 6.4 4.4 11.9 9.7 17.2 15.2 6.5 6.8 12.5 14.1 18.7 21.2 4.4 5.2 8.8 10.3 13.4 15.4 2.8 3.1 5.9 6.1 8.9 9.1 2.6 2.5 5.4 4.8 8.5 6.6 1.6.9 3.3 1.7 5 2.3 2.1.8 4.4.9 6.6.6 1-.1 2.1-.3 3.1-.4 3.2-.2 5.1 2 4.5 5.1-.4 2-1.5 3.5-3.1 4.6-1.8 1.3-3.9 1.9-6 2.2-4.1.5-8.1-.1-11.9-1.9-3.1-1.4-5.9-3.1-8.6-5.1-3.6-2.7-6.9-5.7-10.1-8.8-6.1-6.1-11.7-12.7-17.3-19.3-6.1-7.2-12.1-14.4-18.3-21.6-3.3-3.8-6.8-7.4-10.6-10.7-2.2-2-4.5-3.8-7.1-5.3-.8-.2-1.5-.8-2.5-.9z"/><path d="m19.2 162.2c0 1.4-.1 2.5-.1 3.6v129.2 2.4c-.2 3.1-2 5-5.1 5.3-1.1.1-2.3.1-3.3-.1-2-.3-3.5-1.5-4.2-3.5-.3-.9-.4-1.9-.5-2.8-.1-.7 0-1.4 0-2.2 0-45.3 0-90.6 0-136 0-.9-.1-1.8 0-2.6.1-.9.2-1.7.5-2.6.6-1.7 1.8-2.6 3.6-2.7h1.2c12.4 0 24.8-.1 37.2.1 10.2.2 20.2 1.6 30 4.7 4.2 1.3 8.2 3.1 12 5.3 11 6.4 17.7 15.9 20 28.4 1.6 8.7 1.4 17.3-.7 25.9-3.1 12.3-10.1 21.9-20.4 29.2-6.8 4.8-14.3 8-22.3 10.3-5.9 1.7-11.9 2.8-18.1 3.5-4.8.5-9.6.9-14.4.8-1.3 0-2.6-.2-3.8-.5-2.4-.6-3.6-2.2-3.7-4.7 0-.2 0-.5 0-.7 0-3.4 1.7-5.2 5.1-5.4 3.7-.2 7.5-.2 11.3-.5 10-.7 19.8-2.6 29-6.7 3.8-1.7 7.4-3.8 10.7-6.4 7.6-6 12.4-13.7 14.4-23.1 1.4-6.9 1.6-13.8.1-20.7-1.8-8.5-6.3-15.1-13.8-19.6-4.6-2.8-9.7-4.5-14.9-5.7-4.8-1.1-9.6-1.6-14.5-2-4.8-.4-9.6-.4-14.4-.4-6 0-12 0-18 0-.9.1-1.8.1-2.9.2z"/><path d="m271.6 305c-11.5-.3-22.7-2.1-33.4-6.6-20.3-8.7-33.4-23.8-39.4-45.1-1.9-6.9-2.8-13.9-2.9-21.1-.2-9.5.6-18.8 2.9-28 2.6-10.9 7.1-20.8 14.2-29.6 9.1-11.2 20.7-18.7 34.4-22.9 9.1-2.8 18.4-3.8 27.9-3.5 7.2.2 14.1 1.5 20.8 3.9 6.1 2.3 11.7 5.5 16.4 10.1 5.4 5.3 8.8 11.7 9.7 19.3.5 4.3.2 8.6-1.3 12.8-.8 2.1-1.8 4.1-3.4 5.7-1.6 1.7-3.6 2.3-5.9 1.9-2.9-.5-4.5-3.1-3.6-5.9.3-1.1.8-2.1 1.1-3.2.7-2.3.6-4.7.6-7.1 0-5.7-2.1-10.6-6-14.7-2-2.2-4.4-3.9-7-5.4-4.8-2.7-10-4.2-15.4-5-5.3-.8-10.7-.8-16-.4-8.4.6-16.5 2.6-24.2 6.4-12.2 6-20.8 15.5-26.1 27.9-2.9 6.7-4.6 13.8-5.4 21-.7 5.3-1 10.7-.9 16 .2 7.5 1.1 14.8 3.5 21.9 5.6 17 16.9 28.5 33.5 34.8 5.4 2 11 3.3 16.7 4 5.5.6 11 .9 16.5.3 5.4-.5 10.7-1.9 15.7-4 8.9-3.7 16.7-9 23.3-16.1.5-.5 1-1.1 1.5-1.5 1.8-1.6 3.9-1.8 6-.9 2.2.9 3.3 3.2 2.8 5.5-.3 1.3-.8 2.6-1.6 3.7-1.2 1.7-2.5 3.4-3.9 4.8-7.4 7.6-16.2 12.9-26.1 16.4-6.4 2.3-12.9 3.6-19.6 4-1.7.4-3.5.5-5.4.6z"/><path d="m158.1 226.5v68.8 2.6c-.2 2.8-2.3 4.4-4.4 4.7-1.3.2-2.6.2-3.8 0-2.6-.3-4.3-2.1-4.6-4.7-.1-.6 0-1.3 0-1.9 0-46.3 0-92.7 0-139 0-.6 0-1.3 0-1.9.3-2.3 1.5-3.9 3.7-4.5 1.9-.5 3.8-.6 5.7.1 2.1.7 3.3 2.2 3.4 4.4.1.9 0 1.8 0 2.6z"/><path d="m692.7 397.4c-.6-1-1.5-1.6-2.6-2-1.4-.6-2.9-.9-4.4-.9-2.6-.1-5.1.4-7.6 1-1.9.5-3.7 1.1-5.5 1.6-12.2 3.2-24.6 5.6-37.3 6.3-9 .5-18 .2-27-1.7-15.5-3.2-28.9-10.4-40.3-21.4-7.2-7-12.7-15.1-17.3-24-6.1-11.9-10.1-24.5-13-37.5-3-13.2-4.7-26.6-5.6-40.1-.5-7.8-.9-15.6-.9-23.5-.1-9.3.2-18.7.4-28 .1-3.4.3-6.9.6-10.3.7-6.8 1.3-13.5 2.2-20.2 1-7.6 2.2-15.2 3.6-22.7 2.3-12.7 5.2-25.3 8.5-37.9 3.2-12 6.7-24 10.8-35.8.3-.8.6-1.6 1-2.5.8 0 1.4 0 2 .1 3 .5 6 .8 9.1.9 4.2 0 8.3 0 12.5-.4 6-.6 11.9-1.6 17.6-3.5 6.4-2.1 12.3-5 17.3-9.6 8.2-7.3 11.8-16.5 10.8-27.4-.8-8-4.1-14.9-9.6-20.7-6.5-6.8-14.5-10.3-24.1-9.8-2.4.1-4.7.8-6.9 1.7-2.8 1.2-5.3 3-7.6 5-2.8 2.5-5.3 5.3-7.6 8.3-3.9 5.1-7.2 10.6-10.2 16.2-3.6 6.8-6.8 13.9-9.7 21.1-.3.8-.7 1.6-1 2.3-1.1 0-1.8-.6-2.6-1-4.5-2.7-8.1-6.3-10.9-10.6-2.6-4.1-4.4-8.5-5.7-13.1-1.6-5.8-2.3-11.7-2.6-17.7-.3-6.7.1-13.4 1-20.1.3-2.4.7-4.7 1.1-7.1.3-1.9.1-3.8-.8-5.6-.7-1.3-1.7-2.4-3.1-2.8-3.4-.9-6.5.7-7.5 4.1-.2.5-.3 1.1-.4 1.6-1 5.1-1.7 10.2-2 15.4-.8 10.3-.5 20.4 1.6 30.5 1.3 6.1 3.2 12 6.2 17.6 4.6 8.6 11 15.2 19.7 19.7.5.3 1 .5 1.3.7.1.3.2.5.1.6-.2.7-.4 1.4-.6 2.1-3.6 10.3-6.7 20.8-9.5 31.4-3.3 12.2-6.1 24.5-8.5 36.9-1.9 9.6-3.5 19.3-4.8 29.1-.8 6.3-1.4 12.5-2.1 18.8-.8 7.1-1.2 14.2-1.3 21.3-.2 14.8-.2 29.6.8 44.3.3 4.8.7 9.6 1.1 14.3.8 7.5 1.8 14.9 3.2 22.3 2 10.8 4.8 21.5 8.7 31.9 4.1 10.9 9.3 21.2 16.3 30.6 12 16.1 27.4 27.3 46.7 33.1 11 3.3 22.3 4.6 33.8 4.6 7.4 0 14.8-.5 22.2-1.5 6.4-.8 12.6-2.1 18.8-3.7 6.5-1.6 12.6-4.2 18.7-6.7.9-.4 1.8-1 2.6-1.7 1.2-.9 1.3-2.5.3-3.9zm-129.6-312.6c3.7-9.2 7.7-18.2 12.7-26.8 2.3-4 4.8-7.9 7.9-11.4 1.8-2.1 3.7-4 6-5.4 2-1.3 4.2-1.9 6.6-1.7 1.3.1 2.5.4 3.8.7 3.2.8 5.9 2.4 8.2 4.7 4.4 4.2 6.9 9.4 7.3 15.4.3 5.1-1.3 9.8-4.6 13.7-2.2 2.7-5 4.7-8 6.4-4 2.2-8.3 3.6-12.8 4.6-6.4 1.4-12.9 2-19.5 1.9-2.1 0-4.3-.3-6.4-.5-.5 0-.9-.3-1.5-.5.1-.5.2-.8.3-1.1z"/></g></svg>