<?xml version="1.0" encoding="utf-8"?>
<!-- Generator: Adobe Illustrator 24.0.1, SVG Export Plug-In . SVG Version: 6.00 Build 0)  -->
<svg version="1.1" id="Layer_1_xA0_Image_1_" xmlns="http://www.w3.org/2000/svg" xmlns:xlink="http://www.w3.org/1999/xlink"
	 x="0px" y="0px" viewBox="0 0 835 418.3" style="enable-background:new 0 0 835 418.3;" xml:space="preserve">
<style type="text/css">
	.st0{fill:#9FA7B2;}
</style>
<path class="st0" d="M771.9,304.9c-9-0.2-17.4-0.9-25.5-3.3c-4.9-1.4-9.6-3.4-13.9-6.2c-6.6-4.4-11.3-10.3-13.3-18.1
	c-1.5-5.8-1.9-11.7-0.3-17.5c0.7-2.7,1.9-5.1,4-7c2.3-2.1,4.9-3,7.9-2.3c0.5,0.1,1.1,0.3,1.6,0.6c1.4,0.8,2,2.4,1.4,3.9
	c-0.3,0.7-0.6,1.3-1,1.9c-4.4,6-4.3,18,2.7,25c2.3,2.3,4.9,4.1,7.7,5.6c4.3,2.2,8.9,3.5,13.6,4.3c7.4,1.3,14.8,1.5,22.2,0.9
	c7-0.6,13.7-2.2,20.1-5.2c3.4-1.6,6.6-3.6,9.4-6.2c4.5-4.1,7.6-9.1,8.6-15.1c1.5-9.4-1-17.4-8.7-23.4c-3.8-2.9-8-5-12.3-6.8
	c-5.9-2.4-12-4.2-18.1-6.2c-8.3-2.7-16.5-5.4-24.8-8.1c-3.8-1.3-7.4-2.9-11-4.8c-2.8-1.5-5.5-3.3-7.9-5.3c-5.5-4.8-8.9-10.8-10-18
	c-0.9-6-0.7-12,1.1-17.8c2.1-6.8,6.1-12.4,11.8-16.8c5-3.9,10.7-6.4,16.7-8.1c7.8-2.2,15.7-2.7,23.7-2.5c5.8,0.1,11.5,0.9,17,2.5
	c5.2,1.5,10,3.8,14.2,7.2c3.8,3.1,6.8,6.8,8.6,11.3c1.9,4.8,2.4,9.8,1.2,14.8c-0.7,3-2.1,5.7-4.4,7.8c-1.9,1.7-4.1,2.7-6.8,2.4
	c-3-0.3-4.6-2.5-3.6-5.4c0.4-1.1,1-2.2,1.6-3.2c0.8-1.4,1.5-2.8,1.9-4.4c0.8-3.7-0.1-7.1-2.2-10.3c-1.6-2.4-3.8-4.3-6.3-5.8
	c-2.8-1.7-5.9-2.9-9.1-3.6c-3.6-0.9-7.2-1.4-10.9-1.5c-5.2-0.2-10.4-0.1-15.6,0.6c-4.8,0.7-9.6,1.7-14.1,3.8c-2.9,1.3-5.6,3-7.9,5.3
	c-3.6,3.6-5.5,8-5.7,13.1c-0.1,2.3,0,4.6,0.4,6.9c0.9,4.8,3.1,8.7,6.8,11.8c2,1.7,4.2,3.1,6.6,4.3c4.5,2.4,9.3,4.2,14.2,5.7
	c8.1,2.6,16.3,5.1,24.4,7.7c5.7,1.8,11.4,3.7,16.8,6.2c3.6,1.6,7,3.5,10.2,5.8c3.1,2.2,5.8,4.7,8.1,7.8c3.2,4.2,5,8.9,5.9,14
	c0.1,0.6,0.1,1.3,0.1,1.9c0,2.3,0,4.6,0.1,7c0.1,7.1-2.1,13.5-5.7,19.5c-3.4,5.6-8,9.9-13.4,13.5c-6.2,4-13.1,6.6-20.3,8.2
	C783.5,304.4,777.4,304.8,771.9,304.9z"/>
<path class="st0" d="M598.5,290.9c1.2,0,2.2,0,3.3,0c26.2,0,52.4,0,78.7,0c0.7,0,1.4,0,2.2,0c3.2,0.2,5.3,2.4,5.4,5.6
	c0,0.5,0,1,0,1.4c-0.3,2.5-2.1,4.4-4.6,4.7c-0.9,0.1-1.9,0.1-2.9,0.1c-29.3,0-58.7,0-88,0c-1,0-2.1,0-3.1-0.1
	c-1.9-0.2-3-1.2-3.5-3.1c-0.1-0.5-0.2-1.1-0.2-1.7c0-0.6,0-1.3,0-1.9c0-46.4,0-92.7,0-139.1c0-1,0-2.1,0.1-3.1
	c0.4-2.3,1.7-3.5,4.1-3.6c0.7,0,1.4,0,2.2,0c27.7,0,55.3,0,83,0c0.7,0,1.4,0,2.2,0c2.3,0.1,4.1,1.5,4.8,3.7c0.6,1.8,0.5,3.7-0.5,5.3
	c-1,1.8-2.5,2.8-4.6,2.9c-0.8,0-1.6,0-2.4,0c-24.2,0-48.4,0-72.7,0c-1,0-2.1-0.1-3.2,0.3c-0.1,0.5-0.2,0.9-0.2,1.4
	c0,0.6,0,1.3,0,1.9c0,22.5,0,44.9,0,67.4c0,1,0,2.1,0.1,3.2c0.6,0.1,1,0.3,1.5,0.3c0.7,0,1.4,0,2.2,0c20.5,0,40.9,0,61.4,0
	c1.1,0,2.2,0,3.3,0.4c2.1,0.9,3.3,2.4,3.5,4.7c0.1,1.1,0.1,2.2-0.4,3.3c-0.9,2.1-2.5,3.3-4.7,3.5c-0.8,0.1-1.6,0-2.4,0
	c-20.4,0-40.8,0-61.2,0c-0.9,0-1.9-0.1-3,0.2c-0.1,0.4-0.2,0.9-0.3,1.3c0,0.6,0,1.1,0,1.7c0,12,0,24,0,36
	C598.3,288.7,598.2,289.7,598.5,290.9z"/>
<path class="st0" d="M389.8,228.8c-0.4,0.4-0.9,0.8-1.4,1.2c-3.2,3.1-6.4,6.3-9.6,9.4c-1,1-1.4,2-1.4,3.4c0,10.5,0,20.9,0,31.4
	c0,7.3,0,14.5,0,21.8c0,0.8,0,1.6-0.1,2.4c-0.4,2.3-2,3.9-4.3,4.2c-1.3,0.2-2.6,0.2-3.8,0c-2.6-0.3-4.3-2.1-4.6-4.8
	c-0.1-0.7,0-1.4,0-2.2c0-46.1,0-92.2,0-138.3c0-0.7,0-1.4,0-2.2c0.1-2.2,1.3-4,4-4.8c1.6-0.4,3.2-0.4,4.8,0c2.4,0.6,3.8,2.3,4.1,4.8
	c0.1,0.8,0,1.6,0,2.4c0,21.5,0,43,0,64.5c0,0.9-0.2,1.9,0.2,2.7c0.6,0.2,0.9-0.2,1.1-0.4c0.6-0.6,1.3-1.2,1.9-1.9
	c23.1-23.4,46.2-46.7,69.3-70.1c1.6-1.6,3.3-2.3,5.5-2.2c3.5,0.1,6.2,2.7,4.8,7.2c-0.4,1.4-1.3,2.6-2.3,3.6
	c-0.8,0.8-1.6,1.6-2.4,2.4c-18.3,18.1-36.6,36.1-55,54.2c-0.7,0.7-1.3,1.3-2.1,2.1c0.4,0.4,0.6,0.7,0.9,0.9
	c6.4,4.4,11.9,9.7,17.2,15.2c6.5,6.8,12.5,14.1,18.7,21.2c4.4,5.2,8.8,10.3,13.4,15.4c2.8,3.1,5.9,6.1,8.9,9.1
	c2.6,2.5,5.4,4.8,8.5,6.6c1.6,0.9,3.3,1.7,5,2.3c2.1,0.8,4.4,0.9,6.6,0.6c1-0.1,2.1-0.3,3.1-0.4c3.2-0.2,5.1,2,4.5,5.1
	c-0.4,2-1.5,3.5-3.1,4.6c-1.8,1.3-3.9,1.9-6,2.2c-4.1,0.5-8.1-0.1-11.9-1.9c-3.1-1.4-5.9-3.1-8.6-5.1c-3.6-2.7-6.9-5.7-10.1-8.8
	c-6.1-6.1-11.7-12.7-17.3-19.3c-6.1-7.2-12.1-14.4-18.3-21.6c-3.3-3.8-6.8-7.4-10.6-10.7c-2.2-2-4.5-3.8-7.1-5.3
	C391.5,229.5,390.8,228.9,389.8,228.8z"/>
<path class="st0" d="M19.2,162.2c0,1.4-0.1,2.5-0.1,3.6c0,43.1,0,86.2,0,129.2c0,0.8,0,1.6,0,2.4c-0.2,3.1-2,5-5.1,5.3
	c-1.1,0.1-2.3,0.1-3.3-0.1c-2-0.3-3.5-1.5-4.2-3.5c-0.3-0.9-0.4-1.9-0.5-2.8c-0.1-0.7,0-1.4,0-2.2c0-45.3,0-90.6,0-136
	c0-0.9-0.1-1.8,0-2.6c0.1-0.9,0.2-1.7,0.5-2.6c0.6-1.7,1.8-2.6,3.6-2.7c0.4,0,0.8,0,1.2,0c12.4,0,24.8-0.1,37.2,0.1
	c10.2,0.2,20.2,1.6,30,4.7c4.2,1.3,8.2,3.1,12,5.3c11,6.4,17.7,15.9,20,28.4c1.6,8.7,1.4,17.3-0.7,25.9
	c-3.1,12.3-10.1,21.9-20.4,29.2c-6.8,4.8-14.3,8-22.3,10.3c-5.9,1.7-11.9,2.8-18.1,3.5c-4.8,0.5-9.6,0.9-14.4,0.8
	c-1.3,0-2.6-0.2-3.8-0.5c-2.4-0.6-3.6-2.2-3.7-4.7c0-0.2,0-0.5,0-0.7c0-3.4,1.7-5.2,5.1-5.4c3.7-0.2,7.5-0.2,11.3-0.5
	c10-0.7,19.8-2.6,29-6.7c3.8-1.7,7.4-3.8,10.7-6.4c7.6-6,12.4-13.7,14.4-23.1c1.4-6.9,1.6-13.8,0.1-20.7
	c-1.8-8.5-6.3-15.1-13.8-19.6c-4.6-2.8-9.7-4.5-14.9-5.7c-4.8-1.1-9.6-1.6-14.5-2c-4.8-0.4-9.6-0.4-14.4-0.4c-6,0-12,0-18,0
	C21.2,162.1,20.3,162.1,19.2,162.2z"/>
<path class="st0" d="M271.6,305c-11.5-0.3-22.7-2.1-33.4-6.6c-20.3-8.7-33.4-23.8-39.4-45.1c-1.9-6.9-2.8-13.9-2.9-21.1
	c-0.2-9.5,0.6-18.8,2.9-28c2.6-10.9,7.1-20.8,14.2-29.6c9.1-11.2,20.7-18.7,34.4-22.9c9.1-2.8,18.4-3.8,27.9-3.5
	c7.2,0.2,14.1,1.5,20.8,3.9c6.1,2.3,11.7,5.5,16.4,10.1c5.4,5.3,8.8,11.7,9.7,19.3c0.5,4.3,0.2,8.6-1.3,12.8
	c-0.8,2.1-1.8,4.1-3.4,5.7c-1.6,1.7-3.6,2.3-5.9,1.9c-2.9-0.5-4.5-3.1-3.6-5.9c0.3-1.1,0.8-2.1,1.1-3.2c0.7-2.3,0.6-4.7,0.6-7.1
	c0-5.7-2.1-10.6-6-14.7c-2-2.2-4.4-3.9-7-5.4c-4.8-2.7-10-4.2-15.4-5c-5.3-0.8-10.7-0.8-16-0.4c-8.4,0.6-16.5,2.6-24.2,6.4
	c-12.2,6-20.8,15.5-26.1,27.9c-2.9,6.7-4.6,13.8-5.4,21c-0.7,5.3-1,10.7-0.9,16c0.2,7.5,1.1,14.8,3.5,21.9
	c5.6,17,16.9,28.5,33.5,34.8c5.4,2,11,3.3,16.7,4c5.5,0.6,11,0.9,16.5,0.3c5.4-0.5,10.7-1.9,15.7-4c8.9-3.7,16.7-9,23.3-16.1
	c0.5-0.5,1-1.1,1.5-1.5c1.8-1.6,3.9-1.8,6-0.9c2.2,0.9,3.3,3.2,2.8,5.5c-0.3,1.3-0.8,2.6-1.6,3.7c-1.2,1.7-2.5,3.4-3.9,4.8
	c-7.4,7.6-16.2,12.9-26.1,16.4c-6.4,2.3-12.9,3.6-19.6,4C275.3,304.8,273.5,304.9,271.6,305z"/>
<path class="st0" d="M158.1,226.5c0,22.9,0,45.8,0,68.8c0,0.9,0,1.8,0,2.6c-0.2,2.8-2.3,4.4-4.4,4.7c-1.3,0.2-2.6,0.2-3.8,0
	c-2.6-0.3-4.3-2.1-4.6-4.7c-0.1-0.6,0-1.3,0-1.9c0-46.3,0-92.7,0-139c0-0.6,0-1.3,0-1.9c0.3-2.3,1.5-3.9,3.7-4.5
	c1.9-0.5,3.8-0.6,5.7,0.1c2.1,0.7,3.3,2.2,3.4,4.4c0.1,0.9,0,1.8,0,2.6C158.1,180.7,158.1,203.6,158.1,226.5z"/>
<path class="st0" d="M692.7,397.4c-0.6-1-1.5-1.6-2.6-2c-1.4-0.6-2.9-0.9-4.4-0.9c-2.6-0.1-5.1,0.4-7.6,1c-1.9,0.5-3.7,1.1-5.5,1.6
	c-12.2,3.2-24.6,5.6-37.3,6.3c-9,0.5-18,0.2-27-1.7c-15.5-3.2-28.9-10.4-40.3-21.4c-7.2-7-12.7-15.1-17.3-24
	c-6.1-11.9-10.1-24.5-13-37.5c-3-13.2-4.7-26.6-5.6-40.1c-0.5-7.8-0.9-15.6-0.9-23.5c-0.1-9.3,0.2-18.7,0.4-28
	c0.1-3.4,0.3-6.9,0.6-10.3c0.7-6.8,1.3-13.5,2.2-20.2c1-7.6,2.2-15.2,3.6-22.7c2.3-12.7,5.2-25.3,8.5-37.9c3.2-12,6.7-24,10.8-35.8
	c0.3-0.8,0.6-1.6,1-2.5c0.8,0,1.4,0,2,0.1c3,0.5,6,0.8,9.1,0.9c4.2,0,8.3,0,12.5-0.4c6-0.6,11.9-1.6,17.6-3.5
	c6.4-2.1,12.3-5,17.3-9.6c8.2-7.3,11.8-16.5,10.8-27.4c-0.8-8-4.1-14.9-9.6-20.7c-6.5-6.8-14.5-10.3-24.1-9.8
	c-2.4,0.1-4.7,0.8-6.9,1.7c-2.8,1.2-5.3,3-7.6,5c-2.8,2.5-5.3,5.3-7.6,8.3c-3.9,5.1-7.2,10.6-10.2,16.2c-3.6,6.8-6.8,13.9-9.7,21.1
	c-0.3,0.8-0.7,1.6-1,2.3c-1.1,0-1.8-0.6-2.6-1c-4.5-2.7-8.1-6.3-10.9-10.6c-2.6-4.1-4.4-8.5-5.7-13.1c-1.6-5.8-2.3-11.7-2.6-17.7
	c-0.3-6.7,0.1-13.4,1-20.1c0.3-2.4,0.7-4.7,1.1-7.1c0.3-1.9,0.1-3.8-0.8-5.6c-0.7-1.3-1.7-2.4-3.1-2.8c-3.4-0.9-6.5,0.7-7.5,4.1
	c-0.2,0.5-0.3,1.1-0.4,1.6c-1,5.1-1.7,10.2-2,15.4c-0.8,10.3-0.5,20.4,1.6,30.5c1.3,6.1,3.2,12,6.2,17.6c4.6,8.6,11,15.2,19.7,19.7
	c0.5,0.3,1,0.5,1.3,0.7c0.1,0.3,0.2,0.5,0.1,0.6c-0.2,0.7-0.4,1.4-0.6,2.1c-3.6,10.3-6.7,20.8-9.5,31.4c-3.3,12.2-6.1,24.5-8.5,36.9
	c-1.9,9.6-3.5,19.3-4.8,29.1c-0.8,6.3-1.4,12.5-2.1,18.8c-0.8,7.1-1.2,14.2-1.3,21.3c-0.2,14.8-0.2,29.6,0.8,44.3
	c0.3,4.8,0.7,9.6,1.1,14.3c0.8,7.5,1.8,14.9,3.2,22.3c2,10.8,4.8,21.5,8.7,31.9c4.1,10.9,9.3,21.2,16.3,30.6
	c12,16.1,27.4,27.3,46.7,33.1c11,3.3,22.3,4.6,33.8,4.6c7.4,0,14.8-0.5,22.2-1.5c6.4-0.8,12.6-2.1,18.8-3.7
	c6.5-1.6,12.6-4.2,18.7-6.7c0.9-0.4,1.8-1,2.6-1.7C693.6,400.4,693.7,398.8,692.7,397.4z M563.1,84.8c3.7-9.2,7.7-18.2,12.7-26.8
	c2.3-4,4.8-7.9,7.9-11.4c1.8-2.1,3.7-4,6-5.4c2-1.3,4.2-1.9,6.6-1.7c1.3,0.1,2.5,0.4,3.8,0.7c3.2,0.8,5.9,2.4,8.2,4.7
	c4.4,4.2,6.9,9.4,7.3,15.4c0.3,5.1-1.3,9.8-4.6,13.7c-2.2,2.7-5,4.7-8,6.4c-4,2.2-8.3,3.6-12.8,4.6c-6.4,1.4-12.9,2-19.5,1.9
	c-2.1,0-4.3-0.3-6.4-0.5c-0.5,0-0.9-0.3-1.5-0.5C562.9,85.4,563,85.1,563.1,84.8z"/>
</svg>
