<?xml version="1.0" encoding="utf-8"?>
<!-- Generator: Adobe Illustrator 24.0.1, SVG Export Plug-In . SVG Version: 6.00 Build 0)  -->
<svg version="1.1" id="Layer_1" xmlns="http://www.w3.org/2000/svg" xmlns:xlink="http://www.w3.org/1999/xlink" x="0px" y="0px"
	 viewBox="0 0 841.9 206.6" style="enable-background:new 0 0 841.9 206.6;" xml:space="preserve">
<style type="text/css">
	.st0{fill:#9FA7B2;}
</style>
<path class="st0" d="M15.8,62.2c-6.9,0-12.3-5.4-12.3-12.3c0-6.9,5.4-12.3,12.3-12.3c6.9,0,12.3,5.4,12.3,12.3
	C27.8,56.8,22.4,62.2,15.8,62.2z M15.8,40.7c-5.1,0-9.2,4.3-9.2,9.2c0,5.1,4.3,9.2,9.2,9.2c5.1,0,9.2-4.3,9.2-9.2
	C25,45,21,40.7,15.8,40.7z M19,57.1l-2.6-5.4h-2.3v4.9h-2.9V43h6.3c2,0,4,2,4,4.3c0,1.4-0.9,2.9-2,3.7l2.3,4.9L19,57.1z M14.1,48.8
	h3.4c0.3,0,0.9-0.6,0.9-1.4c0-0.9-0.6-1.4-0.9-1.4h-3.4V48.8z"/>
<path class="st0" d="M563.6,29.3c0,11.4-8.6,20.9-22.3,20.9c-13.2,0-21.5-9.2-21.5-20.9c0-11.7,8.9-20.9,22-20.9
	C555.3,8.4,563.6,17.6,563.6,29.3z"/>
<path class="st0" d="M26.7,164c7.7,4.6,23.5,9.7,35.8,9.7c12.6,0,17.7-4,17.7-10.9c0-7.2-4-10.3-19.5-15.4
	c-27.7-9.2-38.6-24.3-38.3-40c0-25.2,21.2-44,54.3-44c15.4,0,29.2,3.7,37.5,8L107,100c-6-3.1-17.7-7.7-28.9-7.7
	c-10,0-15.7,4-15.7,10.6c0,6.6,5.1,9.7,21.5,15.4c25.5,8.9,35.8,21.7,36,41.2c0,25.2-19.5,43.5-57.5,43.5c-17.4,0-33.2-4-43.2-9.4
	L26.7,164z"/>
<path class="st0" d="M178.5,122.6h0.6c3.1-5.7,6.3-11.2,9.4-16l26.9-40h50.1l-47.8,54.1l54.6,79.5h-51.2l-32.3-54.9l-10.3,13.2v41.8
	h-41.5V6.1h41.5V122.6z"/>
<path class="st0" d="M279.2,109.1c0-16.6-0.6-30.6-1.1-42.6h36l2,18.6h0.9c5.4-8.9,18.9-21.5,41.2-21.5c27.2,0,47.8,18.3,47.8,57.5
	v78.9h-41.5V126c0-17.2-6-28.9-20.9-28.9c-11.4,0-18.3,8-21.2,15.4c-1.1,2.6-1.4,6.6-1.4,10.3v76.9h-41.5v-90.7H279.2z"/>
<path class="st0" d="M475.5,30.5v36h29.7v30.6h-29.7v48.3c0,16,4,23.5,16.3,23.5c5.7,0,8.6-0.3,12.3-1.1l0.3,31.5
	c-5.1,2-15.2,3.4-26.9,3.4c-13.4,0-24.6-4.6-31.5-11.4c-7.7-8-11.4-20.9-11.4-39.5V97.1h-17.7V66.5h17.7V41.6L475.5,30.5z"/>
<path class="st0" d="M562.4,66.5h-41.5v133.6h41.5V66.5z"/>
<path class="st0" d="M592.2,200.1v-103h-17.7V66.5h17.7v-5.4c0-37.2,28.3-57.8,69.5-57.8c14.3,0,31.2,3.1,39.2,8.3l-8,31.5
	c-6.6-3.4-17.2-6.9-30.3-6.9c-21.7,0-29.5,11.2-29.5,26v4.6h81.2v133.6h-41.5v-103h-39.2v103h-41.5V200.1z"/>
<path class="st0" d="M839.6,196.3c-7.4,3.4-21.2,6.3-37.2,6.3c-43.2,0-70.7-26.6-70.7-68.4c0-38.9,26.9-70.9,76.4-70.9
	c10.9,0,22.9,2,31.7,5.1l-6.6,30.9c-4.9-2.3-12.3-4-23.2-4c-21.7,0-36,15.4-35.8,37.5c0,24.3,16.3,37.5,36.6,37.5
	c9.7,0,17.5-1.7,23.7-4.3L839.6,196.3z"/>
</svg>
