<svg enable-background="new 0 0 841.9 206.6" viewBox="0 0 841.9 206.6" xmlns="http://www.w3.org/2000/svg"><g fill="#9fa7b2"><path d="m15.8 62.2c-6.9 0-12.3-5.4-12.3-12.3s5.4-12.3 12.3-12.3 12.3 5.4 12.3 12.3c-.3 6.9-5.7 12.3-12.3 12.3zm0-21.5c-5.1 0-9.2 4.3-9.2 9.2 0 5.1 4.3 9.2 9.2 9.2 5.1 0 9.2-4.3 9.2-9.2s-4-9.2-9.2-9.2zm3.2 16.4-2.6-5.4h-2.3v4.9h-2.9v-13.6h6.3c2 0 4 2 4 4.3 0 1.4-.9 2.9-2 3.7l2.3 4.9zm-4.9-8.3h3.4c.3 0 .9-.6.9-1.4 0-.9-.6-1.4-.9-1.4h-3.4z"/><path d="m563.6 29.3c0 11.4-8.6 20.9-22.3 20.9-13.2 0-21.5-9.2-21.5-20.9s8.9-20.9 22-20.9c13.5 0 21.8 9.2 21.8 20.9z"/><path d="m26.7 164c7.7 4.6 23.5 9.7 35.8 9.7 12.6 0 17.7-4 17.7-10.9 0-7.2-4-10.3-19.5-15.4-27.7-9.2-38.6-24.3-38.3-40 0-25.2 21.2-44 54.3-44 15.4 0 29.2 3.7 37.5 8l-7.2 28.6c-6-3.1-17.7-7.7-28.9-7.7-10 0-15.7 4-15.7 10.6s5.1 9.7 21.5 15.4c25.5 8.9 35.8 21.7 36 41.2 0 25.2-19.5 43.5-57.5 43.5-17.4 0-33.2-4-43.2-9.4z"/><path d="m178.5 122.6h.6c3.1-5.7 6.3-11.2 9.4-16l26.9-40h50.1l-47.8 54.1 54.6 79.5h-51.2l-32.3-54.9-10.3 13.2v41.8h-41.5v-194.2h41.5z"/><path d="m279.2 109.1c0-16.6-.6-30.6-1.1-42.6h36l2 18.6h.9c5.4-8.9 18.9-21.5 41.2-21.5 27.2 0 47.8 18.3 47.8 57.5v78.9h-41.5v-74c0-17.2-6-28.9-20.9-28.9-11.4 0-18.3 8-21.2 15.4-1.1 2.6-1.4 6.6-1.4 10.3v76.9h-41.5v-90.7h-.3z"/><path d="m475.5 30.5v36h29.7v30.6h-29.7v48.3c0 16 4 23.5 16.3 23.5 5.7 0 8.6-.3 12.3-1.1l.3 31.5c-5.1 2-15.2 3.4-26.9 3.4-13.4 0-24.6-4.6-31.5-11.4-7.7-8-11.4-20.9-11.4-39.5v-54.7h-17.7v-30.6h17.7v-24.9z"/><path d="m562.4 66.5h-41.5v133.6h41.5z"/><path d="m592.2 200.1v-103h-17.7v-30.6h17.7v-5.4c0-37.2 28.3-57.8 69.5-57.8 14.3 0 31.2 3.1 39.2 8.3l-8 31.5c-6.6-3.4-17.2-6.9-30.3-6.9-21.7 0-29.5 11.2-29.5 26v4.6h81.2v133.6h-41.5v-103h-39.2v103h-41.5v-.3z"/><path d="m839.6 196.3c-7.4 3.4-21.2 6.3-37.2 6.3-43.2 0-70.7-26.6-70.7-68.4 0-38.9 26.9-70.9 76.4-70.9 10.9 0 22.9 2 31.7 5.1l-6.6 30.9c-4.9-2.3-12.3-4-23.2-4-21.7 0-36 15.4-35.8 37.5 0 24.3 16.3 37.5 36.6 37.5 9.7 0 17.5-1.7 23.7-4.3z"/></g></svg>