<svg enable-background="new 0 0 368.9 109" viewBox="0 0 368.9 109" xmlns="http://www.w3.org/2000/svg"><g clip-rule="evenodd" fill="#9fa7b2" fill-rule="evenodd"><path d="m3 16.5h-1.9l.3-13.7h55.1l.3 13.7h-1.8c-.6-3.7-1.5-6.4-2.6-8.1s-2.3-2.7-3.6-3.1-3.5-.6-6.6-.6h-9.1v40.1c0 4.4.1 7.4.3 8.8s.8 2.4 1.7 3.1 2.7 1 5.2 1h2.8v1.9h-28.4v-1.9h2.9c2.4 0 4.1-.3 5-.9s1.5-1.6 1.8-2.9.4-4.3.4-9.1v-40.1h-8.4c-3.7 0-6.1.2-7.4.5-1.1.4-2.3 1.4-3.4 3.2s-2 4.5-2.6 8.1zm114.4 25.4h2l-1.2 17.7h-47v-1.9h1.2c2.8 0 4.6-.4 5.5-1.1.8-.8 1.3-1.7 1.6-2.9.2-1.2.3-4.1.3-8.9v-27.8c0-4.3-.1-7.2-.4-8.5-.2-1.4-.8-2.3-1.6-2.9-.9-.5-2.6-.8-5.4-.8v-2h40.6l1.3 14.2h-2c-.9-4-2-6.8-3.3-8.4-1.3-1.7-2.8-2.7-4.6-3.1s-4.7-.6-8.6-.6h-7.9v23.8h6c2.8 0 4.7-.2 5.8-.7s1.8-1.2 2.2-2.2c.3-1 .5-2.8.5-5.6h2v19.4h-2c0-3.2-.3-5.3-.8-6.3-.5-1.1-1.3-1.8-2.3-2.1s-2.7-.5-5.2-.5h-6.2v13.3c0 6.7.4 10.7 1.3 11.9s3.2 1.8 7 1.8h4.2c3 0 5.4-.4 7.4-1.2 1.9-.8 3.8-2.3 5.5-4.7s3.1-5.7 4.1-9.9zm19.2 17.1v-18.2h2.1c2.4 11.9 8 17.9 16.9 17.9 4 0 7.1-1.1 9.3-3.4s3.3-4.8 3.3-7.6-1-5.2-2.9-7.2c-1.9-1.9-5.4-3.9-10.6-6.1-4.6-2-8-3.7-10.3-5.1-2.3-1.5-4.1-3.4-5.4-5.7s-1.9-4.8-1.9-7.5c0-4.1 1.4-7.4 4.2-10.1s6.4-4 10.7-4c2.4 0 4.7.4 6.8 1.2s4.3 2.4 6.5 4.9c1.3-1.5 2-3.2 2.2-5h1.8v14.9h-1.8c-1.1-4.3-2.9-7.7-5.6-10.2s-5.8-3.7-9.4-3.7c-3.4 0-5.9.9-7.4 2.7-1.6 1.8-2.4 3.8-2.4 6 0 2.6 1 4.8 3 6.7 2 1.8 5.5 3.9 10.6 6.2 4.9 2.2 8.4 3.9 10.7 5.3 2.2 1.3 4 3.2 5.3 5.5s2 5.1 2 8.1c0 4.9-1.6 8.8-4.9 11.9-3.2 3-7.6 4.6-13 4.6-6.2 0-11.4-2.4-15.6-7.2-.9 1.3-1.6 3.2-2.1 5.5h-2.1zm55.6-28.2c0-8.8 2.9-15.8 8.8-21.1s13.2-8 22-8c8.9 0 16.3 2.6 22.2 7.9s8.8 12.4 8.8 21.5c0 8.8-2.8 15.9-8.5 21.4-5.7 5.4-13.2 8.2-22.4 8.2-9 0-16.4-2.7-22.2-8.2s-8.7-12.7-8.7-21.7zm9.6.3c0 9.1 1.8 16 5.5 20.6 3.6 4.6 9.1 6.9 16.4 6.9 6.4 0 11.5-2.3 15.2-6.9s5.6-11.4 5.6-20.5c0-8.8-1.8-15.6-5.5-20.3s-9-7.1-15.9-7.1c-6.8 0-12.1 2.3-15.7 6.9-3.8 4.6-5.6 11.4-5.6 20.4zm128.6 28.5h-15.3c-2.7-1.9-6.9-6.9-12.4-14.9-1.8-2.6-3.6-5-5.6-7.4-1.9-2.4-3.3-3.8-4-4.3s-1.9-.8-3.4-.8h-2.3v12.6c0 4.5.1 7.4.3 8.8s.8 2.4 1.7 3.1 2.6 1 5.2 1h2.7v1.9h-27.2v-1.9h1.8c2.4 0 4.1-.3 5-.9s1.5-1.6 1.8-2.9.4-4.3.4-9.1v-27.8c0-4.5-.1-7.4-.4-8.8s-.8-2.2-1.7-2.7-2.7-.8-5.6-.8h-1v-1.9l8.1-.4c5.4-.3 9.7-.4 12.9-.4 5.4 0 9.8.5 13.2 1.5s6.1 2.7 8.2 4.9c2.1 2.3 3.1 5 3.1 8.2 0 3.7-1.4 6.9-4.1 9.5s-6.8 4.3-12.1 4.9c2.4 1.1 6.2 5.3 11.5 12.4 4.3 5.8 7.7 9.6 10.1 11.4s5.4 2.7 8.7 2.8v2zm-42.9-29.3c2.1-.1 4.3-.1 6.5-.3 2.2-.1 4.2-.4 5.8-.9s3-1.2 4-2.2 1.8-2.2 2.4-3.8.9-3.5.9-5.8c0-4-1-7.2-3-9.6s-6.3-3.6-13.1-3.6c-1 0-2.2.1-3.6.2v26zm54.9-25.6v-1.9h26v1.9h-1.2c-2.8 0-4.6.2-5.5.7s-1.4 1.3-1.7 2.6-.4 4.2-.4 9v27.9c0 4.5.1 7.4.3 8.8s.8 2.4 1.7 3.1 2.6 1 5.2 1h1.7v1.9h-26v-1.9h1.7c2.4 0 4.1-.3 5-.9s1.5-1.6 1.8-2.9.4-4.3.4-9.1v-27.9c0-4.5-.1-7.4-.4-8.8-.3-1.3-.8-2.2-1.7-2.7s-2.7-.8-5.6-.8z"/><path d="m83.3 88.5 3.2-.2c2.7-.1 4.5-.2 5.4-.2 2.9 0 5.1.4 6.7 1.3s2.8 2.1 3.6 3.6 1.2 3.2 1.2 5.2c0 1.4-.2 2.7-.6 3.9s-1 2.2-1.8 2.9-1.6 1.4-2.6 1.8-1.9.7-2.8.8-2.1.2-3.7.2h-8.6v-.7h.8c.8 0 1.4-.1 1.7-.3s.5-.5.6-1c.1-.4.1-1.5.1-3.1v-9.4c0-1.5 0-2.5-.1-3s-.3-.8-.6-.9c-.3-.2-.9-.3-1.9-.3h-.6zm6 .4v13c0 1.9 0 3.2.1 3.7.1.6.3.9.6 1.2.4.2 1.1.3 2.3.3 1.7 0 3.1-.2 4.2-.7s2-1.4 2.7-2.7c.7-1.4 1.1-3.1 1.1-5.2 0-1.6-.2-3.1-.6-4.4s-1-2.3-1.8-3.1-1.7-1.4-2.6-1.6c-1-.3-2.2-.4-3.7-.4-.8-.2-1.5-.1-2.3-.1zm19.3.1v-.7h8.9v.7h-.5c-1 0-1.6.1-1.9.2s-.5.5-.6.9-.2 1.4-.2 3.1v9.5c0 1.5 0 2.5.1 3s.3.8.6 1.1c.3.2.9.3 1.8.3h.6v.7h-8.9v-.7h.6c.8 0 1.4-.1 1.7-.3s.5-.5.6-1c.1-.4.1-1.5.1-3.1v-9.5c0-1.5 0-2.5-.1-3s-.3-.8-.6-.9c-.3-.2-.9-.3-1.9-.3zm25.1 11.6h-7.4l-.5 1.2c-.7 1.8-1.1 2.9-1.1 3.5s.2 1 .6 1.3.9.5 1.5.5v.7h-5.8v-.7c.9-.1 1.5-.4 1.9-.9s.9-1.5 1.5-3c0-.1.3-.7.7-1.7l5.6-13.5h.6l6.5 15.4.9 2c.2.5.5.8.8 1.1s.8.4 1.5.5v.7h-7.6v-.7c.9 0 1.6-.1 1.9-.2s.5-.4.5-.8c0-.2-.2-.8-.7-1.9zm-.3-.6-3.4-8.3-3.4 8.3zm23.9 4.4 7.1-16.1h6v.7h-.7c-1 0-1.6.1-1.9.2s-.5.5-.6.9-.2 1.4-.2 3.1v9.5c0 1.5 0 2.5.1 3s.3.8.6 1.1c.3.2.9.3 1.8.3h.9v.7h-9.3v-.7h.7c.8 0 1.4-.1 1.7-.3s.5-.5.6-1c.1-.4.1-1.5.1-3.1v-12.3l-7.7 17.4h-.7l-7.7-17.4v11.4c0 1.6 0 2.6.1 3.2s.4 1.1.9 1.5 1.2.7 2.1.7v.7h-6.9v-.7c.8 0 1.5-.3 2-.7s.8-.9 1-1.5c.1-.6.2-1.7.2-3.3v-8.4c0-1.5 0-2.5-.1-3s-.3-.8-.6-.9c-.3-.2-.9-.3-1.9-.3h-.5v-.7h5.9zm29.1-3.8h-7.4l-.5 1.2c-.7 1.8-1.1 2.9-1.1 3.5s.2 1 .6 1.3.9.5 1.5.5v.7h-5.8v-.7c.9-.1 1.5-.4 1.9-.9s.9-1.5 1.5-3c0-.1.3-.7.7-1.7l5.6-13.5h.6l6.5 15.4.9 2c.2.5.5.8.8 1.1s.8.4 1.5.5v.7h-7.6v-.7c.9 0 1.6-.1 1.9-.2s.5-.4.5-.8c0-.2-.2-.8-.7-1.9zm-.2-.6-3.4-8.3-3.4 8.3zm28.3 8.2-13.7-18.2v13.5c0 1.1.1 1.9.2 2.2.1.4.4.7.9 1s1.3.4 2.3.4v.7h-7.2v-.7c.9-.1 1.6-.2 2.1-.5s.8-.6.9-.9.1-1.1.1-2.2v-10.3c0-1.5-.1-2.5-.2-3s-.4-.8-.7-1c-.3-.1-1-.2-2-.2v-.7h5.7l11.5 15.2v-11.6c0-.9-.1-1.5-.3-1.8s-.5-.6-1.1-.8-1.2-.3-2-.3v-.7h7v.7c-.8.1-1.5.2-1.9.5s-.8.5-.9.9-.2.9-.2 1.8v16.1h-.5zm8.3-15.2h-.7l.1-4.7h18.8l.1 4.7h-.6c-.2-1.3-.5-2.2-.9-2.8s-.8-.9-1.2-1-1.2-.2-2.2-.2h-3.2v13.7c0 1.5 0 2.5.1 3s.3.8.6 1.1.9.3 1.8.3h.9v.7h-9.7v-.7h1c.8 0 1.4-.1 1.7-.3s.5-.5.6-1c.1-.4.1-1.5.1-3.1v-13.7h-2.9c-1.2 0-2.1.1-2.5.2s-.8.5-1.2 1.1c-.3.6-.5 1.5-.7 2.7zm38.6 8.7h.7l-.4 6h-16.1v-.7h.4c1 0 1.6-.1 1.9-.4s.5-.6.5-1c.1-.4.1-1.4.1-3v-9.5c0-1.5 0-2.5-.1-2.9-.1-.5-.3-.8-.6-1s-.9-.3-1.8-.3v-.7h13.9l.5 4.8h-.7c-.3-1.4-.7-2.3-1.1-2.9s-1-.9-1.6-1.1c-.6-.1-1.6-.2-2.9-.2h-2.7v8.1h2.1c.9 0 1.6-.1 2-.2.4-.2.6-.4.7-.7s.2-1 .2-1.9h.7v6.6h-.7c0-1.1-.1-1.8-.3-2.2s-.4-.6-.8-.7c-.3-.1-.9-.2-1.8-.2h-2.1v4.6c0 2.3.1 3.7.4 4.1s1.1.6 2.4.6h1.4c1 0 1.9-.1 2.5-.4.7-.3 1.3-.8 1.9-1.6.6-.6 1-1.8 1.4-3.2zm25.7 6.1h-5.2c-.9-.6-2.3-2.3-4.2-5.1-.6-.9-1.2-1.7-1.9-2.5s-1.1-1.3-1.4-1.5c-.2-.2-.6-.3-1.2-.3h-.8v4.3c0 1.5 0 2.5.1 3s.3.8.6 1.1c.3.2.9.3 1.8.3h.9v.7h-9.3v-.7h.6c.8 0 1.4-.1 1.7-.3s.5-.5.6-1c.1-.4.1-1.5.1-3.1v-9.5c0-1.5 0-2.5-.1-3s-.3-.8-.6-.9c-.3-.2-.9-.3-1.9-.3h-.3v-.7l2.8-.1c1.9-.1 3.3-.1 4.4-.1 1.9 0 3.4.2 4.5.5 1.2.3 2.1.9 2.8 1.7s1.1 1.7 1.1 2.8c0 1.3-.5 2.4-1.4 3.2s-2.3 1.5-4.1 1.7c.8.4 2.1 1.8 3.9 4.2 1.5 2 2.6 3.3 3.5 3.9s1.8.9 3 1zm-14.6-10.1c.7 0 1.5 0 2.2-.1.8 0 1.4-.1 2-.3s1-.4 1.4-.8c.3-.3.6-.8.8-1.3s.3-1.2.3-2c0-1.4-.3-2.5-1-3.3s-2.2-1.2-4.5-1.2c-.4 0-.8 0-1.2.1z"/></g></svg>