<?xml version="1.0" encoding="utf-8"?>
<!-- Generator: Adobe Illustrator 24.0.1, SVG Export Plug-In . SVG Version: 6.00 Build 0)  -->
<svg version="1.1" id="Layer_2" xmlns="http://www.w3.org/2000/svg" xmlns:xlink="http://www.w3.org/1999/xlink" x="0px" y="0px"
	 viewBox="0 0 368.9 109" style="enable-background:new 0 0 368.9 109;" xml:space="preserve">
<style type="text/css">
	.st0{fill-rule:evenodd;clip-rule:evenodd;fill:#9FA7B2;}
</style>
<path id="TESORI-Copy" class="st0" d="M3,16.5H1.1L1.4,2.8h55.1l0.3,13.7H55c-0.6-3.7-1.5-6.4-2.6-8.1s-2.3-2.7-3.6-3.1
	s-3.5-0.6-6.6-0.6h-9.1v40.1c0,4.4,0.1,7.4,0.3,8.8s0.8,2.4,1.7,3.1s2.7,1,5.2,1h2.8v1.9H14.7v-1.9h2.9c2.4,0,4.1-0.3,5-0.9
	c0.9-0.6,1.5-1.6,1.8-2.9c0.3-1.3,0.4-4.3,0.4-9.1V4.7h-8.4c-3.7,0-6.1,0.2-7.4,0.5C7.9,5.6,6.7,6.6,5.6,8.4S3.6,12.9,3,16.5z
	 M117.4,41.9h2l-1.2,17.7H71.2v-1.9h1.2c2.8,0,4.6-0.4,5.5-1.1c0.8-0.8,1.3-1.7,1.6-2.9c0.2-1.2,0.3-4.1,0.3-8.9V17
	c0-4.3-0.1-7.2-0.4-8.5c-0.2-1.4-0.8-2.3-1.6-2.9c-0.9-0.5-2.6-0.8-5.4-0.8V2.8h40.6l1.3,14.2h-2c-0.9-4-2-6.8-3.3-8.4
	c-1.3-1.7-2.8-2.7-4.6-3.1c-1.8-0.4-4.7-0.6-8.6-0.6h-7.9v23.8h6c2.8,0,4.7-0.2,5.8-0.7c1.1-0.5,1.8-1.2,2.2-2.2
	c0.3-1,0.5-2.8,0.5-5.6h2v19.4h-2c0-3.2-0.3-5.3-0.8-6.3c-0.5-1.1-1.3-1.8-2.3-2.1c-1-0.3-2.7-0.5-5.2-0.5h-6.2V44
	c0,6.7,0.4,10.7,1.3,11.9c0.9,1.2,3.2,1.8,7,1.8h4.2c3,0,5.4-0.4,7.4-1.2c1.9-0.8,3.8-2.3,5.5-4.7C115,49.4,116.4,46.1,117.4,41.9z
	 M136.6,59V40.8h2.1c2.4,11.9,8,17.9,16.9,17.9c4,0,7.1-1.1,9.3-3.4c2.2-2.3,3.3-4.8,3.3-7.6c0-2.8-1-5.2-2.9-7.2
	c-1.9-1.9-5.4-3.9-10.6-6.1c-4.6-2-8-3.7-10.3-5.1c-2.3-1.5-4.1-3.4-5.4-5.7c-1.3-2.3-1.9-4.8-1.9-7.5c0-4.1,1.4-7.4,4.2-10.1
	c2.8-2.7,6.4-4,10.7-4c2.4,0,4.7,0.4,6.8,1.2s4.3,2.4,6.5,4.9c1.3-1.5,2-3.2,2.2-5h1.8v14.9h-1.8c-1.1-4.3-2.9-7.7-5.6-10.2
	c-2.7-2.5-5.8-3.7-9.4-3.7c-3.4,0-5.9,0.9-7.4,2.7c-1.6,1.8-2.4,3.8-2.4,6c0,2.6,1,4.8,3,6.7c2,1.8,5.5,3.9,10.6,6.2
	c4.9,2.2,8.4,3.9,10.7,5.3c2.2,1.3,4,3.2,5.3,5.5c1.3,2.3,2,5.1,2,8.1c0,4.9-1.6,8.8-4.9,11.9c-3.2,3-7.6,4.6-13,4.6
	c-6.2,0-11.4-2.4-15.6-7.2c-0.9,1.3-1.6,3.2-2.1,5.5H136.6z M192.2,30.8c0-8.8,2.9-15.8,8.8-21.1c5.9-5.3,13.2-8,22-8
	c8.9,0,16.3,2.6,22.2,7.9S254,22,254,31.1c0,8.8-2.8,15.9-8.5,21.4c-5.7,5.4-13.2,8.2-22.4,8.2c-9,0-16.4-2.7-22.2-8.2
	C195.1,47,192.2,39.8,192.2,30.8z M201.8,31.1c0,9.1,1.8,16,5.5,20.6c3.6,4.6,9.1,6.9,16.4,6.9c6.4,0,11.5-2.3,15.2-6.9
	s5.6-11.4,5.6-20.5c0-8.8-1.8-15.6-5.5-20.3c-3.7-4.7-9-7.1-15.9-7.1c-6.8,0-12.1,2.3-15.7,6.9C203.6,15.3,201.8,22.1,201.8,31.1z
	 M330.4,59.6h-15.3c-2.7-1.9-6.9-6.9-12.4-14.9c-1.8-2.6-3.6-5-5.6-7.4c-1.9-2.4-3.3-3.8-4-4.3c-0.7-0.5-1.9-0.8-3.4-0.8h-2.3v12.6
	c0,4.5,0.1,7.4,0.3,8.8c0.2,1.4,0.8,2.4,1.7,3.1s2.6,1,5.2,1h2.7v1.9h-27.2v-1.9h1.8c2.4,0,4.1-0.3,5-0.9c0.9-0.6,1.5-1.6,1.8-2.9
	s0.4-4.3,0.4-9.1V17c0-4.5-0.1-7.4-0.4-8.8s-0.8-2.2-1.7-2.7s-2.7-0.8-5.6-0.8h-1V2.8l8.1-0.4c5.4-0.3,9.7-0.4,12.9-0.4
	c5.4,0,9.8,0.5,13.2,1.5c3.4,1,6.1,2.7,8.2,4.9c2.1,2.3,3.1,5,3.1,8.2c0,3.7-1.4,6.9-4.1,9.5c-2.7,2.6-6.8,4.3-12.1,4.9
	c2.4,1.1,6.2,5.3,11.5,12.4c4.3,5.8,7.7,9.6,10.1,11.4s5.4,2.7,8.7,2.8V59.6z M287.5,30.3c2.1-0.1,4.3-0.1,6.5-0.3
	c2.2-0.1,4.2-0.4,5.8-0.9c1.6-0.5,3-1.2,4-2.2c1-1,1.8-2.2,2.4-3.8c0.6-1.6,0.9-3.5,0.9-5.8c0-4-1-7.2-3-9.6
	c-2-2.4-6.3-3.6-13.1-3.6c-1,0-2.2,0.1-3.6,0.2V30.3z M342.4,4.7V2.8h26v1.9h-1.2c-2.8,0-4.6,0.2-5.5,0.7c-0.9,0.5-1.4,1.3-1.7,2.6
	c-0.3,1.3-0.4,4.2-0.4,9v27.9c0,4.5,0.1,7.4,0.3,8.8c0.2,1.4,0.8,2.4,1.7,3.1c0.9,0.7,2.6,1,5.2,1h1.7v1.9h-26v-1.9h1.7
	c2.4,0,4.1-0.3,5-0.9c0.9-0.6,1.5-1.6,1.8-2.9c0.3-1.3,0.4-4.3,0.4-9.1V17c0-4.5-0.1-7.4-0.4-8.8c-0.3-1.3-0.8-2.2-1.7-2.7
	c-0.9-0.5-2.7-0.8-5.6-0.8H342.4z"/>
<path id="DIAMANTER-Copy" class="st0" d="M83.3,88.5l3.2-0.2c2.7-0.1,4.5-0.2,5.4-0.2c2.9,0,5.1,0.4,6.7,1.3s2.8,2.1,3.6,3.6
	c0.8,1.5,1.2,3.2,1.2,5.2c0,1.4-0.2,2.7-0.6,3.9s-1,2.2-1.8,2.9s-1.6,1.4-2.6,1.8c-1,0.4-1.9,0.7-2.8,0.8c-0.9,0.1-2.1,0.2-3.7,0.2
	h-8.6v-0.7h0.8c0.8,0,1.4-0.1,1.7-0.3s0.5-0.5,0.6-1c0.1-0.4,0.1-1.5,0.1-3.1v-9.4c0-1.5,0-2.5-0.1-3s-0.3-0.8-0.6-0.9
	c-0.3-0.2-0.9-0.3-1.9-0.3h-0.6V88.5z M89.3,88.9v13c0,1.9,0,3.2,0.1,3.7c0.1,0.6,0.3,0.9,0.6,1.2c0.4,0.2,1.1,0.3,2.3,0.3
	c1.7,0,3.1-0.2,4.2-0.7c1.1-0.5,2-1.4,2.7-2.7c0.7-1.4,1.1-3.1,1.1-5.2c0-1.6-0.2-3.1-0.6-4.4c-0.4-1.3-1-2.3-1.8-3.1
	c-0.8-0.8-1.7-1.4-2.6-1.6c-1-0.3-2.2-0.4-3.7-0.4C90.8,88.8,90.1,88.9,89.3,88.9z M108.6,89v-0.7h8.9V89H117c-1,0-1.6,0.1-1.9,0.2
	s-0.5,0.5-0.6,0.9c-0.1,0.4-0.2,1.4-0.2,3.1v9.5c0,1.5,0,2.5,0.1,3c0.1,0.5,0.3,0.8,0.6,1.1c0.3,0.2,0.9,0.3,1.8,0.3h0.6v0.7h-8.9
	v-0.7h0.6c0.8,0,1.4-0.1,1.7-0.3c0.3-0.2,0.5-0.5,0.6-1c0.1-0.4,0.1-1.5,0.1-3.1v-9.5c0-1.5,0-2.5-0.1-3s-0.3-0.8-0.6-0.9
	c-0.3-0.2-0.9-0.3-1.9-0.3H108.6z M133.7,100.6h-7.4l-0.5,1.2c-0.7,1.8-1.1,2.9-1.1,3.5c0,0.6,0.2,1,0.6,1.3
	c0.4,0.3,0.9,0.5,1.5,0.5v0.7h-5.8v-0.7c0.9-0.1,1.5-0.4,1.9-0.9c0.4-0.5,0.9-1.5,1.5-3c0-0.1,0.3-0.7,0.7-1.7l5.6-13.5h0.6
	l6.5,15.4l0.9,2c0.2,0.5,0.5,0.8,0.8,1.1c0.3,0.3,0.8,0.4,1.5,0.5v0.7h-7.6v-0.7c0.9,0,1.6-0.1,1.9-0.2s0.5-0.4,0.5-0.8
	c0-0.2-0.2-0.8-0.7-1.9L133.7,100.6z M133.4,100l-3.4-8.3l-3.4,8.3H133.4z M157.3,104.4l7.1-16.1h6V89h-0.7c-1,0-1.6,0.1-1.9,0.2
	s-0.5,0.5-0.6,0.9s-0.2,1.4-0.2,3.1v9.5c0,1.5,0,2.5,0.1,3c0.1,0.5,0.3,0.8,0.6,1.1c0.3,0.2,0.9,0.3,1.8,0.3h0.9v0.7h-9.3v-0.7h0.7
	c0.8,0,1.4-0.1,1.7-0.3s0.5-0.5,0.6-1c0.1-0.4,0.1-1.5,0.1-3.1V90.4l-7.7,17.4h-0.7l-7.7-17.4v11.4c0,1.6,0,2.6,0.1,3.2
	s0.4,1.1,0.9,1.5c0.5,0.4,1.2,0.7,2.1,0.7v0.7h-6.9v-0.7c0.8,0,1.5-0.3,2-0.7c0.5-0.4,0.8-0.9,1-1.5c0.1-0.6,0.2-1.7,0.2-3.3v-8.4
	c0-1.5,0-2.5-0.1-3s-0.3-0.8-0.6-0.9c-0.3-0.2-0.9-0.3-1.9-0.3h-0.5v-0.7h5.9L157.3,104.4z M186.4,100.6h-7.4l-0.5,1.2
	c-0.7,1.8-1.1,2.9-1.1,3.5c0,0.6,0.2,1,0.6,1.3c0.4,0.3,0.9,0.5,1.5,0.5v0.7h-5.8v-0.7c0.9-0.1,1.5-0.4,1.9-0.9
	c0.4-0.5,0.9-1.5,1.5-3c0-0.1,0.3-0.7,0.7-1.7l5.6-13.5h0.6l6.5,15.4l0.9,2c0.2,0.5,0.5,0.8,0.8,1.1s0.8,0.4,1.5,0.5v0.7h-7.6v-0.7
	c0.9,0,1.6-0.1,1.9-0.2c0.3-0.1,0.5-0.4,0.5-0.8c0-0.2-0.2-0.8-0.7-1.9L186.4,100.6z M186.2,100l-3.4-8.3l-3.4,8.3H186.2z
	 M214.5,108.2L200.8,90v13.5c0,1.1,0.1,1.9,0.2,2.2c0.1,0.4,0.4,0.7,0.9,1c0.5,0.3,1.3,0.4,2.3,0.4v0.7H197v-0.7
	c0.9-0.1,1.6-0.2,2.1-0.5c0.5-0.3,0.8-0.6,0.9-0.9c0.1-0.3,0.1-1.1,0.1-2.2V93.2c0-1.5-0.1-2.5-0.2-3c-0.1-0.5-0.4-0.8-0.7-1
	c-0.3-0.1-1-0.2-2-0.2v-0.7h5.7l11.5,15.2V91.9c0-0.9-0.1-1.5-0.3-1.8c-0.2-0.3-0.5-0.6-1.1-0.8s-1.2-0.3-2-0.3v-0.7h7V89
	c-0.8,0.1-1.5,0.2-1.9,0.5s-0.8,0.5-0.9,0.9s-0.2,0.9-0.2,1.8v16.1H214.5z M222.8,93h-0.7l0.1-4.7H241l0.1,4.7h-0.6
	c-0.2-1.3-0.5-2.2-0.9-2.8c-0.4-0.6-0.8-0.9-1.2-1c-0.4-0.1-1.2-0.2-2.2-0.2H233v13.7c0,1.5,0,2.5,0.1,3c0.1,0.5,0.3,0.8,0.6,1.1
	s0.9,0.3,1.8,0.3h0.9v0.7h-9.7v-0.7h1c0.8,0,1.4-0.1,1.7-0.3s0.5-0.5,0.6-1c0.1-0.4,0.1-1.5,0.1-3.1V89h-2.9c-1.2,0-2.1,0.1-2.5,0.2
	c-0.4,0.1-0.8,0.5-1.2,1.1C223.2,90.9,223,91.8,222.8,93z M261.4,101.7h0.7l-0.4,6h-16.1v-0.7h0.4c1,0,1.6-0.1,1.9-0.4
	c0.3-0.3,0.5-0.6,0.5-1c0.1-0.4,0.1-1.4,0.1-3v-9.5c0-1.5,0-2.5-0.1-2.9c-0.1-0.5-0.3-0.8-0.6-1c-0.3-0.2-0.9-0.3-1.8-0.3v-0.7h13.9
	l0.5,4.8h-0.7c-0.3-1.4-0.7-2.3-1.1-2.9c-0.4-0.6-1-0.9-1.6-1.1c-0.6-0.1-1.6-0.2-2.9-0.2h-2.7v8.1h2.1c0.9,0,1.6-0.1,2-0.2
	c0.4-0.2,0.6-0.4,0.7-0.7c0.1-0.3,0.2-1,0.2-1.9h0.7v6.6h-0.7c0-1.1-0.1-1.8-0.3-2.2c-0.2-0.4-0.4-0.6-0.8-0.7
	c-0.3-0.1-0.9-0.2-1.8-0.2h-2.1v4.6c0,2.3,0.1,3.7,0.4,4.1c0.3,0.4,1.1,0.6,2.4,0.6h1.4c1,0,1.9-0.1,2.5-0.4
	c0.7-0.3,1.3-0.8,1.9-1.6C260.6,104.3,261,103.1,261.4,101.7z M287.1,107.8h-5.2c-0.9-0.6-2.3-2.3-4.2-5.1c-0.6-0.9-1.2-1.7-1.9-2.5
	c-0.7-0.8-1.1-1.3-1.4-1.5c-0.2-0.2-0.6-0.3-1.2-0.3h-0.8v4.3c0,1.5,0,2.5,0.1,3c0.1,0.5,0.3,0.8,0.6,1.1c0.3,0.2,0.9,0.3,1.8,0.3
	h0.9v0.7h-9.3v-0.7h0.6c0.8,0,1.4-0.1,1.7-0.3s0.5-0.5,0.6-1c0.1-0.4,0.1-1.5,0.1-3.1v-9.5c0-1.5,0-2.5-0.1-3s-0.3-0.8-0.6-0.9
	c-0.3-0.2-0.9-0.3-1.9-0.3h-0.3v-0.7l2.8-0.1c1.9-0.1,3.3-0.1,4.4-0.1c1.9,0,3.4,0.2,4.5,0.5c1.2,0.3,2.1,0.9,2.8,1.7
	c0.7,0.8,1.1,1.7,1.1,2.8c0,1.3-0.5,2.4-1.4,3.2s-2.3,1.5-4.1,1.7c0.8,0.4,2.1,1.8,3.9,4.2c1.5,2,2.6,3.3,3.5,3.9s1.8,0.9,3,1V107.8
	z M272.5,97.7c0.7,0,1.5,0,2.2-0.1c0.8,0,1.4-0.1,2-0.3c0.6-0.2,1-0.4,1.4-0.8c0.3-0.3,0.6-0.8,0.8-1.3c0.2-0.5,0.3-1.2,0.3-2
	c0-1.4-0.3-2.5-1-3.3s-2.2-1.2-4.5-1.2c-0.4,0-0.8,0-1.2,0.1V97.7z"/>
</svg>
