<svg enable-background="new 0 0 1200 317.75" viewBox="0 0 1200 317.75" xmlns="http://www.w3.org/2000/svg"><g fill="#fff"><path d="m602.4 118.67c.55.03 1.1.07 1.65.1v125.44h24.02c0-53.17 0-105.84 0-158.61-14.55 0-28.67 0-43.22 0-3.94 39.75-7.83 79.07-11.73 118.38-1.37-1.82-1.7-3.71-1.87-5.62-3.15-35.95-6.33-71.91-9.35-107.87-.36-4.33-2.16-5.57-6.35-5.47-10.86.26-21.74.36-32.59-.03-5.35-.19-6.97 1.32-6.95 6.82.21 48.84.12 97.68.14 146.52 0 1.98.21 3.96.32 5.87h25.48c0-41.83 0-83.18 0-124.52.33-.02.66-.03 1-.05 5.32 41.58 10.64 83.16 15.95 124.64h27.28c5.45-42.11 10.83-83.85 16.22-125.6z"/><path d="m782.11 84.52v159.16c15.94 0 31.68 1.14 47.19-.31 17.18-1.6 24.89-11.06 25.03-28.12.26-33.65.28-67.31-.01-100.97-.14-16.41-7.41-25.59-23.64-27.56-15.87-1.93-32.02-1.54-48.57-2.2z"/><path d="m1097.35 243.59c16.75 0 32.51 1.05 48.07-.29 15.54-1.34 22.58-9.99 24.06-25.45.25-2.6.34-5.22.35-7.84.03-18.51.06-37.01 0-55.52-.05-14.2.31-28.43-.49-42.6-.86-15.27-7.69-23.23-22.94-25.12-13.85-1.72-27.98-.99-41.97-1.76-5.63-.31-7.24 1.36-7.22 7.12.24 48.6.14 97.2.14 145.8z"/><path d="m469.19 199.77c1.96 15.17 3.87 29.91 5.76 44.53h27.82c-.19-2.64-.25-4.87-.53-7.07-6.27-49.12-12.62-98.23-18.76-147.36-.5-4.01-2.19-4.86-5.76-4.81-10.86.15-21.72.03-32.58.08-1.61.01-3.22.32-4.88.5-7.49 53.14-14.91 105.79-22.37 158.73h27.21c2.05-14.99 4.07-29.71 6.11-44.61 6.12.01 11.68.01 17.98.01z"/><path d="m930.58 85.12c-12.7 0-24.84.15-36.98-.08-4.21-.08-5.71 1.23-6.31 5.55-6.06 44.06-12.38 88.08-18.6 132.12-1.01 7.12-1.87 14.26-2.85 21.74h26.75c.37-1.56.84-2.97 1.04-4.41 1.59-11.85 3.28-23.7 4.59-35.58.42-3.77 1.73-5.02 5.56-5.04 13.56-.08 13.56-.22 15.03 13.37.06.56.07 1.12.14 1.68 1.3 9.96 2.6 19.92 3.9 29.86h28.04c-6.77-53.06-13.48-105.68-20.31-159.21z"/><path d="m973.23 244.37c1.77.11 3.56.31 5.36.32 9.93.03 19.86-.15 29.78.1 3.91.1 5.38-.85 5.96-5.07 5.29-38.13 10.91-76.22 16.39-114.33 1.9-13.21 3.69-26.44 5.62-40.25-7.91 0-15.19.16-22.46-.06-3.78-.11-4.79 1.65-5.03 5-.35 4.84-1.12 9.65-1.66 14.48-3.96 34.92-7.9 69.83-11.88 104.75-.16 1.36-.6 2.69-.91 4.04-.24-.11-.47-.21-.71-.32-4.75-42.45-9.51-84.91-14.27-127.44-9.8 0-18.68 0-28.01 0 7.29 53.04 14.51 105.59 21.82 158.78z"/><path d="m675.59 179.63c6.35-.45 11.94-.7 17.5-1.27 18.71-1.92 27.46-11.53 27.56-30.22.06-11.23.1-22.46-.01-33.69-.16-15.99-7.2-25.3-22.96-27.61-11.59-1.7-23.5-1.28-35.27-1.69-4.61-.16-9.23-.03-13.93-.03v159.22h27.1c.01-21.63.01-42.9.01-64.71z"/><path d="m406.75 138.73c0-11.44.61-22.31-.16-33.08-.84-11.73-7.39-19.06-18.55-20.83-7.47-1.18-15.36-1.53-22.83-.53-17.5 2.34-26.31 12.3-26.48 29.86-.32 34.04-.33 68.08.04 102.12.13 12.34 4.88 22.72 17.5 27.48 11.81 4.45 23.84 4.57 35.76.56 7.62-2.56 13.24-7.74 13.88-16.02.9-11.52.86-23.12 1.01-34.7.01-.94-1.61-2.7-2.52-2.73-7.04-.23-14.1-.13-21.77-.13 0 9.47.14 18.21-.04 26.95-.15 7.26-5.39 10.84-11.67 8.21-4.23-1.77-4.56-5.52-4.56-9.38 0-34.6 0-69.2.01-103.81 0-1.12.01-2.25.15-3.36.55-4.44 3.21-6.53 7.57-6.69 5.64-.21 8.4 2.41 8.5 8.63.15 9.09.04 18.18.04 27.45z"/><path d="m1051.24 85.54v158.73h26.76c0-53.05 0-105.68 0-158.73-9.02 0-17.72 0-26.76 0z"/></g><path d="m602.4 118.67c-5.39 41.75-10.77 83.49-16.21 125.61-9.05 0-17.75 0-27.28 0-5.31-41.48-10.63-83.06-15.95-124.64-.33.02-.66.03-1 .05v124.52c-8.65 0-16.76 0-25.48 0-.11-1.92-.32-3.9-.32-5.87-.02-48.84.08-97.68-.14-146.52-.02-5.5 1.6-7.01 6.95-6.82 10.85.39 21.73.29 32.59.03 4.19-.1 5.99 1.14 6.35 5.47 3.02 35.97 6.2 71.92 9.35 107.87.17 1.91.49 3.8 1.87 5.62 3.89-39.32 7.79-78.63 11.73-118.38h43.22v158.61c-7.63 0-15.39 0-24.02 0 0-41.69 0-83.57 0-125.44-.56-.04-1.11-.08-1.66-.11z"/><path d="m782.11 84.52c16.55.65 32.7.27 48.57 2.2 16.23 1.98 23.5 11.15 23.64 27.56.29 33.65.28 67.31.01 100.97-.13 17.06-7.85 26.52-25.03 28.12-15.51 1.45-31.25.31-47.19.31 0-52.26 0-104.9 0-159.16zm27.71 139.74c13.05 1.73 16.85-1.47 16.86-13.7.01-30.87.01-61.74 0-92.62 0-12.14-4.09-15.41-16.86-13.23z"/><path d="m1169.34 111.9c-.86-15.27-7.69-23.23-22.94-25.12-13.85-1.71-27.99-.99-41.97-1.76-5.64-.31-7.25 1.37-7.22 7.12.24 48.6.14 97.2.14 145.8v5.65c16.75 0 32.51 1.04 48.07-.28 15.54-1.34 22.58-9.99 24.06-25.45.25-2.6.35-5.23.35-7.84.03-18.51.06-37.01 0-55.52-.05-14.21.31-28.44-.49-42.6zm-27.34 98.68c-.03 12.38-3.82 15.46-16.86 13.67 0-39.83 0-79.72 0-119.56 12.74-2.17 16.82 1.01 16.85 13.28.08 30.87.07 61.74.01 92.61z"/><path d="m973.23 244.37c-7.31-53.19-14.54-105.74-21.83-158.8h28.01c4.76 42.53 9.52 84.98 14.27 127.44.24.11.47.21.71.32.31-1.34.75-2.67.91-4.04 3.98-34.91 7.92-69.83 11.88-104.75.55-4.83 1.31-9.64 1.66-14.48.24-3.35 1.25-5.11 5.03-5 7.27.22 14.56.06 22.46.06-1.92 13.81-3.72 27.04-5.62 40.25-5.48 38.11-11.1 76.2-16.39 114.33-.59 4.22-2.06 5.17-5.96 5.07-9.92-.25-19.85-.07-29.78-.1-1.78.01-3.57-.19-5.35-.3z"/><path d="m406.75 138.73c-8.1 0-15.7 0-24.11 0 0-9.27.11-18.36-.04-27.45-.1-6.23-2.87-8.85-8.5-8.63-4.36.16-7.02 2.26-7.57 6.69-.14 1.11-.15 2.24-.15 3.36-.01 34.6 0 69.2-.01 103.81 0 3.87.32 7.61 4.56 9.38 6.27 2.63 11.51-.95 11.67-8.21.19-8.74.04-17.48.04-26.95 7.67 0 14.72-.1 21.77.13.91.03 2.53 1.79 2.52 2.73-.15 11.57-.12 23.17-1.01 34.7-.64 8.27-6.27 13.46-13.88 16.02-11.92 4.01-23.95 3.9-35.76-.56-12.62-4.76-17.37-15.14-17.5-27.48-.37-34.04-.36-68.08-.04-102.12.16-17.56 8.98-27.52 26.48-29.86 7.47-1 15.36-.65 22.83.53 11.16 1.76 17.71 9.1 18.55 20.83.76 10.76.15 21.63.15 33.08z"/><path d="m1051.24 85.54h26.76v158.73c-8.84 0-17.54 0-26.76 0 0-52.65 0-105.41 0-158.73z"/><g fill="#fff"><path d="m240.83 86.74c-9.97-2.04-10.65-1.69-15.58 6.04-3.11 4.87-6.01 9.99-9.8 14.29-13.63 15.43-27.59 30.56-41.44 45.78-3.75 4.13-7.56 8.21-12.01 13.05-1.46-1.82-2.54-3.32-3.78-4.69-14.08-15.52-28.38-30.86-42.2-46.61-6.13-6.98-11.55-14.62-16.85-22.27-4.77-6.89-7.29-8.03-15.37-5.33-2.09 7.14.64 12.09 6.4 16.26 4.21 3.05 8.02 6.77 11.57 10.6 16.78 18.13 33.4 36.4 50.07 54.63 1.24 1.35 2.39 2.77 3.75 4.35-1.39 1.63-2.54 3.08-3.78 4.44-18.74 20.64-37.66 41.13-56.13 62.02-4.43 5.01-7.39 11.32-11.02 17.03.61.54 1.23 1.09 1.84 1.63 5.55-4.49 11.69-8.41 16.53-13.56 18.46-19.63 36.53-39.63 54.67-59.55 1.45-1.6 2.43-3.62 3.78-5.67 2.78 2.93 4.21 4.39 5.59 5.9 18.96 20.7 37.77 41.54 57 61.99 3.97 4.23 9.5 7 14.31 10.45.6-.6 1.19-1.19 1.79-1.79-4.56-6.47-8.58-13.42-13.79-19.31-17.36-19.62-35.15-38.86-52.76-58.25-1.58-1.74-3.08-3.55-4.67-5.39 1.92-2.15 3.37-3.84 4.91-5.46 20.56-21.74 40.85-43.74 61.91-64.99 4.92-5 6.48-9.4 5.06-15.59z"/><path d="m41.17 140.34v6.79c-1.2-.36-2.02-.61-2.83-.85 1.33 2.72 3.21 4.36 5.23 5.8 6.3 4.52 7.42 9.86 3.5 16.43-1.52 2.55-3.14 5.16-4.02 7.96-3.01 9.51 2.43 16.38 12.43 16.05 1.44-.05 2.89-.01 4.98-.01-.48 3.04-.91 5.73-1.32 8.43-.71 4.74-1.38 9.48-2.09 14.22-.81 5.41 4.01 6.77 7.12 8.79 1.03.67 4.26-2.05 6.49-3.23-1.4-1.39-2.63-3.68-4.24-3.98-3.17-.59-4.75-2.36-3.75-4.88 1.17-2.95 3.08-6.9 5.58-7.75 4.18-1.41 6.81-3.21 7.91-7.71.65 2.16.36 4.16.74 6.01.33 1.62 1.01 3.8 2.25 4.5 3.86 2.2 8.01 3.91 12.13 5.63 3.48 1.46 7.24-.98 7.47-4.56.32-4.8-2.95-3.64-5.82-3.99-2.56-.31-5.68-1.13-7.23-2.89-1.1-1.25-.79-4.94.29-6.66 2.94-4.69 2.47-8.3-2.1-11.23-5.22-3.34-.24-6.96-.19-10.41 0-.29 4.07-.79 6.24-.72 3.85.14 7.68.8 11.53.88 1.02.02 2.63-1.08 2.99-2.04 1.03-2.71.07-5.37-2.01-7.17-.8-.7-3.22-.78-3.97-.11-4.2 3.76-7.68 1.38-10.53-.06 4.71-5.3 9.49-10.51 14.05-15.9 1.29-1.53 2.59-3.6 2.62-5.45.02-1.25-2.32-3.65-3.36-3.53-1.65.2-3.18 1.99-4.63 3.26-3.6 3.19-7.03 6.58-10.75 9.62-.89.72-3.02.94-3.98.37-3.1-1.85-5.92-4.17-8.92-6.37 1.31-.28 2.69-.57 2.99-.63-.85-2.75-1.58-5.1-2.31-7.45h8.88c.35-.52 1.35-2.01 2.35-3.49-.86.66-1.71 1.32-2.57 1.98-1.53-2.85-2.95-5.77-4.62-8.54-3.57-5.93-9.74-5.34-15.26-5.19-1.91.05-4.39 2.69-5.45 4.74-1.54 3-1.34 7.31-2.28 9.83-3.93 10.49 1.4 18.65 5.7 26.3 5 8.88 6.51 13.25 1.43 22.1-2.89 5.04-6.21 6.43-10.96 4.58-4.91-1.91-7.42-6.66-5.7-11.83.92-2.77 2.63-5.33 4.27-7.79 3.64-5.46 4.22-11.02 1.21-16.93-1.4-2.75-2.66-5.57-4-8.38-2.48 2.11-2.48 2.11-5.49-4.54z"/><path d="m277.87 145.68c-.73 1.69-1.26 3.5-2.24 5.03-4.99 7.8-4.2 14.93 1.42 22.23 1.87 2.43 3.12 6.38 2.61 9.29-.48 2.77-3.14 5.98-5.72 7.32-2.17 1.13-6.3.87-8.33-.54-5.84-4.07-7.59-17.3-3.69-23.2 1.37-2.07 3.38-3.82 4.3-6.04 2.88-7 8.19-13.72 3.55-21.97-.26-.47-.62-1.33-.43-1.53 4.43-4.75-2.51-6.94-2.6-10.8-.03-1.1-3.52-3.09-5.33-2.99-5.64.3-11.51.62-15.14 6.28-1.45 2.26-3.49 4.14-5.58 6.57.7.98 1.74 2.43 2.78 3.87.12-.55.23-1.1.35-1.65h7.25c-.7 2.59-1.4 5.19-2.13 7.88.45.06 1.75.23 3.48.45-3.88 2.55-7.23 4.75-12 7.89-3.82-3.78-8.05-8.06-12.4-12.21-1.11-1.06-2.8-2.59-3.88-2.35-1.38.3-3.47 2.25-3.39 3.35.15 1.97 1.35 4.13 2.7 5.71 4.51 5.31 9.28 10.4 13.88 15.49-3.17 1.68-6.66 3.64-10.74.17-.65-.55-3.83.64-4.66 1.84-1.04 1.51-1.51 4.06-.97 5.77.31.99 3.1 1.78 4.72 1.69 5.26-.3 10.49-1.05 15.64-1.61.89 3.59 1.65 6.64 2.38 9.61-6.53 5.28-7.35 7.8-5.17 12.67.96 2.15 2.01 5.81.98 6.96-1.66 1.85-5 2.21-7.64 3.17-1.96.71-4.29.95-5.78 2.2-.71.6-.45 3.94.39 4.48 1.85 1.19 4.66 2.39 6.49 1.8 4.91-1.6 9.99-3.51 14.01-6.59 1.74-1.33 1.03-5.85 1.49-8.91.02-.14.6-.19 1.28-.4.3 4.57 2.84 6.33 7.24 7.69 2.42.74 3.89 5.36 5.14 8.49.26.64-2.3 2.49-3.65 3.68-1.4 1.23-2.95 2.29-4.3 3.56-.14.13.55 1.69 1.05 1.82 2.26.59 5.15 1.97 6.78 1.11 3.66-1.93 7.36-4.54 6.03-9.98-.83-3.37-1.17-6.87-1.75-10.3-.57-3.36-1.16-6.71-1.82-10.46 2.37.15 3.66.27 4.95.31 10.01.33 15.38-6.59 12.23-16.06-.93-2.79-2.52-5.4-4.03-7.96-3.72-6.3-2.63-11.59 3.38-15.99 1.78-1.3 3.44-2.76 5.06-4.25.27-.25.04-1.04.04-1.61-.74.26-1.42.5-2.03.72-.25-2.43-.48-4.77-.72-7.11-2.4 6.83-2.4 6.83-5.48 5.41z"/><path d="m187.35 239.86c-7.02-1.88-9.38.92-8.05 9.39 1.64-.69 3.4-1.43 5.17-2.17-.08 2.36.69 5.26-.41 6.98-3.97 6.25-14.16 6.54-18.19.44-1.33-2.01-.66-5.35-.9-8.09 2 .78 4 1.55 6.08 2.36 5.69-11.01 5.65-11.12-3.95-11.4-1.57-3.62-2.99-6.86-4.4-10.11-.78.1-1.57.2-2.35.3-1.15 3.34-2.3 6.68-3.15 9.18-2.84.91-7.74 1.94-7.69 2.54.31 3.56 1.77 7.02 2.54 9.54 2.71-1.08 4.58-1.83 6.45-2.58.04 2.42.91 5.25-.05 7.19-3.19 6.47-13.28 7.35-18.1 1.5-1.46-1.77-1.26-4.92-1.81-7.44 2.04.48 4.07.97 6.01 1.43.29-9.25-1.24-10.97-8.16-9.25-2.02-2.47-3.91-4.78-5.8-7.08-.52.3-1.04.61-1.55.91.25 2.69.5 5.39.74 8.08-.48-.11-.95-.23-1.43-.34-.6 2.49-1.82 5.05-1.58 7.45.18 1.82 2.24 3.46 3.66 5.46.64-2.26 1.05-3.71 1.64-5.79 4.41 3.08 5.55 6.57 2.65 9.89-3.35 3.82-2.15 6.9-.91 9.29h56.07c.94-2.66 2.08-5.72-1.16-9.29-3.07-3.38-1.49-6.98 3.27-8.85.36 1.55.7 3.03 1.08 4.62 6.05-7.15 6.09-8.19.94-12.33.18-2.9.34-5.53.5-8.16-.62-.25-1.24-.5-1.85-.75-1.64 2.18-3.28 4.37-5.31 7.08z"/><path d="m182.92 79.15c.5-.17.99-.34 1.49-.5-.53-3.8-.9-7.62-1.7-11.36-.2-.92-1.67-2-2.73-2.23-11.4-2.48-22.73-2.78-33.43 2.71-10.08 5.17-15.39 13.6-14.89 24.98.5 11.41 6.44 19.92 17.2 23.23 7.27 2.24 15.39 2.58 23.09 2.34 10.41-.33 12.66-3.43 13.57-16.47-2.2 2.44-3.61 3.78-4.76 5.32-8.45 11.36-23.7 11.24-31.7-.35-4.88-7.07-5.58-15.02-4-23.13 1.77-9.13 8.13-15.51 15.99-16.83 9.2-1.56 14.74 1.45 20.33 10.98.33.54 1.02.87 1.54 1.31z"/></g><path d="m173.61 178.15c-1.58-1.74-3.08-3.55-4.67-5.39 1.93-2.14 3.38-3.84 4.91-5.46 20.56-21.74 40.85-43.74 61.91-64.99 4.93-4.97 6.49-9.37 5.07-15.57-9.96-2.04-10.64-1.7-15.59 6.02-3.11 4.87-6 9.99-9.8 14.29-13.63 15.42-27.59 30.55-41.44 45.78-3.75 4.13-7.55 8.21-12.01 13.05-1.46-1.82-2.54-3.32-3.78-4.69-14.08-15.52-28.38-30.86-42.2-46.61-6.12-6.98-11.55-14.62-16.85-22.27-4.76-6.89-7.29-8.03-15.37-5.33-2.09 7.14.64 12.09 6.4 16.26 4.22 3.05 8.02 6.77 11.57 10.6 16.77 18.13 33.4 36.4 50.07 54.63 1.23 1.35 2.39 2.77 3.75 4.35-1.39 1.63-2.54 3.08-3.78 4.44-18.74 20.65-37.66 41.14-56.13 62.02-4.43 5.01-7.38 11.32-11.02 17.03.61.54 1.23 1.09 1.84 1.63 5.54-4.49 11.69-8.41 16.53-13.56 18.46-19.63 36.52-39.63 54.67-59.55 1.46-1.59 2.44-3.62 3.78-5.67 2.78 2.93 4.21 4.39 5.59 5.9 18.97 20.7 37.77 41.54 57 61.99 3.98 4.23 9.5 7.01 14.31 10.45.6-.6 1.19-1.19 1.79-1.79-4.56-6.46-8.58-13.42-13.79-19.31-17.36-19.62-35.15-38.86-52.76-58.25zm58.39-85.66c.42-.52 1.95-.16 2.97-.2.04 1.01.53 2.45.05 2.95-2.59 2.69-5.43 5.13-8.18 7.66-.48-.43-.97-.86-1.45-1.29 2.17-3.06 4.25-6.2 6.61-9.12zm-134.16 10.31c-2.7-2.37-5.51-4.63-8-7.2-.58-.6-.07-2.26-.06-3.43 1.14.25 2.76.11 3.34.82 2.19 2.68 4.04 5.64 6.02 8.49-.43.44-.87.88-1.3 1.32z"/><path d="m41.17 140.34c3.01 6.65 3.01 6.65 5.49 4.58 1.34 2.82 2.6 5.63 4 8.38 3 5.91 2.43 11.47-1.21 16.93-1.64 2.46-3.35 5.02-4.27 7.79-1.72 5.17.8 9.92 5.7 11.83 4.75 1.85 8.07.46 10.96-4.58 5.08-8.85 3.57-13.22-1.43-22.1-4.3-7.65-9.63-15.81-5.7-26.3.94-2.52.74-6.83 2.28-9.83 1.05-2.05 3.54-4.69 5.45-4.74 5.52-.15 11.69-.74 15.26 5.19 1.67 2.77 3.08 5.69 4.62 8.54.86-.66 1.71-1.32 2.57-1.98-1 1.48-2 2.97-2.35 3.49-3.61 0-6.24 0-8.88 0 .73 2.35 1.46 4.7 2.31 7.45-.31.06-1.68.36-2.99.63 3 2.2 5.82 4.52 8.92 6.37.95.57 3.09.35 3.98-.37 3.72-3.03 7.15-6.43 10.75-9.62 1.44-1.28 2.97-3.07 4.63-3.26 1.04-.12 3.38 2.28 3.36 3.53-.03 1.84-1.33 3.92-2.62 5.45-4.55 5.4-9.33 10.6-14.05 15.9 2.84 1.43 6.33 3.81 10.53.06.75-.67 3.17-.59 3.97.11 2.08 1.81 3.04 4.46 2.01 7.17-.36.96-1.97 2.06-2.99 2.04-3.85-.08-7.68-.74-11.53-.88-2.16-.08-6.23.42-6.24.72-.06 3.44-5.04 7.06.19 10.41 4.57 2.92 5.03 6.53 2.1 11.23-1.08 1.73-1.39 5.41-.29 6.66 1.55 1.76 4.67 2.58 7.23 2.89 2.88.35 6.14-.82 5.82 3.99-.24 3.58-3.99 6.02-7.47 4.56-4.11-1.72-8.27-3.43-12.13-5.63-1.23-.7-1.91-2.88-2.25-4.5-.38-1.86-.09-3.85-.74-6.01-1.1 4.5-3.73 6.3-7.91 7.71-2.5.85-4.41 4.8-5.58 7.75-1 2.52.58 4.29 3.75 4.88 1.6.3 2.84 2.59 4.24 3.98-2.23 1.17-5.46 3.89-6.49 3.23-3.1-2.01-7.93-3.37-7.12-8.79.71-4.74 1.38-9.48 2.09-14.22.4-2.7.84-5.39 1.32-8.43-2.1 0-3.54-.04-4.98.01-10 .33-15.43-6.54-12.43-16.05.89-2.8 2.5-5.41 4.02-7.96 3.92-6.57 2.8-11.92-3.5-16.43-2.02-1.45-3.9-3.09-5.23-5.8.82.25 1.63.49 2.83.85 0-2.37 0-4.6 0-6.83z"/><path d="m277.87 145.68c3.07 1.41 3.07 1.41 5.5-5.42.24 2.34.47 4.68.72 7.11.61-.22 1.29-.46 2.03-.72 0 .57.23 1.36-.04 1.61-1.62 1.49-3.29 2.95-5.06 4.25-6.01 4.41-7.1 9.69-3.38 15.99 1.51 2.56 3.1 5.17 4.03 7.96 3.15 9.46-2.22 16.38-12.23 16.06-1.29-.04-2.58-.16-4.95-.31.65 3.75 1.25 7.1 1.82 10.46.58 3.44.92 6.93 1.75 10.3 1.34 5.43-2.37 8.04-6.03 9.98-1.63.86-4.52-.52-6.78-1.11-.5-.13-1.19-1.7-1.05-1.82 1.35-1.28 2.9-2.33 4.3-3.56 1.35-1.19 3.91-3.03 3.65-3.68-1.25-3.13-2.72-7.74-5.14-8.49-4.4-1.35-6.95-3.11-7.24-7.69-.68.2-1.26.26-1.28.4-.46 3.06.25 7.57-1.49 8.91-4.02 3.08-9.1 5-14.01 6.59-1.83.6-4.65-.61-6.49-1.8-.83-.54-1.1-3.88-.39-4.48 1.49-1.25 3.82-1.5 5.78-2.2 2.64-.95 5.99-1.31 7.64-3.17 1.03-1.15-.02-4.81-.98-6.96-2.18-4.86-1.36-7.38 5.17-12.67-.74-2.97-1.49-6.01-2.38-9.61-5.15.57-10.39 1.31-15.64 1.61-1.62.09-4.41-.7-4.72-1.69-.53-1.71-.07-4.26.97-5.77.83-1.2 4.01-2.39 4.66-1.84 4.08 3.47 7.57 1.51 10.74-.17-4.59-5.09-9.37-10.18-13.88-15.49-1.35-1.58-2.55-3.73-2.7-5.71-.08-1.1 2-3.05 3.39-3.35 1.09-.24 2.77 1.29 3.88 2.35 4.35 4.15 8.58 8.43 12.4 12.21 4.77-3.13 8.12-5.34 12-7.89-1.73-.23-3.03-.39-3.48-.45.73-2.7 1.43-5.29 2.13-7.88-2.42 0-4.83 0-7.25 0-.12.55-.23 1.1-.35 1.65-1.04-1.45-2.08-2.89-2.78-3.87 2.09-2.43 4.12-4.31 5.58-6.57 3.63-5.66 9.5-5.97 15.14-6.28 1.81-.1 5.31 1.89 5.33 2.99.09 3.87 7.03 6.06 2.6 10.8-.19.21.16 1.07.43 1.53 4.65 8.25-.66 14.97-3.55 21.97-.92 2.22-2.94 3.98-4.3 6.04-3.9 5.9-2.15 19.13 3.69 23.2 2.03 1.41 6.16 1.67 8.33.54 2.58-1.34 5.24-4.55 5.72-7.32.5-2.91-.74-6.86-2.61-9.29-5.62-7.3-6.41-14.43-1.42-22.23.97-1.51 1.49-3.33 2.22-5.02z"/><path d="m187.35 239.86c2.03-2.71 3.67-4.89 5.3-7.08.62.25 1.24.5 1.85.75-.16 2.63-.32 5.26-.5 8.16 5.15 4.15 5.12 5.19-.94 12.33-.37-1.6-.72-3.08-1.08-4.62-4.76 1.87-6.35 5.47-3.27 8.85 3.24 3.57 2.1 6.64 1.16 9.29-18.74 0-36.95 0-56.07 0-1.24-2.39-2.44-5.46.91-9.29 2.9-3.32 1.76-6.81-2.65-9.89-.59 2.08-1 3.53-1.64 5.79-1.42-2-3.48-3.64-3.66-5.46-.24-2.41.99-4.96 1.58-7.45.48.11.95.23 1.43.34-.25-2.69-.5-5.39-.74-8.08.52-.3 1.04-.61 1.55-.91 1.89 2.31 3.78 4.61 5.8 7.08 6.92-1.72 8.45 0 8.16 9.25-1.94-.46-3.97-.95-6.01-1.43.56 2.52.35 5.67 1.81 7.44 4.82 5.84 14.91 4.97 18.1-1.5.95-1.94.08-4.77.05-7.19-1.87.75-3.75 1.5-6.45 2.58-.77-2.52-2.23-5.98-2.54-9.54-.05-.61 4.85-1.64 7.69-2.54.86-2.5 2.01-5.84 3.15-9.18.78-.1 1.57-.2 2.35-.3 1.41 3.24 2.83 6.49 4.4 10.11 9.6.27 9.65.39 3.95 11.4-2.08-.81-4.08-1.59-6.08-2.36.24 2.73-.43 6.07.9 8.09 4.03 6.1 14.22 5.81 18.19-.44 1.09-1.72.32-4.62.41-6.98-1.76.74-3.53 1.48-5.17 2.17-1.31-8.48 1.05-11.27 8.06-9.39z"/><path d="m182.92 79.15c-.52-.44-1.21-.77-1.54-1.32-5.59-9.53-11.13-12.54-20.33-10.98-7.86 1.33-14.22 7.7-15.99 16.83-1.57 8.11-.88 16.07 4 23.13 8 11.59 23.25 11.71 31.7.35 1.15-1.54 2.56-2.88 4.76-5.32-.91 13.05-3.16 16.15-13.57 16.47-7.7.24-15.82-.1-23.09-2.34-10.76-3.32-16.7-11.82-17.2-23.23-.5-11.38 4.81-19.81 14.89-24.98 10.7-5.49 22.03-5.19 33.43-2.71 1.06.23 2.53 1.31 2.73 2.23.8 3.74 1.17 7.57 1.7 11.36-.5.17-.99.34-1.49.51z"/><path d="m502.24 237.24c-6.27-49.12-12.62-98.23-18.76-147.36-.5-4.01-2.19-4.86-5.76-4.81-10.86.16-21.72.04-32.58.08-1.61 0-3.22.32-4.88.5-7.49 53.14-14.91 105.79-22.37 158.73h27.21c2.06-14.99 4.07-29.71 6.11-44.61h17.98c1.96 15.16 3.87 29.91 5.76 44.54h27.82c-.19-2.64-.25-4.87-.53-7.07zm-48.56-59.6c2.02-21.44 4.01-42.47 5.99-63.51.44.01.88.02 1.32.03 2.05 20.9 4.09 41.8 6.2 63.48-4.78 0-8.78 0-13.51 0z"/><path d="m930.58 85.12c-12.7 0-24.85.14-36.98-.1-4.21-.07-5.72 1.23-6.31 5.55-6.06 44.06-12.38 88.08-18.6 132.12-1.01 7.12-1.87 14.26-2.85 21.74h26.75c.38-1.56.85-2.97 1.04-4.41 1.59-11.85 3.28-23.69 4.59-35.58.41-3.77 1.73-5.02 5.56-5.04 13.56-.07 13.56-.21 15.03 13.37.06.56.07 1.12.14 1.68 1.29 9.96 2.6 19.92 3.9 29.86h28.04c-6.76-53.04-13.48-105.65-20.31-159.19zm-29.14 92.41c2.04-22.27 4.08-44.46 6.12-66.66.62.04 1.24.07 1.86.1 1.83 22.03 3.67 44.06 5.54 66.56-4.51 0-8.51 0-13.52 0z"/><path d="m720.65 114.45c-.16-15.99-7.2-25.3-22.96-27.61-11.59-1.7-23.5-1.28-35.27-1.69-4.61-.17-9.23-.03-13.93-.03v159.22h27.1c0-21.63 0-42.9 0-64.71 6.35-.45 11.94-.7 17.51-1.27 18.7-1.91 27.45-11.52 27.56-30.22.07-11.23.1-22.46-.01-33.69zm-27.73 31.13c-.03 12.08-4.34 15.56-16.99 13.21 0-18.17 0-36.04.01-53.85 11.97-2.88 16.94.88 16.98 12.62.03 9.34.02 18.68 0 28.02z"/></svg>