<svg height="218" viewBox="0 0 218 218" width="218" xmlns="http://www.w3.org/2000/svg"><g fill="none"><path d="m.7 217.2h216.5v-216.5h-216.5z" fill="#1aade4"/><g fill="#fff"><path d="m133 48.7v-14.9h16.5c2 0 2.1 1.8 1.1 2.4zm29.4-5c7.9-5.4 7.1-23.8-7.6-23.8h-35.5v57.5h13.7v-12.4l6.7-5 11.5 17.4h16l-16.8-25.1z"/><path d="m51.2 36.2-17.6 12.5v-15h16.5c2 0 2.1 1.8 1.1 2.5zm4.2-16.4h-35.6v57.6h13.8v-12.4l29.4-21.3c7.9-5.5 7.1-23.9-7.6-23.9z"/><path d="m102.7 19.8v39.1c0 4.8-2.4 4.5-6.1 4.5h-7c-3.7 0-6.1.3-6.1-4.5v-39.1h-14v38.5c0 6.3.6 11.3 2.3 13.6 2.5 3.3 7.6 5.5 13.7 5.5h15.2c6.1 0 11.2-2.2 13.7-5.5 1.8-2.3 2.3-7.3 2.3-13.6v-38.5z"/></g><g fill="#d3dade"><path d="m87.5 154.3c-1.9 0-2.1 1.8-1.1 2.5l24.6 15.8c9.5 6.3 9.5 25.4-6.9 25.4-.4 0-33.4 0-34.4 0v-13.9h28.4c2.5 0 3.3-1.8 1.2-3.3l-24.6-16.5c-7.9-5.5-7.1-23.8 7.5-23.8h29.9v13.8z"/><path d="m33.6 169.3v-14.9h16.5c1.9 0 2.1 1.8 1.1 2.5zm29.3-5c7.9-5.4 7.1-23.8-7.5-23.8h-35.6v57.5h13.8v-12.4l6.7-5 11.4 17.4h16.1l-16.9-25z"/><path d="m169.6 140.5-20.8 27.4 19.9 30.1h-16.1l-13-21-6.7 8.4v12.6h-13.8v-57.5h13.8v26.1l21.2-26.1z"/><path d="m97 123.9h-7c-3.7-.1-6.1.3-6.1-4.5v-20.6c0-4.8 2.4-4.4 6.1-4.4h7c3.7 0 6.1-.4 6.1 4.4v20.6c0 4.8-2.4 4.4-6.1 4.5zm17.9-38.1c-2.6-3.3-7.7-5.5-13.8-5.5h-15.2c-6.1 0-11.2 2.2-13.8 5.5-1.7 2.3-2.2 7.3-2.2 13.7v19.2c0 6.4.5 11.4 2.2 13.7 2.6 3.3 7.7 5.5 13.8 5.5h15.2c6.1 0 11.2-2.2 13.8-5.5 1.7-2.3 2.2-7.3 2.2-13.7v-19.2c0-6.4-.5-11.4-2.2-13.7z"/><path d="m56.3 137.9-22.6-33.4v33.4h-13.9v-57.6h14s18.7 27.4 19.6 28.6v-28.6h13.8v57.6z"/></g><path d="m177.3 189.7h2.8c1.3 0 2-.6 2-1.7 0-1.2-.7-1.8-1.9-1.8h-2.9zm2.7 1.1h-2.7v4h-1.3v-9.7h4.4c1 0 1.8.3 2.3.9.4.5.7 1.1.7 1.9 0 1.4-.8 2.4-2.1 2.8l2.4 4.1h-1.5zm-.6-8.1c-4 0-7.2 3.3-7.2 7.3 0 3.9 3.2 7.2 7.2 7.2s7.2-3.3 7.2-7.2c0-4-3.2-7.3-7.2-7.3zm0 15.7c-4.7 0-8.4-3.8-8.4-8.4 0-4.7 3.7-8.5 8.4-8.5s8.4 3.8 8.4 8.5c0 4.6-3.7 8.4-8.4 8.4z" fill="#fff"/></g></svg>