<svg fill="none" height="26" viewBox="0 0 107 26" width="107" xmlns="http://www.w3.org/2000/svg"><g fill="#f5f5f5"><path d="m1.57354 7.53868c-.878255 0-1.57354-.69529-1.57354-1.57354 0-.87826.695285-1.57354 1.57354-1.57354.87825 0 1.57354.69528 1.57354 1.57354-.0366.87825-.73188 1.57354-1.57354 1.57354zm0-2.74455c-.658692 0-1.171005.54891-1.171005 1.17101 0 .65869.548907 1.171 1.171005 1.171.65869 0 1.171-.54891 1.171-1.171 0-.6221-.51231-1.17101-1.171-1.17101zm.40253 2.08586-.32934-.69529h-.29276v.6221h-.365936v-1.71991h.805066c.25616 0 .51232.25615.51232.5489 0 .18297-.10978.36594-.25616.47572l.29275.6221zm-.6221-1.06123h.43913c.0366 0 .10978-.07318.10978-.18297 0-.10978-.07318-.18296-.10978-.18296h-.43913z"/><path d="m71.6496 3.33053c0 1.46376-1.0978 2.67136-2.8543 2.67136-1.6833 0-2.7445-1.17101-2.7445-2.67136 0-1.50034 1.1344-2.67135 2.8177-2.67135 1.7199 0 2.7811 1.17101 2.7811 2.67135z"/><path d="m2.96316 20.5656c.98804.5855 3.0007 1.2442 4.57424 1.2442 1.61013 0 2.26882-.5123 2.26882-1.3906 0-.9148-.51232-1.3173-2.48839-1.976-3.5496-1.171-4.94017-3.1105-4.90358-5.1232 0-3.2202 2.70795-5.63543 6.95284-5.63543 1.97611 0 3.73261.47572 4.79381 1.02463l-.9149 3.6594c-.7684-.4025-2.2688-.988-3.69594-.988-1.28078 0-2.01266.5123-2.01266 1.3539 0 .8417.65869 1.2442 2.7445 1.9761 3.2569 1.1344 4.5743 2.7811 4.6109 5.2695 0 3.2203-2.4884 5.5623-7.3554 5.5623-2.23223 0-4.24489-.5123-5.52568-1.2076z"/><path d="m22.394 15.2599h.0732c.4025-.7318.8051-1.4271 1.2076-2.0492l3.4398-5.12318h6.404l-6.1112 6.91628 6.9894 10.1731h-6.5503l-4.1351-7.0261-1.3174 1.6834v5.3427h-5.3061v-24.810689h5.3061z"/><path d="m35.2753 13.5401c0-2.1224-.0732-3.91554-.1464-5.45248h4.6108l.2562 2.37858h.1098c.6953-1.13439 2.4152-2.74452 5.2695-2.74452 3.4764 0 6.1112 2.34202 6.1112 7.35542v10.0999h-5.3061v-9.4778c0-2.1957-.7685-3.696-2.6714-3.696-1.4637 0-2.342 1.0246-2.7079 1.976-.1464.3294-.183.8417-.183 1.3174v9.8438h-5.3061v-11.6003z"/><path d="m60.3807 3.47656v4.61083h3.8057v3.91551h-3.8057v6.1844c0 2.0493.5123 3.0007 2.0858 3.0007.7319 0 1.0978-.0366 1.5735-.1464l.0366 4.0254c-.6587.2561-1.9394.4391-3.4398.4391-1.7199 0-3.1471-.5855-4.0253-1.4638-.9881-1.0246-1.4638-2.6713-1.4638-5.0499v-6.9895h-2.2688v-3.91551h2.2688v-3.18366z"/><path d="m71.5034 8.08789h-5.3061v17.08931h5.3061z"/><path d="m75.3098 25.1766v-13.1738h-2.2688v-3.91555h2.2688v-.69528c0-4.75721 3.6228-7.39197 8.8924-7.39197 1.8296 0 3.9887.402533 5.0133 1.06122l-1.0246 4.02533c-.8417-.43912-2.1956-.87825-3.879-.87825-2.7811 0-3.7691 1.42716-3.7691 3.33004v.5855h10.3926v17.08936h-5.3061v-13.1738h-5.0133v13.1738h-5.3062z"/><path d="m106.964 24.7007c-.952.4392-2.708.8051-4.757.8051-5.526 0-9.039-3.4032-9.039-8.7459 0-4.9768 3.4398-9.07533 9.771-9.07533 1.39 0 2.927.25616 4.061.65869l-.841 3.95214c-.622-.2928-1.574-.5123-2.964-.5123-2.781 0-4.6111 1.9761-4.5745 4.7938 0 3.1105 2.0855 4.7938 4.6835 4.7938 1.245 0 2.233-.2196 3.038-.5489z"/></g></svg>