<svg enable-background="new 0 0 127 48" viewBox="0 0 127 48" xmlns="http://www.w3.org/2000/svg"><path d="m66.5 15.9c0 1.2-1 2.2-2.2 2.2s-2.2-1-2.2-2.2 1-2.2 2.2-2.2 2.2 1 2.2 2.2zm-9.2 4.4v.5s-1.1-1.4-3.3-1.4c-3.7 0-6.6 2.8-6.6 6.8 0 3.9 2.9 6.8 6.6 6.8 2.3 0 3.3-1.4 3.3-1.4v.6c0 .3.2.5.5.5h2.8v-12.8h-2.8c-.3 0-.5.2-.5.4zm0 8.3c-.5.8-1.5 1.4-2.8 1.4-2.2 0-3.9-1.4-3.9-3.7s1.7-3.7 3.9-3.7c1.2 0 2.3.7 2.8 1.4zm5.3-8.7h3.3v12.8h-3.3zm48.9-.4c-2.3 0-3.3 1.4-3.3 1.4v-7.2h-3.3v19h2.8c.3 0 .5-.2.5-.5v-.6s1.1 1.4 3.3 1.4c3.7 0 6.6-2.9 6.6-6.8s-2.9-6.7-6.6-6.7zm-.5 10.4c-1.3 0-2.3-.6-2.8-1.4v-4.5c.5-.7 1.6-1.4 2.8-1.4 2.2 0 3.9 1.4 3.9 3.7s-1.7 3.6-3.9 3.6zm-7.8-4.8v7.6h-3.2v-7.3c0-2.1-.7-3-2.5-3-1 0-2 .5-2.7 1.3v8.9h-3.3v-12.7h2.6c.3 0 .5.2.5.5v.5c1-1 2.2-1.4 3.5-1.4 1.4 0 2.6.4 3.6 1.2 1.1 1 1.5 2.2 1.5 4.4zm-19.7-5.6c-2.3 0-3.3 1.4-3.3 1.4v-7.2h-3.2v19h2.8c.3 0 .5-.2.5-.5v-.6s1.1 1.4 3.3 1.4c3.7 0 6.6-2.9 6.6-6.8 0-3.8-2.9-6.7-6.7-6.7zm-.5 10.4c-1.3 0-2.3-.6-2.8-1.4v-4.5c.5-.7 1.6-1.4 2.8-1.4 2.2 0 3.9 1.4 3.9 3.7s-1.7 3.6-3.9 3.6zm-8.9-10.4c1 0 1.5.2 1.5.2v3s-2.7-.9-4.4 1v9h-3.3v-12.8h2.8c.3 0 .5.2.5.5v.5c.6-.7 1.9-1.4 2.9-1.4zm-34 12c-.2-.4-.3-.9-.5-1.2-.3-.6-.5-1.2-.8-1.7-2.4-5.1-4.9-10.3-7.5-15.4l-.1-.2c-.3-.5-.6-1.1-.8-1.6-.3-.6-.7-1.3-1.2-1.9-1.1-1.4-2.7-2.1-4.3-2.1-1.7 0-3.2.8-4.4 2-.5.6-.9 1.3-1.2 1.9-.3.5-.5 1.1-.8 1.6l-.3.1c-2.6 5.1-5.2 10.3-7.5 15.4v.1c-.2.5-.5 1.1-.8 1.7-.2.4-.3.8-.5 1.2-.5 1.4-.6 2.6-.4 3.8.4 2.6 2.1 4.7 4.4 5.7.9.4 1.8.5 2.8.5.3 0 .6 0 .9-.1 1.1-.1 2.3-.5 3.4-1.2 1.4-.8 2.7-1.9 4.2-3.5 1.5 1.6 2.9 2.8 4.2 3.5 1.1.6 2.3 1 3.4 1.2.3 0 .6.1.9.1 1 0 1.9-.2 2.8-.5 2.4-1 4.1-3.1 4.4-5.7.3-1.2.2-2.4-.3-3.7zm-15.4 1.8c-1.8-2.3-3-4.5-3.4-6.3-.2-.8-.2-1.5-.1-2.1.1-.5.3-1 .5-1.4.6-.9 1.7-1.5 3-1.5s2.4.5 3 1.5c.3.4.5.9.5 1.4.1.6.1 1.3-.1 2.1-.3 1.8-1.5 4-3.4 6.3zm13.6 1.6c-.2 1.8-1.4 3.3-3.1 4-.8.3-1.7.4-2.6.3s-1.7-.4-2.6-.9c-1.2-.7-2.5-1.7-3.9-3.3 2.3-2.8 3.6-5.3 4.1-7.5.2-1.1.3-2 .2-2.9s-.4-1.6-.9-2.3c-1.1-1.5-2.8-2.4-4.8-2.4s-3.8.9-4.8 2.4c-.5.7-.8 1.5-.9 2.3-.1.9-.1 1.9.2 2.9.5 2.3 1.9 4.8 4.1 7.6-1.4 1.6-2.7 2.6-3.9 3.3-.9.5-1.7.8-2.6.9s-1.8 0-2.6-.3c-1.7-.7-2.9-2.2-3.1-4-.1-.9 0-1.7.3-2.7.1-.3.3-.7.4-1.1.2-.5.5-1.1.8-1.7v-.1c2.4-5.1 4.9-10.3 7.5-15.3l.1-.2c.3-.5.5-1.1.8-1.6s.6-1.1 1-1.5c.7-.8 1.7-1.3 2.7-1.3s2 .4 2.7 1.3c.4.4.7 1 1 1.5s.5 1.1.8 1.6l.1.2c2.6 5.1 5.1 10.2 7.5 15.4.3.5.5 1.2.8 1.7.2.4.3.7.4 1.1.4.9.5 1.7.3 2.6z" fill="#9fa7b1"/></svg>