<svg enable-background="new 0 0 127 48" viewBox="0 0 127 48" xmlns="http://www.w3.org/2000/svg"><g fill="#9fa7b1"><path d="m49.5 23.4h-7.9c-.2 0-.4.2-.4.4v3.8c0 .2.2.4.4.4h3.1v4.8s-.7.2-2.6.2c-2.2 0-5.4-.8-5.4-7.7s3.3-7.8 6.3-7.8c2.7 0 3.8.5 4.5.7.2.1.4-.2.4-.4l.9-3.7c0-.1 0-.2-.1-.3-.3-.2-2.1-1.2-6.6-1.2-5.2 0-10.6 2.2-10.6 13 0 10.7 6.2 12.3 11.3 12.3 4.3 0 6.9-1.8 6.9-1.8.1-.1.1-.2.1-.3v-12c.1-.2-.1-.4-.3-.4m40.5-9.5c0-.2-.2-.4-.4-.4h-4.4c-.2 0-.4.2-.4.4v8.5h-6.8v-8.5c0-.2-.2-.4-.4-.4h-4.4c-.2 0-.4.2-.4.4v23.1c0 .2.2.4.4.4h4.4c.2 0 .4-.2.4-.4v-9.9h6.9v9.9c0 .2.2.4.4.4h4.4c.2 0 .4-.2.4-.4zm-32.1 3c0-1.6-1.3-2.9-2.9-2.9s-2.9 1.3-2.9 2.9 1.3 2.9 2.9 2.9 2.9-1.3 2.9-2.9m-.3 15.2v-10.7c0-.2-.2-.4-.4-.4h-4.4c-.2 0-.4.2-.4.4v15.3c0 .4.3.6.6.6h4c.4 0 .5-.2.5-.6zm49.2-11h-4.4c-.2 0-.4.2-.4.4v11.3s-1.1.8-2.7.8-2-.7-2-2.3v-9.9c0-.2-.2-.4-.4-.4h-4.5c-.2 0-.4.2-.4.4v10.6c0 4.6 2.6 5.7 6.1 5.7 2.9 0 5.2-1.6 5.2-1.6s.1.8.2.9.2.2.3.2h2.8c.2 0 .4-.2.4-.4v-15.5c.2 0 0-.2-.2-.2m10.3 12.5c-1.5 0-2.6-.7-2.6-.7v-7.3s1-.6 2.3-.7c1.6-.1 3.1.3 3.1 4.1 0 3.9-.7 4.7-2.8 4.6zm1.7-13c-2.5 0-4.2 1.1-4.2 1.1v-7.8c0-.2-.2-.4-.4-.4h-4.4c-.2 0-.4.2-.4.4v23.1c0 .2.2.4.4.4h3.1c.1 0 .2-.1.3-.2s.2-1.1.2-1.1 1.8 1.7 5.2 1.7c4 0 6.3-2 6.3-9.2.1-7.1-3.6-8-6.1-8m-48.5.5h-3.3v-4.4c0-.2-.1-.2-.3-.2h-4.5c-.2 0-.3.1-.3.2v4.5s-2.3.5-2.4.6c-.2 0-.3.2-.3.4v2.8c0 .2.2.4.4.4h2.3v6.8c0 5.1 3.6 5.6 6 5.6 1.1 0 2.4-.4 2.6-.4.1 0 .2-.2.2-.3v-3.1c0-.2-.2-.4-.4-.4s-.7.1-1.2.1c-1.6 0-2.2-.8-2.2-1.7v-6.5h3.3c.2 0 .4-.2.4-.4v-3.6c0-.3-.1-.4-.3-.4z"/><path d="m15 12c-7.2 0-13 5.8-13 13 0 5.7 3.7 10.6 8.9 12.3.6.1.9-.3.9-.6s0-1.3 0-2.4c-3.6.8-4.4-1.5-4.4-1.5-.6-1.5-1.4-1.9-1.4-1.9-1.2-.9 0-.9 0-.9 1.3.1 2 1.3 2 1.3 1.2 2 3 1.4 3.8 1.1.1-.8.5-1.4.8-1.7-2.9-.3-5.9-1.4-5.9-6.4 0-1.4.5-2.6 1.3-3.5-.1-.3-.6-1.6.1-3.4 0 0 1.1-.3 3.6 1.3 1-.3 2.1-.4 3.2-.4s2.2.1 3.2.4c2.5-1.7 3.6-1.3 3.6-1.3.7 1.8.3 3.1.1 3.4.8.9 1.3 2.1 1.3 3.5 0 5-3 6.1-5.9 6.4.5.4.9 1.2.9 2.4v3.6c0 .3.2.7.9.6 5.1-1.7 8.9-6.6 8.9-12.3 0-7.2-5.8-13-12.9-13"/><path d="m6.9 30.5c0 .1-.1.1-.2 0-.1 0-.1-.1-.1-.2s.1-.1.2 0c0 0 .1.1.1.2m.6.5c-.1.1-.2 0-.3-.1s-.1-.2 0-.3.2 0 .3.1c.1.2.1.3 0 .3m.4.8c-.1.1-.2 0-.3-.1s-.1-.3 0-.3c.1-.1.2 0 .3.1s.1.2 0 .3m.8.8c-.1.1-.2.1-.3 0s-.1-.3-.1-.3c.1-.1.2-.1.3 0s.2.2.1.3m.9.3c0 .1-.1.1-.3.1-.1 0-.2-.2-.2-.3s.2-.2.3-.1c.2.1.3.2.2.3m1.1.1c0 .1-.1.2-.3.2s-.3-.1-.3-.2.1-.2.3-.2.3.1.3.2m1.1 0c0 .1-.1.2-.2.2-.2 0-.3 0-.3-.1s.1-.2.2-.2c.1-.1.3 0 .3.1"/></g></svg>