<svg enable-background="new 0 0 127 48" viewBox="0 0 127 48" xmlns="http://www.w3.org/2000/svg"><g fill="#9fa7b1"><path d="m63.3 32.2c3.6 0 6.1-2.4 6.1-6.3v-10.2h-4v10c0 1.9-.7 2.8-2.1 2.8-1.3 0-1.9-.9-1.9-2.8v-10h-4v10.2c0 4 2.2 6.3 5.9 6.3z"/><path d="m80 16.6c-1.1-.8-2.4-.9-4.1-.9h-5.4v16.2h4v-5.2h1.1c1.7 0 3-.1 4-.7 1.6-1 2.6-2.7 2.6-4.8s-.8-3.6-2.2-4.6zm-4.8 6.6h-.7v-3.9h1c1.8 0 2.6.5 2.6 1.9.1 1.5-.9 2-2.9 2z"/><path d="m104.2 22.9 6 9h3.5v-16.2h-4v9l-5.9-9h-3.6v16.2h4z"/><path d="m53.8 17.8c-1.6-1.6-3.6-2.4-5.8-2.4-2.3 0-4.3.8-5.9 2.4s-2.5 3.6-2.5 5.9c0 2.4.8 4.4 2.3 6 1.6 1.7 3.7 2.6 6.1 2.6 2.3 0 4.4-.9 6-2.5 1.5-1.6 2.4-3.7 2.4-6s-.9-4.4-2.6-6zm-5.8 10.4c-2.2 0-4.3-2-4.3-4.5 0-2.4 1.9-4.3 4.3-4.3 2.3 0 4.2 1.9 4.2 4.3 0 2.6-1.9 4.5-4.2 4.5z"/><path d="m96.9 17.8c-1.6-1.6-3.6-2.4-5.8-2.4-2.3 0-4.3.8-5.9 2.4s-2.5 3.6-2.5 5.9c0 2.4.8 4.4 2.3 6 1.6 1.7 3.7 2.6 6.1 2.6 2.3 0 4.4-.9 6-2.5 1.5-1.6 2.4-3.7 2.4-6-.1-2.3-1-4.4-2.6-6zm-5.8 10.4c-2.2 0-4.3-2-4.3-4.5 0-2.4 1.9-4.3 4.3-4.3 2.3 0 4.2 1.9 4.2 4.3 0 2.6-1.9 4.5-4.2 4.5z"/><path d="m12 29.7c1.6 1.7 3.6 2.6 6 2.6 2.8 0 5.4-1.4 6.9-3.6.9-1.4 1.4-2.9 1.4-4.8 0-.3 0-.7 0-1.1h-9.3v3.2h4.6c-.8 1.4-2.1 2.2-3.7 2.2-2.2 0-4.3-2-4.3-4.6 0-2.3 1.9-4.3 4.3-4.3 1.3 0 2.3.5 3.3 1.6h4.5c-1.3-3.5-4.3-5.6-7.8-5.6-2.3 0-4.3.8-5.9 2.4s-2.5 3.6-2.5 5.9c.2 2.4.9 4.4 2.5 6.1z"/><path d="m35.3 26.3c2.3-.6 3.7-2.6 3.7-5.2 0-2-.8-3.5-2.2-4.5-1.1-.8-2.4-.9-4.1-.9h-5.4v16.2h4v-5.2l3.1 5.2h4.9zm-3.2-3.1h-.8v-3.9h1.1c1.8 0 2.6.5 2.6 1.9 0 1.5-1 2-2.9 2z"/><path d="m116.1 17.7c.3 0 .6-.1.9-.4.2-.2.4-.5.4-.9 0-.3-.1-.6-.4-.9-.2-.2-.5-.4-.9-.4-.3 0-.6.1-.9.4-.2.2-.4.5-.4.9 0 .3.1.6.4.9s.6.4.9.4zm-.7-1.9c.2-.2.5-.3.7-.3.3 0 .5.1.7.3s.3.5.3.7-.1.5-.3.8c-.2.2-.5.3-.7.3-.3 0-.5-.1-.7-.3s-.3-.5-.3-.8.1-.5.3-.7z"/><path d="m116.6 17.1c0-.1 0-.1 0-.2v-.1c0-.1 0-.1-.1-.2 0-.1-.1-.1-.2-.1.1 0 .1 0 .2-.1s.1-.1.1-.3-.1-.3-.2-.3-.2 0-.4 0h-.5v1.3h.2v-.5h.2.3c.1 0 .1.2.1.3v.1s0 0 0 0zm-.3-.7s-.1 0-.2 0h-.2v-.4h.2.3c.1 0 .1.1.1.2-.1.1-.1.2-.2.2z"/></g></svg>