<svg enable-background="new 0 0 127 48" viewBox="0 0 127 48" xmlns="http://www.w3.org/2000/svg"><path d="m103.3 20.1h-6.3v10.4c0 .5-.2.9-.5 1.2s-.7.4-1.2.5h-3.7c-.5 0-.9-.2-1.2-.5s-.5-.7-.5-1.2v-10.4h-6.3v11c0 1.5.3 2.7.9 3.7s1.4 1.8 2.5 2.3 2.4.8 3.8.8h6.2v-.1c1.3 0 2.5-.3 3.4-.8.9-.6 1.7-1.4 2.1-2.4.5-1 .8-2.2.8-3.5zm-63.4.6c-1.1-.5-2.3-.7-3.6-.7h-4.1l-1.6.2c-.4.1-.6.2-.6.2v-8.4h-6.3v25.9h6.3v-10.5c0-.4.2-.9.5-1.2s.7-.5 1.2-.5h3.7c.4 0 .8.2 1.2.5.3.3.5.7.5 1.2v10.5h6.3v-11.3c0-1.6-.3-2.8-1-3.8-.6-.9-1.4-1.6-2.5-2.1zm21.4 9.8c0 .5-.2.9-.5 1.2s-.7.4-1.2.5h-3.6c-.5 0-.9-.2-1.2-.5s-.5-.7-.5-1.2v-10.4h-6.3v11c0 1.5.3 2.7.9 3.7s1.4 1.8 2.5 2.3 2.3.8 3.8.8h6.2v-.1c1.3 0 2.5-.3 3.4-.8.9-.6 1.7-1.4 2.2-2.4s.7-2.2.8-3.5v-11h-6.3v10.4zm11.1 7.4h6.3v-25.9h-6.3z" fill="#9fa7b1"/></svg>