<svg enable-background="new 0 0 127 48" viewBox="0 0 127 48" xmlns="http://www.w3.org/2000/svg"><g fill="#9fa7b1"><path d="m45.1 27.3c-.9-.5-1.4-.9-1.4-1.5 0-.8.7-1.2 1.7-1.2 1.2 0 2.3.5 2.3.5l.8-2.6s-.8-.6-3.1-.6c-3.2 0-5.4 1.8-5.4 4.4 0 1.5 1 2.6 2.4 3.4 1.1.6 1.5 1.1 1.5 1.7 0 .7-.6 1.3-1.6 1.3-1.6 0-3-.8-3-.8l-.9 2.6s1.4.9 3.6.9c3.3 0 5.7-1.6 5.7-4.5 0-1.7-1.2-2.8-2.6-3.6z"/><path d="m58.3 21.8c-1.6 0-2.9.8-3.9 1.9l1.4-7.4h-3.8l-3.6 18.8h3.7l1.2-6.4c.5-2.4 1.7-3.9 2.9-3.9.8 0 1.1.6 1.1 1.4 0 .5 0 1.1-.2 1.6l-1.4 7.4h3.7l1.4-7.6c.2-.8.3-1.7.3-2.4.1-2.2-.9-3.4-2.8-3.4z"/><path d="m69.5 21.8c-4.4 0-7.4 4-7.4 8.4 0 2.8 1.7 5.1 5.1 5.1 4.3 0 7.3-3.9 7.3-8.4 0-2.6-1.5-5.1-5-5.1zm-1.8 10.7c-1.3 0-1.8-1.1-1.8-2.4 0-2.1 1.1-5.5 3.1-5.5 1.3 0 1.7 1.1 1.7 2.2.1 2.3-1 5.7-3 5.7z"/><path d="m83.9 21.8c-2.5 0-3.9 2.2-3.9 2.2l.2-2h-3.2c-.2 1.3-.5 3.4-.8 4.9l-2.5 13.4h3.7l1-5.4h.1s.8.5 2.2.5c4.3 0 7.1-4.4 7.1-8.9-.1-2.5-1.2-4.7-3.9-4.7zm-3.5 10.8c-.9 0-1.5-.5-1.5-.5l.6-3.4c.4-2.3 1.6-3.8 2.9-3.8 1.1 0 1.5 1 1.5 2 0 2.3-1.4 5.7-3.5 5.7z"/><path d="m93 16.5c-1.2 0-2.1.9-2.1 2.1 0 1.1.7 1.8 1.7 1.8 1.1 0 2.1-.8 2.2-2.1 0-1-.7-1.8-1.8-1.8z"/><path d="m87.8 35.1h3.7l2.5-13h-3.7z"/><path d="m103.3 22.1h-2.5l.1-.6c.2-1.3.9-2.4 2.2-2.4.7 0 1.2.2 1.2.2l.7-2.9s-.6-.3-2-.3c-1.3 0-2.6.4-3.6 1.2-1.3 1.1-1.8 2.6-2.1 4.2l-.1.6h-1.7l-.5 2.8h1.7l-1.9 10.3h3.7l1.9-10.3h2.5z"/><path d="m112.2 22.1s-2.3 5.8-3.3 8.9c-.1-1-.9-8.9-.9-8.9h-4l2.2 11.9c0 .3 0 .4-.1.6-.4.8-1.1 1.6-2 2.2-.7.5-1.5.8-2.1 1l1 3.1c.8-.2 2.3-.8 3.6-2 1.7-1.6 3.2-4 4.8-7.3l4.5-9.6c.1.1-3.7.1-3.7.1z"/><path d="m25.8 13.6s-.3.1-.9.3c-.1-.3-.2-.7-.4-1.1-.6-1.2-1.6-1.9-2.7-1.9-.1 0-.1 0-.2 0 0 0-.1-.1-.1-.1-.5-.5-1.1-.8-1.9-.8-1.5 0-2.9 1.1-4.1 3-.8 1.3-1.5 3-1.6 4.2-1.7.5-2.8.9-2.9.9-.8.3-.9.3-1 1.1-.1.7-2.3 17.8-2.3 17.8l18.3 3.2v-26.6c-.1 0-.2 0-.2 0zm-4.3 1.4c-1 .3-2 .6-3.1.9.3-1.1.9-2.3 1.6-3 .3-.3.6-.6 1-.8.4.9.5 2.1.5 2.9zm-2-3.9c.3 0 .6.1.9.2-.4.2-.8.5-1.1.9-.9 1-1.6 2.5-1.9 4-.9.3-1.7.5-2.5.8.4-2.3 2.4-5.8 4.6-5.9zm-2.8 13.4c.1 1.6 4.2 1.9 4.4 5.6.2 2.9-1.5 4.9-4 5-3 .2-4.6-1.6-4.6-1.6l.6-2.7s1.6 1.2 2.9 1.1c.8 0 1.2-.8 1.1-1.2-.1-2-3.5-1.9-3.7-5.3-.2-2.8 1.7-5.7 5.7-5.9 1.6-.1 2.4.3 2.4.3l-.9 3.5s-1-.5-2.3-.4c-1.6.1-1.6 1.3-1.6 1.6zm5.8-9.8c0-.7-.1-1.8-.4-2.6 1.1.2 1.7 1.5 1.9 2.2-.5 0-1 .2-1.5.4z"/><path d="m26.6 40.2 7.6-1.9s-3.3-22.2-3.3-22.3-.1-.2-.3-.2-2.3 0-2.3 0-1.3-1.3-1.8-1.7v26.1z"/></g></svg>