<svg enable-background="new 0 0 127 48" viewBox="0 0 127 48" xmlns="http://www.w3.org/2000/svg"><path d="m79.4 15.1c-1.2.5-2.4.9-3.8 1 1.4-.8 2.4-2.1 2.9-3.6-1.3.7-2.7 1.3-4.2 1.6-1.2-1.3-2.9-2.1-4.8-2.1-3.6 0-6.5 2.9-6.5 6.5 0 .5.1 1 .2 1.5-5.4-.3-10.3-2.9-13.5-6.8-.6 1-.9 2.1-.9 3.3 0 2.3 1.2 4.3 2.9 5.4-1 0-2.1-.3-3-.8v.1c0 3.2 2.3 5.8 5.2 6.4-.6.2-1.1.2-1.7.2-.4 0-.8 0-1.2-.1.8 2.6 3.2 4.5 6.1 4.5-2.2 1.8-5.1 2.8-8.1 2.8-.5 0-1 0-1.6-.1 2.9 1.9 6.3 2.9 10 2.9 12 0 18.6-10 18.6-18.6 0-.3 0-.6 0-.8 1.4-.9 2.6-2 3.4-3.3z" fill="#9fa7b1"/></svg>